<?xml version="1.0" encoding="utf-8"?>
<!-- Generator: Adobe Illustrator 23.0.3, SVG Export Plug-In . SVG Version: 6.00 Build 0)  -->
<svg version="1.1" id="Слой_1" xmlns="http://www.w3.org/2000/svg" xmlns:xlink="http://www.w3.org/1999/xlink" x="0px" y="0px"
	 viewBox="0 0 31 41" style="enable-background:new 0 0 31 41;" xml:space="preserve">
<style type="text/css">
	.st0{fill:#FFFFFF;}
	.st1{fill:#46465D;}
	.st2{fill-rule:evenodd;clip-rule:evenodd;fill:#FFFFFF;}
	.st3{fill:#151630;}
</style>
<g>
	<path class="st0" d="M3,0h25c1.7,0,3,1.3,3,3v35c0,1.7-1.3,3-3,3H3c-1.7,0-3-1.3-3-3V3C0,1.3,1.3,0,3,0z"/>
</g>
<g>
	<path class="st1" d="M4,2h23c1.1,0,2,0.9,2,2v33c0,1.1-0.9,2-2,2H4c-1.1,0-2-0.9-2-2V4C2,2.9,2.9,2,4,2z"/>
</g>
<g>
	<rect x="4" y="13" class="st0" width="23" height="3"/>
</g>
<g>
	<rect x="4" y="19" class="st0" width="23" height="3"/>
</g>
<g>
	<rect x="4" y="25" class="st0" width="23" height="3"/>
</g>
<g>
	<rect x="8" y="5" class="st0" width="3" height="33"/>
</g>
<g>
	<rect x="14" y="5" class="st0" width="3" height="33"/>
</g>
<g>
	<rect x="20" y="5" class="st0" width="3" height="33"/>
</g>
<g>
	<rect x="26" y="4" class="st0" width="2" height="33"/>
</g>
<g>
	<path class="st2" d="M4,3C3.4,3,3,3.4,3,4v33c0,0.6,0.4,1,1,1h23c0.6,0,1-0.4,1-1V4c0-0.6-0.4-1-1-1H4z M26,5H5v31h21V5z"/>
</g>
<g>
	<path class="st3" d="M21.5,20.5c0,3.3-2.7,6-6,6s-6-2.7-6-6s2.7-6,6-6S21.5,17.2,21.5,20.5z"/>
	<path class="st0" d="M15.5,27C11.9,27,9,24.1,9,20.5s2.9-6.5,6.5-6.5s6.5,2.9,6.5,6.5S19.1,27,15.5,27z M15.5,15
		c-3,0-5.5,2.5-5.5,5.5c0,3,2.5,5.5,5.5,5.5c3,0,5.5-2.5,5.5-5.5C21,17.5,18.5,15,15.5,15z"/>
</g>
</svg>
