<?xml version="1.0" encoding="utf-8"?>
<!-- Generator: Adobe Illustrator 23.0.3, SVG Export Plug-In . SVG Version: 6.00 Build 0)  -->
<svg version="1.1" id="Слой_1" xmlns="http://www.w3.org/2000/svg" xmlns:xlink="http://www.w3.org/1999/xlink" x="0px" y="0px"
	 viewBox="0 0 17 17" style="enable-background:new 0 0 17 17;" xml:space="preserve">
<style type="text/css">
	.st0{fill-rule:evenodd;clip-rule:evenodd;fill:#FFFFFF;}
	.st1{fill:#34C414;}
	.st2{fill:#34344C;}
</style>
<g>
	<g id="chat_icon_path">
		<path class="st0" d="M0,11.9V5.7C0,4.2,1.2,3,2.7,3h8.6C12.8,3,14,4.2,14,5.7v10.8c0,0.2-0.1,0.4-0.3,0.5C13.5,17,13.2,17,13,16.9
			L11,15c0,0,0,0-0.1-0.1c0,0-0.1,0-0.1-0.1c-0.1-0.1-0.2-0.2-0.3-0.2c0,0-0.2,0-0.3,0c-0.1,0-0.2,0-0.4,0H2.7
			C1.2,14.6,0,13.4,0,11.9z M11.3,12.7l0.4,0.3c0.1,0.1,0.2,0.1,0.3,0.3V5.7C12,5.3,11.7,5,11.3,5H2.7C2.3,5,2,5.3,2,5.7v6.3
			c0,0.4,0.3,0.7,0.7,0.7H10c0.1,0,0.2,0,0.3,0c0.2,0,0.4,0,0.5,0L11.3,12.7z"/>
	</g>
	<g>
		<path class="st1" d="M13,7c1.7,0,3-1.3,3-3s-1.3-3-3-3s-3,1.3-3,3S11.3,7,13,7z"/>
		<path class="st2" d="M13,8c-2.2,0-4-1.8-4-4s1.8-4,4-4s4,1.8,4,4S15.2,8,13,8z M13,2c-1.1,0-2,0.9-2,2s0.9,2,2,2s2-0.9,2-2
			S14.1,2,13,2z"/>
	</g>
</g>
</svg>
