<svg width="16" height="20" viewBox="0 0 16 20" fill="none" xmlns="http://www.w3.org/2000/svg">
<g id="fire x3">
<g id="Group 18">
<g id="Group 17">
<path id="Path" d="M15.9699 11.9012C15.9699 16.3487 12.3947 19.954 7.98497 19.954C3.57527 19.954 0 16.3487 0 11.9012C0 11.2391 0.103758 10.4714 0.292848 9.64499L3.07006 11.1262C3.07006 11.1262 2.43879 3.92714 7.98497 0C7.98497 0 7.90303 0.849878 7.98497 1.93399C8.09648 3.41565 8.51394 5.33545 9.86327 6.11932C11.8594 7.27824 14.1212 6.29878 14.1212 6.29878C14.1212 6.29878 14.1998 9.511 13.472 11.1672C13.472 11.1672 14.817 11.221 15.9263 10.8132C15.9549 11.199 15.9699 11.5638 15.9699 11.9012Z" fill="#FF421D"/>
<path id="Path_2" d="M7.98524 19.9538C6.10548 19.9538 4.4696 18.4134 4.5816 16.521C4.76682 13.3895 7.10379 11.8486 7.10379 11.8486C7.08536 11.9768 7.07518 12.1078 7.07518 12.2408C7.07518 13.0477 7.42718 13.7714 7.98524 14.2643C8.45409 14.679 9.06888 14.9303 9.74136 14.9303C10.1171 14.9303 10.4745 14.8516 10.7983 14.7102C11.1498 15.3787 11.3894 16.0183 11.3894 16.521C11.3894 18.4168 9.86548 19.9538 7.98524 19.9538Z" fill="#FBBF00"/>
</g>
</g>
</g>
</svg>
