<svg id="chat_icon_logs" width="18" height="16" viewBox="0 0 18 16" fill="none" xmlns="http://www.w3.org/2000/svg"><g id="icon logs"><g id="keyboard"><path id="Shape" fill-rule="evenodd" clip-rule="evenodd" d="M2.53125 0H15.4688C16.8645 0 18 1.15352 18 2.57143V13.4286C18 14.8465 16.8645 16 15.4688 16H2.53125C1.1355 16 0 14.8465 0 13.4286V2.57143C0 1.15352 1.1355 0 2.53125 0ZM15.7115 14C15.8706 14 16 13.8654 16 13.7V2.3C16 2.13455 15.8706 2 15.7115 2H2.28846C2.12937 2 2 2.13455 2 2.3V13.7C2 13.8654 2.12937 14 2.28846 14H15.7115Z" fill="white"/><path id="Path" d="M12.375 10H5.625C5.00367 10 4.5 10.4477 4.5 11C4.5 11.5523 5.00367 12 5.625 12H12.375C12.9963 12 13.5 11.5523 13.5 11C13.5 10.4477 12.9963 10 12.375 10Z" fill="white"/><path id="Path_2" d="M5.625 5C5.625 5.55229 6.12867 6 6.75 6H7.5C8.12133 6 8.625 5.55229 8.625 5C8.625 4.44771 8.12133 4 7.5 4H6.75C6.12867 4 5.625 4.44771 5.625 5Z" fill="white"/><path id="Path_3" d="M9.375 5C9.375 5.55229 9.87867 6 10.5 6H11.25C11.8713 6 12.375 5.55229 12.375 5C12.375 4.44771 11.8713 4 11.25 4H10.5C9.87867 4 9.375 4.44771 9.375 5Z" fill="white"/><path id="Path_4" d="M4.875 9H5.625C6.24633 9 6.75 8.55229 6.75 8C6.75 7.44771 6.24633 7 5.625 7H4.875C4.25367 7 3.75 7.44771 3.75 8C3.75 8.55229 4.25367 9 4.875 9Z" fill="white"/><path id="Path_5" d="M12.375 9H13.125C13.7463 9 14.25 8.55229 14.25 8C14.25 7.44771 13.7463 7 13.125 7H12.375C11.7537 7 11.25 7.44771 11.25 8C11.25 8.55229 11.7537 9 12.375 9Z" fill="white"/><path id="Path_6" d="M8.625 9H9.375C9.99633 9 10.5 8.55229 10.5 8C10.5 7.44771 9.99633 7 9.375 7H8.625C8.00367 7 7.5 7.44771 7.5 8C7.5 8.55229 8.00367 9 8.625 9Z" fill="white"/></g></g></svg>