<svg width="25" height="27" viewBox="0 0 25 27" fill="none" xmlns="http://www.w3.org/2000/svg">
<path fill-rule="evenodd" clip-rule="evenodd" d="M22.6522 21.7776L22.2548 22.0955C21.0915 23.0421 19.6391 23.4756 18.1507 23.3166C16.6622 23.1649 15.3255 22.4351 14.3862 21.279L13.1145 19.7111C13.9021 22.4062 16.944 25.5493 16.9802 25.5854L17.5799 26.1996H7.14622L7.79652 25.5782C9.61735 23.8369 11.1203 21.4308 12.1102 19.6027L10.7156 21.3007C8.75751 23.6851 5.22424 24.032 2.83982 22.0738L2.44241 21.7559C0.0579939 19.7978 -0.288831 16.2645 1.66928 13.8801L12.4714 0.599609L23.4687 13.909C25.4123 16.3007 25.0438 19.8339 22.6522 21.7776" fill="black"/>
</svg>
