<?xml version="1.0" encoding="UTF-8"?>
<svg width="22px" height="29px" viewBox="0 0 22 29" version="1.1" xmlns="http://www.w3.org/2000/svg" xmlns:xlink="http://www.w3.org/1999/xlink">
    <!-- Generator: Sketch 53.2 (72643) - https://sketchapp.com -->
    <title>Group 16</title>
    <desc>Created with Sketch.</desc>
    <defs>
        <circle id="path-1" cx="9" cy="9" r="9"></circle>
        <filter x="-19.4%" y="-13.9%" width="138.9%" height="138.9%" filterUnits="objectBoundingBox" id="filter-3">
            <feOffset dx="0" dy="1" in="SourceAlpha" result="shadowOffsetOuter1"></feOffset>
            <feGaussianBlur stdDeviation="1" in="shadowOffsetOuter1" result="shadowBlurOuter1"></feGaussianBlur>
            <feColorMatrix values="0 0 0 0 0.062745098   0 0 0 0 0.149019608   0 0 0 0 0.2  0 0 0 0.35 0" type="matrix" in="shadowBlurOuter1"></feColorMatrix>
        </filter>
        <circle id="path-4" cx="9" cy="9" r="9"></circle>
        <circle id="path-6" cx="9" cy="9" r="7"></circle>
        <circle id="path-7" cx="9" cy="9" r="9"></circle>
        <filter x="-19.4%" y="-13.9%" width="138.9%" height="138.9%" filterUnits="objectBoundingBox" id="filter-9">
            <feOffset dx="0" dy="1" in="SourceAlpha" result="shadowOffsetOuter1"></feOffset>
            <feGaussianBlur stdDeviation="1" in="shadowOffsetOuter1" result="shadowBlurOuter1"></feGaussianBlur>
            <feColorMatrix values="0 0 0 0 0.062745098   0 0 0 0 0.149019608   0 0 0 0 0.2  0 0 0 0.35 0" type="matrix" in="shadowBlurOuter1"></feColorMatrix>
        </filter>
        <circle id="path-10" cx="9" cy="9" r="9"></circle>
        <circle id="path-12" cx="9" cy="9" r="7"></circle>
        <circle id="path-13" cx="9" cy="9" r="9"></circle>
        <filter x="-19.4%" y="-13.9%" width="138.9%" height="138.9%" filterUnits="objectBoundingBox" id="filter-15">
            <feOffset dx="0" dy="1" in="SourceAlpha" result="shadowOffsetOuter1"></feOffset>
            <feGaussianBlur stdDeviation="1" in="shadowOffsetOuter1" result="shadowBlurOuter1"></feGaussianBlur>
            <feColorMatrix values="0 0 0 0 0.062745098   0 0 0 0 0.149019608   0 0 0 0 0.2  0 0 0 0.35 0" type="matrix" in="shadowBlurOuter1"></feColorMatrix>
        </filter>
        <circle id="path-16" cx="9" cy="9" r="9"></circle>
        <circle id="path-18" cx="9" cy="9" r="7"></circle>
        <circle id="path-19" cx="9" cy="9" r="9"></circle>
        <filter x="-19.4%" y="-13.9%" width="138.9%" height="138.9%" filterUnits="objectBoundingBox" id="filter-21">
            <feOffset dx="0" dy="1" in="SourceAlpha" result="shadowOffsetOuter1"></feOffset>
            <feGaussianBlur stdDeviation="1" in="shadowOffsetOuter1" result="shadowBlurOuter1"></feGaussianBlur>
            <feColorMatrix values="0 0 0 0 0.062745098   0 0 0 0 0.149019608   0 0 0 0 0.2  0 0 0 0.35 0" type="matrix" in="shadowBlurOuter1"></feColorMatrix>
        </filter>
        <circle id="path-22" cx="9" cy="9" r="9"></circle>
        <circle id="path-24" cx="9" cy="9" r="7"></circle>
        <circle id="path-25" cx="9" cy="9" r="9"></circle>
        <filter x="-19.4%" y="-13.9%" width="138.9%" height="138.9%" filterUnits="objectBoundingBox" id="filter-27">
            <feOffset dx="0" dy="1" in="SourceAlpha" result="shadowOffsetOuter1"></feOffset>
            <feGaussianBlur stdDeviation="1" in="shadowOffsetOuter1" result="shadowBlurOuter1"></feGaussianBlur>
            <feColorMatrix values="0 0 0 0 0.062745098   0 0 0 0 0.149019608   0 0 0 0 0.2  0 0 0 0.35 0" type="matrix" in="shadowBlurOuter1"></feColorMatrix>
        </filter>
        <circle id="path-28" cx="9" cy="9" r="9"></circle>
        <circle id="path-30" cx="9" cy="9" r="7"></circle>
        <circle id="path-31" cx="9" cy="9" r="9"></circle>
        <filter x="-19.4%" y="-13.9%" width="138.9%" height="138.9%" filterUnits="objectBoundingBox" id="filter-33">
            <feOffset dx="0" dy="1" in="SourceAlpha" result="shadowOffsetOuter1"></feOffset>
            <feGaussianBlur stdDeviation="1" in="shadowOffsetOuter1" result="shadowBlurOuter1"></feGaussianBlur>
            <feColorMatrix values="0 0 0 0 0.062745098   0 0 0 0 0.149019608   0 0 0 0 0.2  0 0 0 0.35 0" type="matrix" in="shadowBlurOuter1"></feColorMatrix>
        </filter>
        <circle id="path-34" cx="9" cy="9" r="9"></circle>
        <circle id="path-36" cx="9" cy="9" r="7"></circle>
        <circle id="path-37" cx="9" cy="9" r="9"></circle>
        <filter x="-19.4%" y="-13.9%" width="138.9%" height="138.9%" filterUnits="objectBoundingBox" id="filter-39">
            <feOffset dx="0" dy="1" in="SourceAlpha" result="shadowOffsetOuter1"></feOffset>
            <feGaussianBlur stdDeviation="1" in="shadowOffsetOuter1" result="shadowBlurOuter1"></feGaussianBlur>
            <feColorMatrix values="0 0 0 0 0.062745098   0 0 0 0 0.149019608   0 0 0 0 0.2  0 0 0 0.35 0" type="matrix" in="shadowBlurOuter1"></feColorMatrix>
        </filter>
        <circle id="path-40" cx="9" cy="9" r="9"></circle>
        <circle id="path-42" cx="9" cy="9" r="7"></circle>
        <circle id="path-43" cx="9" cy="9" r="9"></circle>
        <filter x="-19.4%" y="-13.9%" width="138.9%" height="138.9%" filterUnits="objectBoundingBox" id="filter-45">
            <feOffset dx="0" dy="1" in="SourceAlpha" result="shadowOffsetOuter1"></feOffset>
            <feGaussianBlur stdDeviation="1" in="shadowOffsetOuter1" result="shadowBlurOuter1"></feGaussianBlur>
            <feColorMatrix values="0 0 0 0 0.062745098   0 0 0 0 0.149019608   0 0 0 0 0.2  0 0 0 0.35 0" type="matrix" in="shadowBlurOuter1"></feColorMatrix>
        </filter>
        <circle id="path-46" cx="9" cy="9" r="9"></circle>
        <circle id="path-48" cx="9" cy="9" r="7"></circle>
    </defs>
    <g id="Desktop" stroke="none" stroke-width="1" fill="none" fill-rule="evenodd">
        <g id="Poker-1440-3" transform="translate(-886.000000, -286.000000)">
            <g id="Group-6" transform="translate(273.000000, 109.000000)">
                <g id="Stack1" transform="translate(602.000000, 177.000000)">
                    <g id="Chips" transform="translate(3.000000, 0.000000)">
                        <g id="Group-16" transform="translate(10.000000, 0.000000)">
                            <g id="Chip-black" transform="translate(0.000000, 7.000000)">
                                <g id="Rectangle-12" transform="translate(0.000000, 1.000000)">
                                    <mask id="mask-2" fill="white">
                                        <use xlink:href="#path-1"></use>
                                    </mask>
                                    <g id="Mask">
                                        <use fill="black" fill-opacity="1" filter="url(#filter-3)" xlink:href="#path-1"></use>
                                        <use fill="#102633" fill-rule="evenodd" xlink:href="#path-1"></use>
                                    </g>
                                    <polygon fill="#FFFFFF" mask="url(#mask-2)" points="0 8 0.220230103 8 0.220230103 11.1244354 -1.11022302e-16 11.1244354"></polygon>
                                    <polygon id="Rectangle-12-Copy-3" fill="#FFFFFF" mask="url(#mask-2)" transform="translate(17.500000, 9.562218) scale(-1, 1) translate(-17.500000, -9.562218) " points="17 8 17.2202301 8 17.2202301 11.1244354 17 11.1244354"></polygon>
                                    <polygon id="Rectangle-12-Copy" fill="#FFFFFF" mask="url(#mask-2)" points="2.8815918 14 6.3430481 15.0938721 6.3430481 17.8685913 2.8815918 16.7747192"></polygon>
                                    <polygon id="Rectangle-12-Copy-2" fill="#FFFFFF" mask="url(#mask-2)" transform="translate(13.389603, 15.966034) scale(-1, 1) translate(-13.389603, -15.966034) " points="11.6588745 14.0317383 15.1203308 15.1256104 15.1203308 17.9003296 11.6588745 16.8064575"></polygon>
                                    <mask id="mask-5" fill="white">
                                        <use xlink:href="#path-4"></use>
                                    </mask>
                                    <use id="Mask-Copy-3" fill-opacity="0.5" fill="#000000" xlink:href="#path-4"></use>
                                </g>
                                <circle id="Oval-8" fill="#102633" cx="9" cy="9" r="9"></circle>
                                <g id="Oval-8-Copy">
                                    <use fill="#102633" xlink:href="#path-6"></use>
                                    <use fill-opacity="0.5" fill="#000000" xlink:href="#path-6"></use>
                                </g>
                                <circle id="Oval-8-Copy-2" fill="#102633" cx="9" cy="9" r="6"></circle>
                                <path d="M15.1195534,2.40062262 L14.7320508,3.07179677 C14.4559084,3.55008939 13.844318,3.71396455 13.3660254,3.43782217 L11.6339746,2.43782217 C11.155682,2.1616798 10.9918068,1.55008939 11.2679492,1.07179677 L11.6566596,0.398530568 C12.9628494,0.801497019 14.1420981,1.49381184 15.1195534,2.40062262 Z M6.34334038,17.6014694 C5.03715061,17.198503 3.85790188,16.5061882 2.88044662,15.5993774 L3.26794919,14.9282032 C3.54409157,14.4499106 4.15568197,14.2860355 4.6339746,14.5621778 L6.3660254,15.5621778 C6.84431803,15.8383202 7.00819318,16.4499106 6.73205081,16.9282032 L6.34334038,17.6014694 Z M17.7769836,11 L17,11 C16.4477153,11 16,10.5522847 16,10 L16,8 C16,7.44771525 16.4477153,7 17,7 L17.7769836,7 C17.9229386,7.64322274 18,8.31261204 18,9 C18,9.68738796 17.9229386,10.3567773 17.7769836,11 Z M0.223016424,11 C0.0770614401,10.3567773 0,9.68738796 0,9 C0,8.31261204 0.0770614401,7.64322274 0.223016424,7 L1,7 C1.55228475,7 2,7.44771525 2,8 L2,10 C2,10.5522847 1.55228475,11 1,11 L0.223016424,11 Z M11.6566596,17.6014694 L11.2679492,16.9282032 C10.9918068,16.4499106 11.155682,15.8383202 11.6339746,15.5621778 L13.3660254,14.5621778 C13.844318,14.2860355 14.4559084,14.4499106 14.7320508,14.9282032 L15.1195534,15.5993774 C14.1420981,16.5061882 12.9628494,17.198503 11.6566596,17.6014694 Z M2.88044662,2.40062262 C3.85790188,1.49381184 5.03715061,0.801497019 6.34334038,0.398530568 L6.73205081,1.07179677 C7.00819318,1.55008939 6.84431803,2.1616798 6.3660254,2.43782217 L4.6339746,3.43782217 C4.15568197,3.71396455 3.54409157,3.55008939 3.26794919,3.07179677 L2.88044662,2.40062262 Z M9.01640374,1.59111465 C8.74026137,1.59111465 8.51640374,1.36725702 8.51640374,1.09111465 C8.51640374,0.814972275 8.74026137,0.59111465 9.01640374,0.59111465 C9.29254612,0.59111465 9.51640374,0.814972275 9.51640374,1.09111465 C9.51640374,1.36725702 9.29254612,1.59111465 9.01640374,1.59111465 Z M9.01640374,17.5911146 C8.74026137,17.5911146 8.51640374,17.367257 8.51640374,17.0911146 C8.51640374,16.8149723 8.74026137,16.5911146 9.01640374,16.5911146 C9.29254612,16.5911146 9.51640374,16.8149723 9.51640374,17.0911146 C9.51640374,17.367257 9.29254612,17.5911146 9.01640374,17.5911146 Z M15.5115943,5.34111465 C15.3735231,5.10196834 15.4554607,4.79617314 15.694607,4.65810195 C15.9337533,4.52003076 16.2395485,4.60196834 16.3776197,4.84111465 C16.5156909,5.08026096 16.4337533,5.38605616 16.194607,5.52412735 C15.9554607,5.66219854 15.6496655,5.58026096 15.5115943,5.34111465 Z M1.65518781,13.3411146 C1.51711662,13.1019683 1.5990542,12.7961731 1.83820051,12.6581019 C2.07734683,12.5200308 2.38314203,12.6019683 2.52121322,12.8411146 C2.6592844,13.080261 2.57734683,13.3860562 2.33820051,13.5241274 C2.0990542,13.6621985 1.793259,13.580261 1.65518781,13.3411146 Z M15.5115943,12.8411146 C15.6496655,12.6019683 15.9554607,12.5200308 16.194607,12.6581019 C16.4337533,12.7961731 16.5156909,13.1019683 16.3776197,13.3411146 C16.2395485,13.580261 15.9337533,13.6621985 15.694607,13.5241274 C15.4554607,13.3860562 15.3735231,13.080261 15.5115943,12.8411146 Z M1.65518781,4.84111465 C1.793259,4.60196834 2.0990542,4.52003076 2.33820051,4.65810195 C2.57734683,4.79617314 2.6592844,5.10196834 2.52121322,5.34111465 C2.38314203,5.58026096 2.07734683,5.66219854 1.83820051,5.52412735 C1.5990542,5.38605616 1.51711662,5.08026096 1.65518781,4.84111465 Z" id="Combined-Shape" fill="#FFFFFF"></path>
                            </g>
                            <g id="Chip-black-Copy" transform="translate(0.000000, 6.000000)">
                                <g id="Rectangle-12" transform="translate(0.000000, 1.000000)">
                                    <mask id="mask-8" fill="white">
                                        <use xlink:href="#path-7"></use>
                                    </mask>
                                    <g id="Mask">
                                        <use fill="black" fill-opacity="1" filter="url(#filter-9)" xlink:href="#path-7"></use>
                                        <use fill="#102633" fill-rule="evenodd" xlink:href="#path-7"></use>
                                    </g>
                                    <polygon fill="#FFFFFF" mask="url(#mask-8)" points="0 8 0.220230103 8 0.220230103 11.1244354 -1.11022302e-16 11.1244354"></polygon>
                                    <polygon id="Rectangle-12-Copy-3" fill="#FFFFFF" mask="url(#mask-8)" transform="translate(17.500000, 9.562218) scale(-1, 1) translate(-17.500000, -9.562218) " points="17 8 17.2202301 8 17.2202301 11.1244354 17 11.1244354"></polygon>
                                    <polygon id="Rectangle-12-Copy" fill="#FFFFFF" mask="url(#mask-8)" points="2.8815918 14 6.3430481 15.0938721 6.3430481 17.8685913 2.8815918 16.7747192"></polygon>
                                    <polygon id="Rectangle-12-Copy-2" fill="#FFFFFF" mask="url(#mask-8)" transform="translate(13.389603, 15.966034) scale(-1, 1) translate(-13.389603, -15.966034) " points="11.6588745 14.0317383 15.1203308 15.1256104 15.1203308 17.9003296 11.6588745 16.8064575"></polygon>
                                    <mask id="mask-11" fill="white">
                                        <use xlink:href="#path-10"></use>
                                    </mask>
                                    <use id="Mask-Copy-3" fill-opacity="0.5" fill="#000000" xlink:href="#path-10"></use>
                                </g>
                                <circle id="Oval-8" fill="#102633" cx="9" cy="9" r="9"></circle>
                                <g id="Oval-8-Copy">
                                    <use fill="#102633" xlink:href="#path-12"></use>
                                    <use fill-opacity="0.5" fill="#000000" xlink:href="#path-12"></use>
                                </g>
                                <circle id="Oval-8-Copy-2" fill="#102633" cx="9" cy="9" r="6"></circle>
                                <path d="M15.1195534,2.40062262 L14.7320508,3.07179677 C14.4559084,3.55008939 13.844318,3.71396455 13.3660254,3.43782217 L11.6339746,2.43782217 C11.155682,2.1616798 10.9918068,1.55008939 11.2679492,1.07179677 L11.6566596,0.398530568 C12.9628494,0.801497019 14.1420981,1.49381184 15.1195534,2.40062262 Z M6.34334038,17.6014694 C5.03715061,17.198503 3.85790188,16.5061882 2.88044662,15.5993774 L3.26794919,14.9282032 C3.54409157,14.4499106 4.15568197,14.2860355 4.6339746,14.5621778 L6.3660254,15.5621778 C6.84431803,15.8383202 7.00819318,16.4499106 6.73205081,16.9282032 L6.34334038,17.6014694 Z M17.7769836,11 L17,11 C16.4477153,11 16,10.5522847 16,10 L16,8 C16,7.44771525 16.4477153,7 17,7 L17.7769836,7 C17.9229386,7.64322274 18,8.31261204 18,9 C18,9.68738796 17.9229386,10.3567773 17.7769836,11 Z M0.223016424,11 C0.0770614401,10.3567773 0,9.68738796 0,9 C0,8.31261204 0.0770614401,7.64322274 0.223016424,7 L1,7 C1.55228475,7 2,7.44771525 2,8 L2,10 C2,10.5522847 1.55228475,11 1,11 L0.223016424,11 Z M11.6566596,17.6014694 L11.2679492,16.9282032 C10.9918068,16.4499106 11.155682,15.8383202 11.6339746,15.5621778 L13.3660254,14.5621778 C13.844318,14.2860355 14.4559084,14.4499106 14.7320508,14.9282032 L15.1195534,15.5993774 C14.1420981,16.5061882 12.9628494,17.198503 11.6566596,17.6014694 Z M2.88044662,2.40062262 C3.85790188,1.49381184 5.03715061,0.801497019 6.34334038,0.398530568 L6.73205081,1.07179677 C7.00819318,1.55008939 6.84431803,2.1616798 6.3660254,2.43782217 L4.6339746,3.43782217 C4.15568197,3.71396455 3.54409157,3.55008939 3.26794919,3.07179677 L2.88044662,2.40062262 Z M9.01640374,1.59111465 C8.74026137,1.59111465 8.51640374,1.36725702 8.51640374,1.09111465 C8.51640374,0.814972275 8.74026137,0.59111465 9.01640374,0.59111465 C9.29254612,0.59111465 9.51640374,0.814972275 9.51640374,1.09111465 C9.51640374,1.36725702 9.29254612,1.59111465 9.01640374,1.59111465 Z M9.01640374,17.5911146 C8.74026137,17.5911146 8.51640374,17.367257 8.51640374,17.0911146 C8.51640374,16.8149723 8.74026137,16.5911146 9.01640374,16.5911146 C9.29254612,16.5911146 9.51640374,16.8149723 9.51640374,17.0911146 C9.51640374,17.367257 9.29254612,17.5911146 9.01640374,17.5911146 Z M15.5115943,5.34111465 C15.3735231,5.10196834 15.4554607,4.79617314 15.694607,4.65810195 C15.9337533,4.52003076 16.2395485,4.60196834 16.3776197,4.84111465 C16.5156909,5.08026096 16.4337533,5.38605616 16.194607,5.52412735 C15.9554607,5.66219854 15.6496655,5.58026096 15.5115943,5.34111465 Z M1.65518781,13.3411146 C1.51711662,13.1019683 1.5990542,12.7961731 1.83820051,12.6581019 C2.07734683,12.5200308 2.38314203,12.6019683 2.52121322,12.8411146 C2.6592844,13.080261 2.57734683,13.3860562 2.33820051,13.5241274 C2.0990542,13.6621985 1.793259,13.580261 1.65518781,13.3411146 Z M15.5115943,12.8411146 C15.6496655,12.6019683 15.9554607,12.5200308 16.194607,12.6581019 C16.4337533,12.7961731 16.5156909,13.1019683 16.3776197,13.3411146 C16.2395485,13.580261 15.9337533,13.6621985 15.694607,13.5241274 C15.4554607,13.3860562 15.3735231,13.080261 15.5115943,12.8411146 Z M1.65518781,4.84111465 C1.793259,4.60196834 2.0990542,4.52003076 2.33820051,4.65810195 C2.57734683,4.79617314 2.6592844,5.10196834 2.52121322,5.34111465 C2.38314203,5.58026096 2.07734683,5.66219854 1.83820051,5.52412735 C1.5990542,5.38605616 1.51711662,5.08026096 1.65518781,4.84111465 Z" id="Combined-Shape" fill="#FFFFFF"></path>
                            </g>
                            <g id="Chip-black-Copy-2" transform="translate(0.000000, 5.000000)">
                                <g id="Rectangle-12" transform="translate(0.000000, 1.000000)">
                                    <mask id="mask-14" fill="white">
                                        <use xlink:href="#path-13"></use>
                                    </mask>
                                    <g id="Mask">
                                        <use fill="black" fill-opacity="1" filter="url(#filter-15)" xlink:href="#path-13"></use>
                                        <use fill="#102633" fill-rule="evenodd" xlink:href="#path-13"></use>
                                    </g>
                                    <polygon fill="#FFFFFF" mask="url(#mask-14)" points="0 8 0.220230103 8 0.220230103 11.1244354 -1.11022302e-16 11.1244354"></polygon>
                                    <polygon id="Rectangle-12-Copy-3" fill="#FFFFFF" mask="url(#mask-14)" transform="translate(17.500000, 9.562218) scale(-1, 1) translate(-17.500000, -9.562218) " points="17 8 17.2202301 8 17.2202301 11.1244354 17 11.1244354"></polygon>
                                    <polygon id="Rectangle-12-Copy" fill="#FFFFFF" mask="url(#mask-14)" points="2.8815918 14 6.3430481 15.0938721 6.3430481 17.8685913 2.8815918 16.7747192"></polygon>
                                    <polygon id="Rectangle-12-Copy-2" fill="#FFFFFF" mask="url(#mask-14)" transform="translate(13.389603, 15.966034) scale(-1, 1) translate(-13.389603, -15.966034) " points="11.6588745 14.0317383 15.1203308 15.1256104 15.1203308 17.9003296 11.6588745 16.8064575"></polygon>
                                    <mask id="mask-17" fill="white">
                                        <use xlink:href="#path-16"></use>
                                    </mask>
                                    <use id="Mask-Copy-3" fill-opacity="0.5" fill="#000000" xlink:href="#path-16"></use>
                                </g>
                                <circle id="Oval-8" fill="#102633" cx="9" cy="9" r="9"></circle>
                                <g id="Oval-8-Copy">
                                    <use fill="#102633" xlink:href="#path-18"></use>
                                    <use fill-opacity="0.5" fill="#000000" xlink:href="#path-18"></use>
                                </g>
                                <circle id="Oval-8-Copy-2" fill="#102633" cx="9" cy="9" r="6"></circle>
                                <path d="M15.1195534,2.40062262 L14.7320508,3.07179677 C14.4559084,3.55008939 13.844318,3.71396455 13.3660254,3.43782217 L11.6339746,2.43782217 C11.155682,2.1616798 10.9918068,1.55008939 11.2679492,1.07179677 L11.6566596,0.398530568 C12.9628494,0.801497019 14.1420981,1.49381184 15.1195534,2.40062262 Z M6.34334038,17.6014694 C5.03715061,17.198503 3.85790188,16.5061882 2.88044662,15.5993774 L3.26794919,14.9282032 C3.54409157,14.4499106 4.15568197,14.2860355 4.6339746,14.5621778 L6.3660254,15.5621778 C6.84431803,15.8383202 7.00819318,16.4499106 6.73205081,16.9282032 L6.34334038,17.6014694 Z M17.7769836,11 L17,11 C16.4477153,11 16,10.5522847 16,10 L16,8 C16,7.44771525 16.4477153,7 17,7 L17.7769836,7 C17.9229386,7.64322274 18,8.31261204 18,9 C18,9.68738796 17.9229386,10.3567773 17.7769836,11 Z M0.223016424,11 C0.0770614401,10.3567773 0,9.68738796 0,9 C0,8.31261204 0.0770614401,7.64322274 0.223016424,7 L1,7 C1.55228475,7 2,7.44771525 2,8 L2,10 C2,10.5522847 1.55228475,11 1,11 L0.223016424,11 Z M11.6566596,17.6014694 L11.2679492,16.9282032 C10.9918068,16.4499106 11.155682,15.8383202 11.6339746,15.5621778 L13.3660254,14.5621778 C13.844318,14.2860355 14.4559084,14.4499106 14.7320508,14.9282032 L15.1195534,15.5993774 C14.1420981,16.5061882 12.9628494,17.198503 11.6566596,17.6014694 Z M2.88044662,2.40062262 C3.85790188,1.49381184 5.03715061,0.801497019 6.34334038,0.398530568 L6.73205081,1.07179677 C7.00819318,1.55008939 6.84431803,2.1616798 6.3660254,2.43782217 L4.6339746,3.43782217 C4.15568197,3.71396455 3.54409157,3.55008939 3.26794919,3.07179677 L2.88044662,2.40062262 Z M9.01640374,1.59111465 C8.74026137,1.59111465 8.51640374,1.36725702 8.51640374,1.09111465 C8.51640374,0.814972275 8.74026137,0.59111465 9.01640374,0.59111465 C9.29254612,0.59111465 9.51640374,0.814972275 9.51640374,1.09111465 C9.51640374,1.36725702 9.29254612,1.59111465 9.01640374,1.59111465 Z M9.01640374,17.5911146 C8.74026137,17.5911146 8.51640374,17.367257 8.51640374,17.0911146 C8.51640374,16.8149723 8.74026137,16.5911146 9.01640374,16.5911146 C9.29254612,16.5911146 9.51640374,16.8149723 9.51640374,17.0911146 C9.51640374,17.367257 9.29254612,17.5911146 9.01640374,17.5911146 Z M15.5115943,5.34111465 C15.3735231,5.10196834 15.4554607,4.79617314 15.694607,4.65810195 C15.9337533,4.52003076 16.2395485,4.60196834 16.3776197,4.84111465 C16.5156909,5.08026096 16.4337533,5.38605616 16.194607,5.52412735 C15.9554607,5.66219854 15.6496655,5.58026096 15.5115943,5.34111465 Z M1.65518781,13.3411146 C1.51711662,13.1019683 1.5990542,12.7961731 1.83820051,12.6581019 C2.07734683,12.5200308 2.38314203,12.6019683 2.52121322,12.8411146 C2.6592844,13.080261 2.57734683,13.3860562 2.33820051,13.5241274 C2.0990542,13.6621985 1.793259,13.580261 1.65518781,13.3411146 Z M15.5115943,12.8411146 C15.6496655,12.6019683 15.9554607,12.5200308 16.194607,12.6581019 C16.4337533,12.7961731 16.5156909,13.1019683 16.3776197,13.3411146 C16.2395485,13.580261 15.9337533,13.6621985 15.694607,13.5241274 C15.4554607,13.3860562 15.3735231,13.080261 15.5115943,12.8411146 Z M1.65518781,4.84111465 C1.793259,4.60196834 2.0990542,4.52003076 2.33820051,4.65810195 C2.57734683,4.79617314 2.6592844,5.10196834 2.52121322,5.34111465 C2.38314203,5.58026096 2.07734683,5.66219854 1.83820051,5.52412735 C1.5990542,5.38605616 1.51711662,5.08026096 1.65518781,4.84111465 Z" id="Combined-Shape" fill="#FFFFFF"></path>
                            </g>
                            <g id="Chip-black-Copy-3" transform="translate(0.000000, 4.000000)">
                                <g id="Rectangle-12" transform="translate(0.000000, 1.000000)">
                                    <mask id="mask-20" fill="white">
                                        <use xlink:href="#path-19"></use>
                                    </mask>
                                    <g id="Mask">
                                        <use fill="black" fill-opacity="1" filter="url(#filter-21)" xlink:href="#path-19"></use>
                                        <use fill="#102633" fill-rule="evenodd" xlink:href="#path-19"></use>
                                    </g>
                                    <polygon fill="#FFFFFF" mask="url(#mask-20)" points="0 8 0.220230103 8 0.220230103 11.1244354 -1.11022302e-16 11.1244354"></polygon>
                                    <polygon id="Rectangle-12-Copy-3" fill="#FFFFFF" mask="url(#mask-20)" transform="translate(17.500000, 9.562218) scale(-1, 1) translate(-17.500000, -9.562218) " points="17 8 17.2202301 8 17.2202301 11.1244354 17 11.1244354"></polygon>
                                    <polygon id="Rectangle-12-Copy" fill="#FFFFFF" mask="url(#mask-20)" points="2.8815918 14 6.3430481 15.0938721 6.3430481 17.8685913 2.8815918 16.7747192"></polygon>
                                    <polygon id="Rectangle-12-Copy-2" fill="#FFFFFF" mask="url(#mask-20)" transform="translate(13.389603, 15.966034) scale(-1, 1) translate(-13.389603, -15.966034) " points="11.6588745 14.0317383 15.1203308 15.1256104 15.1203308 17.9003296 11.6588745 16.8064575"></polygon>
                                    <mask id="mask-23" fill="white">
                                        <use xlink:href="#path-22"></use>
                                    </mask>
                                    <use id="Mask-Copy-3" fill-opacity="0.5" fill="#000000" xlink:href="#path-22"></use>
                                </g>
                                <circle id="Oval-8" fill="#102633" cx="9" cy="9" r="9"></circle>
                                <g id="Oval-8-Copy">
                                    <use fill="#102633" xlink:href="#path-24"></use>
                                    <use fill-opacity="0.5" fill="#000000" xlink:href="#path-24"></use>
                                </g>
                                <circle id="Oval-8-Copy-2" fill="#102633" cx="9" cy="9" r="6"></circle>
                                <path d="M15.1195534,2.40062262 L14.7320508,3.07179677 C14.4559084,3.55008939 13.844318,3.71396455 13.3660254,3.43782217 L11.6339746,2.43782217 C11.155682,2.1616798 10.9918068,1.55008939 11.2679492,1.07179677 L11.6566596,0.398530568 C12.9628494,0.801497019 14.1420981,1.49381184 15.1195534,2.40062262 Z M6.34334038,17.6014694 C5.03715061,17.198503 3.85790188,16.5061882 2.88044662,15.5993774 L3.26794919,14.9282032 C3.54409157,14.4499106 4.15568197,14.2860355 4.6339746,14.5621778 L6.3660254,15.5621778 C6.84431803,15.8383202 7.00819318,16.4499106 6.73205081,16.9282032 L6.34334038,17.6014694 Z M17.7769836,11 L17,11 C16.4477153,11 16,10.5522847 16,10 L16,8 C16,7.44771525 16.4477153,7 17,7 L17.7769836,7 C17.9229386,7.64322274 18,8.31261204 18,9 C18,9.68738796 17.9229386,10.3567773 17.7769836,11 Z M0.223016424,11 C0.0770614401,10.3567773 0,9.68738796 0,9 C0,8.31261204 0.0770614401,7.64322274 0.223016424,7 L1,7 C1.55228475,7 2,7.44771525 2,8 L2,10 C2,10.5522847 1.55228475,11 1,11 L0.223016424,11 Z M11.6566596,17.6014694 L11.2679492,16.9282032 C10.9918068,16.4499106 11.155682,15.8383202 11.6339746,15.5621778 L13.3660254,14.5621778 C13.844318,14.2860355 14.4559084,14.4499106 14.7320508,14.9282032 L15.1195534,15.5993774 C14.1420981,16.5061882 12.9628494,17.198503 11.6566596,17.6014694 Z M2.88044662,2.40062262 C3.85790188,1.49381184 5.03715061,0.801497019 6.34334038,0.398530568 L6.73205081,1.07179677 C7.00819318,1.55008939 6.84431803,2.1616798 6.3660254,2.43782217 L4.6339746,3.43782217 C4.15568197,3.71396455 3.54409157,3.55008939 3.26794919,3.07179677 L2.88044662,2.40062262 Z M9.01640374,1.59111465 C8.74026137,1.59111465 8.51640374,1.36725702 8.51640374,1.09111465 C8.51640374,0.814972275 8.74026137,0.59111465 9.01640374,0.59111465 C9.29254612,0.59111465 9.51640374,0.814972275 9.51640374,1.09111465 C9.51640374,1.36725702 9.29254612,1.59111465 9.01640374,1.59111465 Z M9.01640374,17.5911146 C8.74026137,17.5911146 8.51640374,17.367257 8.51640374,17.0911146 C8.51640374,16.8149723 8.74026137,16.5911146 9.01640374,16.5911146 C9.29254612,16.5911146 9.51640374,16.8149723 9.51640374,17.0911146 C9.51640374,17.367257 9.29254612,17.5911146 9.01640374,17.5911146 Z M15.5115943,5.34111465 C15.3735231,5.10196834 15.4554607,4.79617314 15.694607,4.65810195 C15.9337533,4.52003076 16.2395485,4.60196834 16.3776197,4.84111465 C16.5156909,5.08026096 16.4337533,5.38605616 16.194607,5.52412735 C15.9554607,5.66219854 15.6496655,5.58026096 15.5115943,5.34111465 Z M1.65518781,13.3411146 C1.51711662,13.1019683 1.5990542,12.7961731 1.83820051,12.6581019 C2.07734683,12.5200308 2.38314203,12.6019683 2.52121322,12.8411146 C2.6592844,13.080261 2.57734683,13.3860562 2.33820051,13.5241274 C2.0990542,13.6621985 1.793259,13.580261 1.65518781,13.3411146 Z M15.5115943,12.8411146 C15.6496655,12.6019683 15.9554607,12.5200308 16.194607,12.6581019 C16.4337533,12.7961731 16.5156909,13.1019683 16.3776197,13.3411146 C16.2395485,13.580261 15.9337533,13.6621985 15.694607,13.5241274 C15.4554607,13.3860562 15.3735231,13.080261 15.5115943,12.8411146 Z M1.65518781,4.84111465 C1.793259,4.60196834 2.0990542,4.52003076 2.33820051,4.65810195 C2.57734683,4.79617314 2.6592844,5.10196834 2.52121322,5.34111465 C2.38314203,5.58026096 2.07734683,5.66219854 1.83820051,5.52412735 C1.5990542,5.38605616 1.51711662,5.08026096 1.65518781,4.84111465 Z" id="Combined-Shape" fill="#FFFFFF"></path>
                            </g>
                            <g id="Chip-black-Copy-4" transform="translate(0.000000, 3.000000)">
                                <g id="Rectangle-12" transform="translate(0.000000, 1.000000)">
                                    <mask id="mask-26" fill="white">
                                        <use xlink:href="#path-25"></use>
                                    </mask>
                                    <g id="Mask">
                                        <use fill="black" fill-opacity="1" filter="url(#filter-27)" xlink:href="#path-25"></use>
                                        <use fill="#102633" fill-rule="evenodd" xlink:href="#path-25"></use>
                                    </g>
                                    <polygon fill="#FFFFFF" mask="url(#mask-26)" points="0 8 0.220230103 8 0.220230103 11.1244354 -1.11022302e-16 11.1244354"></polygon>
                                    <polygon id="Rectangle-12-Copy-3" fill="#FFFFFF" mask="url(#mask-26)" transform="translate(17.500000, 9.562218) scale(-1, 1) translate(-17.500000, -9.562218) " points="17 8 17.2202301 8 17.2202301 11.1244354 17 11.1244354"></polygon>
                                    <polygon id="Rectangle-12-Copy" fill="#FFFFFF" mask="url(#mask-26)" points="2.8815918 14 6.3430481 15.0938721 6.3430481 17.8685913 2.8815918 16.7747192"></polygon>
                                    <polygon id="Rectangle-12-Copy-2" fill="#FFFFFF" mask="url(#mask-26)" transform="translate(13.389603, 15.966034) scale(-1, 1) translate(-13.389603, -15.966034) " points="11.6588745 14.0317383 15.1203308 15.1256104 15.1203308 17.9003296 11.6588745 16.8064575"></polygon>
                                    <mask id="mask-29" fill="white">
                                        <use xlink:href="#path-28"></use>
                                    </mask>
                                    <use id="Mask-Copy-3" fill-opacity="0.5" fill="#000000" xlink:href="#path-28"></use>
                                </g>
                                <circle id="Oval-8" fill="#102633" cx="9" cy="9" r="9"></circle>
                                <g id="Oval-8-Copy">
                                    <use fill="#102633" xlink:href="#path-30"></use>
                                    <use fill-opacity="0.5" fill="#000000" xlink:href="#path-30"></use>
                                </g>
                                <circle id="Oval-8-Copy-2" fill="#102633" cx="9" cy="9" r="6"></circle>
                                <path d="M15.1195534,2.40062262 L14.7320508,3.07179677 C14.4559084,3.55008939 13.844318,3.71396455 13.3660254,3.43782217 L11.6339746,2.43782217 C11.155682,2.1616798 10.9918068,1.55008939 11.2679492,1.07179677 L11.6566596,0.398530568 C12.9628494,0.801497019 14.1420981,1.49381184 15.1195534,2.40062262 Z M6.34334038,17.6014694 C5.03715061,17.198503 3.85790188,16.5061882 2.88044662,15.5993774 L3.26794919,14.9282032 C3.54409157,14.4499106 4.15568197,14.2860355 4.6339746,14.5621778 L6.3660254,15.5621778 C6.84431803,15.8383202 7.00819318,16.4499106 6.73205081,16.9282032 L6.34334038,17.6014694 Z M17.7769836,11 L17,11 C16.4477153,11 16,10.5522847 16,10 L16,8 C16,7.44771525 16.4477153,7 17,7 L17.7769836,7 C17.9229386,7.64322274 18,8.31261204 18,9 C18,9.68738796 17.9229386,10.3567773 17.7769836,11 Z M0.223016424,11 C0.0770614401,10.3567773 0,9.68738796 0,9 C0,8.31261204 0.0770614401,7.64322274 0.223016424,7 L1,7 C1.55228475,7 2,7.44771525 2,8 L2,10 C2,10.5522847 1.55228475,11 1,11 L0.223016424,11 Z M11.6566596,17.6014694 L11.2679492,16.9282032 C10.9918068,16.4499106 11.155682,15.8383202 11.6339746,15.5621778 L13.3660254,14.5621778 C13.844318,14.2860355 14.4559084,14.4499106 14.7320508,14.9282032 L15.1195534,15.5993774 C14.1420981,16.5061882 12.9628494,17.198503 11.6566596,17.6014694 Z M2.88044662,2.40062262 C3.85790188,1.49381184 5.03715061,0.801497019 6.34334038,0.398530568 L6.73205081,1.07179677 C7.00819318,1.55008939 6.84431803,2.1616798 6.3660254,2.43782217 L4.6339746,3.43782217 C4.15568197,3.71396455 3.54409157,3.55008939 3.26794919,3.07179677 L2.88044662,2.40062262 Z M9.01640374,1.59111465 C8.74026137,1.59111465 8.51640374,1.36725702 8.51640374,1.09111465 C8.51640374,0.814972275 8.74026137,0.59111465 9.01640374,0.59111465 C9.29254612,0.59111465 9.51640374,0.814972275 9.51640374,1.09111465 C9.51640374,1.36725702 9.29254612,1.59111465 9.01640374,1.59111465 Z M9.01640374,17.5911146 C8.74026137,17.5911146 8.51640374,17.367257 8.51640374,17.0911146 C8.51640374,16.8149723 8.74026137,16.5911146 9.01640374,16.5911146 C9.29254612,16.5911146 9.51640374,16.8149723 9.51640374,17.0911146 C9.51640374,17.367257 9.29254612,17.5911146 9.01640374,17.5911146 Z M15.5115943,5.34111465 C15.3735231,5.10196834 15.4554607,4.79617314 15.694607,4.65810195 C15.9337533,4.52003076 16.2395485,4.60196834 16.3776197,4.84111465 C16.5156909,5.08026096 16.4337533,5.38605616 16.194607,5.52412735 C15.9554607,5.66219854 15.6496655,5.58026096 15.5115943,5.34111465 Z M1.65518781,13.3411146 C1.51711662,13.1019683 1.5990542,12.7961731 1.83820051,12.6581019 C2.07734683,12.5200308 2.38314203,12.6019683 2.52121322,12.8411146 C2.6592844,13.080261 2.57734683,13.3860562 2.33820051,13.5241274 C2.0990542,13.6621985 1.793259,13.580261 1.65518781,13.3411146 Z M15.5115943,12.8411146 C15.6496655,12.6019683 15.9554607,12.5200308 16.194607,12.6581019 C16.4337533,12.7961731 16.5156909,13.1019683 16.3776197,13.3411146 C16.2395485,13.580261 15.9337533,13.6621985 15.694607,13.5241274 C15.4554607,13.3860562 15.3735231,13.080261 15.5115943,12.8411146 Z M1.65518781,4.84111465 C1.793259,4.60196834 2.0990542,4.52003076 2.33820051,4.65810195 C2.57734683,4.79617314 2.6592844,5.10196834 2.52121322,5.34111465 C2.38314203,5.58026096 2.07734683,5.66219854 1.83820051,5.52412735 C1.5990542,5.38605616 1.51711662,5.08026096 1.65518781,4.84111465 Z" id="Combined-Shape" fill="#FFFFFF"></path>
                            </g>
                            <g id="Chip-black-Copy-5" transform="translate(0.000000, 2.000000)">
                                <g id="Rectangle-12" transform="translate(0.000000, 1.000000)">
                                    <mask id="mask-32" fill="white">
                                        <use xlink:href="#path-31"></use>
                                    </mask>
                                    <g id="Mask">
                                        <use fill="black" fill-opacity="1" filter="url(#filter-33)" xlink:href="#path-31"></use>
                                        <use fill="#102633" fill-rule="evenodd" xlink:href="#path-31"></use>
                                    </g>
                                    <polygon fill="#FFFFFF" mask="url(#mask-32)" points="0 8 0.220230103 8 0.220230103 11.1244354 -1.11022302e-16 11.1244354"></polygon>
                                    <polygon id="Rectangle-12-Copy-3" fill="#FFFFFF" mask="url(#mask-32)" transform="translate(17.500000, 9.562218) scale(-1, 1) translate(-17.500000, -9.562218) " points="17 8 17.2202301 8 17.2202301 11.1244354 17 11.1244354"></polygon>
                                    <polygon id="Rectangle-12-Copy" fill="#FFFFFF" mask="url(#mask-32)" points="2.8815918 14 6.3430481 15.0938721 6.3430481 17.8685913 2.8815918 16.7747192"></polygon>
                                    <polygon id="Rectangle-12-Copy-2" fill="#FFFFFF" mask="url(#mask-32)" transform="translate(13.389603, 15.966034) scale(-1, 1) translate(-13.389603, -15.966034) " points="11.6588745 14.0317383 15.1203308 15.1256104 15.1203308 17.9003296 11.6588745 16.8064575"></polygon>
                                    <mask id="mask-35" fill="white">
                                        <use xlink:href="#path-34"></use>
                                    </mask>
                                    <use id="Mask-Copy-3" fill-opacity="0.5" fill="#000000" xlink:href="#path-34"></use>
                                </g>
                                <circle id="Oval-8" fill="#102633" cx="9" cy="9" r="9"></circle>
                                <g id="Oval-8-Copy">
                                    <use fill="#102633" xlink:href="#path-36"></use>
                                    <use fill-opacity="0.5" fill="#000000" xlink:href="#path-36"></use>
                                </g>
                                <circle id="Oval-8-Copy-2" fill="#102633" cx="9" cy="9" r="6"></circle>
                                <path d="M15.1195534,2.40062262 L14.7320508,3.07179677 C14.4559084,3.55008939 13.844318,3.71396455 13.3660254,3.43782217 L11.6339746,2.43782217 C11.155682,2.1616798 10.9918068,1.55008939 11.2679492,1.07179677 L11.6566596,0.398530568 C12.9628494,0.801497019 14.1420981,1.49381184 15.1195534,2.40062262 Z M6.34334038,17.6014694 C5.03715061,17.198503 3.85790188,16.5061882 2.88044662,15.5993774 L3.26794919,14.9282032 C3.54409157,14.4499106 4.15568197,14.2860355 4.6339746,14.5621778 L6.3660254,15.5621778 C6.84431803,15.8383202 7.00819318,16.4499106 6.73205081,16.9282032 L6.34334038,17.6014694 Z M17.7769836,11 L17,11 C16.4477153,11 16,10.5522847 16,10 L16,8 C16,7.44771525 16.4477153,7 17,7 L17.7769836,7 C17.9229386,7.64322274 18,8.31261204 18,9 C18,9.68738796 17.9229386,10.3567773 17.7769836,11 Z M0.223016424,11 C0.0770614401,10.3567773 0,9.68738796 0,9 C0,8.31261204 0.0770614401,7.64322274 0.223016424,7 L1,7 C1.55228475,7 2,7.44771525 2,8 L2,10 C2,10.5522847 1.55228475,11 1,11 L0.223016424,11 Z M11.6566596,17.6014694 L11.2679492,16.9282032 C10.9918068,16.4499106 11.155682,15.8383202 11.6339746,15.5621778 L13.3660254,14.5621778 C13.844318,14.2860355 14.4559084,14.4499106 14.7320508,14.9282032 L15.1195534,15.5993774 C14.1420981,16.5061882 12.9628494,17.198503 11.6566596,17.6014694 Z M2.88044662,2.40062262 C3.85790188,1.49381184 5.03715061,0.801497019 6.34334038,0.398530568 L6.73205081,1.07179677 C7.00819318,1.55008939 6.84431803,2.1616798 6.3660254,2.43782217 L4.6339746,3.43782217 C4.15568197,3.71396455 3.54409157,3.55008939 3.26794919,3.07179677 L2.88044662,2.40062262 Z M9.01640374,1.59111465 C8.74026137,1.59111465 8.51640374,1.36725702 8.51640374,1.09111465 C8.51640374,0.814972275 8.74026137,0.59111465 9.01640374,0.59111465 C9.29254612,0.59111465 9.51640374,0.814972275 9.51640374,1.09111465 C9.51640374,1.36725702 9.29254612,1.59111465 9.01640374,1.59111465 Z M9.01640374,17.5911146 C8.74026137,17.5911146 8.51640374,17.367257 8.51640374,17.0911146 C8.51640374,16.8149723 8.74026137,16.5911146 9.01640374,16.5911146 C9.29254612,16.5911146 9.51640374,16.8149723 9.51640374,17.0911146 C9.51640374,17.367257 9.29254612,17.5911146 9.01640374,17.5911146 Z M15.5115943,5.34111465 C15.3735231,5.10196834 15.4554607,4.79617314 15.694607,4.65810195 C15.9337533,4.52003076 16.2395485,4.60196834 16.3776197,4.84111465 C16.5156909,5.08026096 16.4337533,5.38605616 16.194607,5.52412735 C15.9554607,5.66219854 15.6496655,5.58026096 15.5115943,5.34111465 Z M1.65518781,13.3411146 C1.51711662,13.1019683 1.5990542,12.7961731 1.83820051,12.6581019 C2.07734683,12.5200308 2.38314203,12.6019683 2.52121322,12.8411146 C2.6592844,13.080261 2.57734683,13.3860562 2.33820051,13.5241274 C2.0990542,13.6621985 1.793259,13.580261 1.65518781,13.3411146 Z M15.5115943,12.8411146 C15.6496655,12.6019683 15.9554607,12.5200308 16.194607,12.6581019 C16.4337533,12.7961731 16.5156909,13.1019683 16.3776197,13.3411146 C16.2395485,13.580261 15.9337533,13.6621985 15.694607,13.5241274 C15.4554607,13.3860562 15.3735231,13.080261 15.5115943,12.8411146 Z M1.65518781,4.84111465 C1.793259,4.60196834 2.0990542,4.52003076 2.33820051,4.65810195 C2.57734683,4.79617314 2.6592844,5.10196834 2.52121322,5.34111465 C2.38314203,5.58026096 2.07734683,5.66219854 1.83820051,5.52412735 C1.5990542,5.38605616 1.51711662,5.08026096 1.65518781,4.84111465 Z" id="Combined-Shape" fill="#FFFFFF"></path>
                            </g>
                            <g id="Chip-black-Copy-6" transform="translate(0.000000, 1.000000)">
                                <g id="Rectangle-12" transform="translate(0.000000, 1.000000)">
                                    <mask id="mask-38" fill="white">
                                        <use xlink:href="#path-37"></use>
                                    </mask>
                                    <g id="Mask">
                                        <use fill="black" fill-opacity="1" filter="url(#filter-39)" xlink:href="#path-37"></use>
                                        <use fill="#102633" fill-rule="evenodd" xlink:href="#path-37"></use>
                                    </g>
                                    <polygon fill="#FFFFFF" mask="url(#mask-38)" points="0 8 0.220230103 8 0.220230103 11.1244354 -1.11022302e-16 11.1244354"></polygon>
                                    <polygon id="Rectangle-12-Copy-3" fill="#FFFFFF" mask="url(#mask-38)" transform="translate(17.500000, 9.562218) scale(-1, 1) translate(-17.500000, -9.562218) " points="17 8 17.2202301 8 17.2202301 11.1244354 17 11.1244354"></polygon>
                                    <polygon id="Rectangle-12-Copy" fill="#FFFFFF" mask="url(#mask-38)" points="2.8815918 14 6.3430481 15.0938721 6.3430481 17.8685913 2.8815918 16.7747192"></polygon>
                                    <polygon id="Rectangle-12-Copy-2" fill="#FFFFFF" mask="url(#mask-38)" transform="translate(13.389603, 15.966034) scale(-1, 1) translate(-13.389603, -15.966034) " points="11.6588745 14.0317383 15.1203308 15.1256104 15.1203308 17.9003296 11.6588745 16.8064575"></polygon>
                                    <mask id="mask-41" fill="white">
                                        <use xlink:href="#path-40"></use>
                                    </mask>
                                    <use id="Mask-Copy-3" fill-opacity="0.5" fill="#000000" xlink:href="#path-40"></use>
                                </g>
                                <circle id="Oval-8" fill="#102633" cx="9" cy="9" r="9"></circle>
                                <g id="Oval-8-Copy">
                                    <use fill="#102633" xlink:href="#path-42"></use>
                                    <use fill-opacity="0.5" fill="#000000" xlink:href="#path-42"></use>
                                </g>
                                <circle id="Oval-8-Copy-2" fill="#102633" cx="9" cy="9" r="6"></circle>
                                <path d="M15.1195534,2.40062262 L14.7320508,3.07179677 C14.4559084,3.55008939 13.844318,3.71396455 13.3660254,3.43782217 L11.6339746,2.43782217 C11.155682,2.1616798 10.9918068,1.55008939 11.2679492,1.07179677 L11.6566596,0.398530568 C12.9628494,0.801497019 14.1420981,1.49381184 15.1195534,2.40062262 Z M6.34334038,17.6014694 C5.03715061,17.198503 3.85790188,16.5061882 2.88044662,15.5993774 L3.26794919,14.9282032 C3.54409157,14.4499106 4.15568197,14.2860355 4.6339746,14.5621778 L6.3660254,15.5621778 C6.84431803,15.8383202 7.00819318,16.4499106 6.73205081,16.9282032 L6.34334038,17.6014694 Z M17.7769836,11 L17,11 C16.4477153,11 16,10.5522847 16,10 L16,8 C16,7.44771525 16.4477153,7 17,7 L17.7769836,7 C17.9229386,7.64322274 18,8.31261204 18,9 C18,9.68738796 17.9229386,10.3567773 17.7769836,11 Z M0.223016424,11 C0.0770614401,10.3567773 0,9.68738796 0,9 C0,8.31261204 0.0770614401,7.64322274 0.223016424,7 L1,7 C1.55228475,7 2,7.44771525 2,8 L2,10 C2,10.5522847 1.55228475,11 1,11 L0.223016424,11 Z M11.6566596,17.6014694 L11.2679492,16.9282032 C10.9918068,16.4499106 11.155682,15.8383202 11.6339746,15.5621778 L13.3660254,14.5621778 C13.844318,14.2860355 14.4559084,14.4499106 14.7320508,14.9282032 L15.1195534,15.5993774 C14.1420981,16.5061882 12.9628494,17.198503 11.6566596,17.6014694 Z M2.88044662,2.40062262 C3.85790188,1.49381184 5.03715061,0.801497019 6.34334038,0.398530568 L6.73205081,1.07179677 C7.00819318,1.55008939 6.84431803,2.1616798 6.3660254,2.43782217 L4.6339746,3.43782217 C4.15568197,3.71396455 3.54409157,3.55008939 3.26794919,3.07179677 L2.88044662,2.40062262 Z M9.01640374,1.59111465 C8.74026137,1.59111465 8.51640374,1.36725702 8.51640374,1.09111465 C8.51640374,0.814972275 8.74026137,0.59111465 9.01640374,0.59111465 C9.29254612,0.59111465 9.51640374,0.814972275 9.51640374,1.09111465 C9.51640374,1.36725702 9.29254612,1.59111465 9.01640374,1.59111465 Z M9.01640374,17.5911146 C8.74026137,17.5911146 8.51640374,17.367257 8.51640374,17.0911146 C8.51640374,16.8149723 8.74026137,16.5911146 9.01640374,16.5911146 C9.29254612,16.5911146 9.51640374,16.8149723 9.51640374,17.0911146 C9.51640374,17.367257 9.29254612,17.5911146 9.01640374,17.5911146 Z M15.5115943,5.34111465 C15.3735231,5.10196834 15.4554607,4.79617314 15.694607,4.65810195 C15.9337533,4.52003076 16.2395485,4.60196834 16.3776197,4.84111465 C16.5156909,5.08026096 16.4337533,5.38605616 16.194607,5.52412735 C15.9554607,5.66219854 15.6496655,5.58026096 15.5115943,5.34111465 Z M1.65518781,13.3411146 C1.51711662,13.1019683 1.5990542,12.7961731 1.83820051,12.6581019 C2.07734683,12.5200308 2.38314203,12.6019683 2.52121322,12.8411146 C2.6592844,13.080261 2.57734683,13.3860562 2.33820051,13.5241274 C2.0990542,13.6621985 1.793259,13.580261 1.65518781,13.3411146 Z M15.5115943,12.8411146 C15.6496655,12.6019683 15.9554607,12.5200308 16.194607,12.6581019 C16.4337533,12.7961731 16.5156909,13.1019683 16.3776197,13.3411146 C16.2395485,13.580261 15.9337533,13.6621985 15.694607,13.5241274 C15.4554607,13.3860562 15.3735231,13.080261 15.5115943,12.8411146 Z M1.65518781,4.84111465 C1.793259,4.60196834 2.0990542,4.52003076 2.33820051,4.65810195 C2.57734683,4.79617314 2.6592844,5.10196834 2.52121322,5.34111465 C2.38314203,5.58026096 2.07734683,5.66219854 1.83820051,5.52412735 C1.5990542,5.38605616 1.51711662,5.08026096 1.65518781,4.84111465 Z" id="Combined-Shape" fill="#FFFFFF"></path>
                            </g>
                            <g id="Chip-black-Copy-7">
                                <g id="Rectangle-12" transform="translate(0.000000, 1.000000)">
                                    <mask id="mask-44" fill="white">
                                        <use xlink:href="#path-43"></use>
                                    </mask>
                                    <g id="Mask">
                                        <use fill="black" fill-opacity="1" filter="url(#filter-45)" xlink:href="#path-43"></use>
                                        <use fill="#102633" fill-rule="evenodd" xlink:href="#path-43"></use>
                                    </g>
                                    <polygon fill="#FFFFFF" mask="url(#mask-44)" points="0 8 0.220230103 8 0.220230103 11.1244354 -1.11022302e-16 11.1244354"></polygon>
                                    <polygon id="Rectangle-12-Copy-3" fill="#FFFFFF" mask="url(#mask-44)" transform="translate(17.500000, 9.562218) scale(-1, 1) translate(-17.500000, -9.562218) " points="17 8 17.2202301 8 17.2202301 11.1244354 17 11.1244354"></polygon>
                                    <polygon id="Rectangle-12-Copy" fill="#FFFFFF" mask="url(#mask-44)" points="2.8815918 14 6.3430481 15.0938721 6.3430481 17.8685913 2.8815918 16.7747192"></polygon>
                                    <polygon id="Rectangle-12-Copy-2" fill="#FFFFFF" mask="url(#mask-44)" transform="translate(13.389603, 15.966034) scale(-1, 1) translate(-13.389603, -15.966034) " points="11.6588745 14.0317383 15.1203308 15.1256104 15.1203308 17.9003296 11.6588745 16.8064575"></polygon>
                                    <mask id="mask-47" fill="white">
                                        <use xlink:href="#path-46"></use>
                                    </mask>
                                    <use id="Mask-Copy-3" fill-opacity="0.5" fill="#000000" xlink:href="#path-46"></use>
                                </g>
                                <circle id="Oval-8" fill="#102633" cx="9" cy="9" r="9"></circle>
                                <g id="Oval-8-Copy">
                                    <use fill="#102633" xlink:href="#path-48"></use>
                                    <use fill-opacity="0.75" fill="#000000" xlink:href="#path-48"></use>
                                </g>
                                <circle id="Oval-8-Copy-2" fill="#102633" cx="9" cy="9" r="6"></circle>
                                <path d="M15.1195534,2.40062262 L14.7320508,3.07179677 C14.4559084,3.55008939 13.844318,3.71396455 13.3660254,3.43782217 L11.6339746,2.43782217 C11.155682,2.1616798 10.9918068,1.55008939 11.2679492,1.07179677 L11.6566596,0.398530568 C12.9628494,0.801497019 14.1420981,1.49381184 15.1195534,2.40062262 Z M6.34334038,17.6014694 C5.03715061,17.198503 3.85790188,16.5061882 2.88044662,15.5993774 L3.26794919,14.9282032 C3.54409157,14.4499106 4.15568197,14.2860355 4.6339746,14.5621778 L6.3660254,15.5621778 C6.84431803,15.8383202 7.00819318,16.4499106 6.73205081,16.9282032 L6.34334038,17.6014694 Z M17.7769836,11 L17,11 C16.4477153,11 16,10.5522847 16,10 L16,8 C16,7.44771525 16.4477153,7 17,7 L17.7769836,7 C17.9229386,7.64322274 18,8.31261204 18,9 C18,9.68738796 17.9229386,10.3567773 17.7769836,11 Z M0.223016424,11 C0.0770614401,10.3567773 0,9.68738796 0,9 C0,8.31261204 0.0770614401,7.64322274 0.223016424,7 L1,7 C1.55228475,7 2,7.44771525 2,8 L2,10 C2,10.5522847 1.55228475,11 1,11 L0.223016424,11 Z M11.6566596,17.6014694 L11.2679492,16.9282032 C10.9918068,16.4499106 11.155682,15.8383202 11.6339746,15.5621778 L13.3660254,14.5621778 C13.844318,14.2860355 14.4559084,14.4499106 14.7320508,14.9282032 L15.1195534,15.5993774 C14.1420981,16.5061882 12.9628494,17.198503 11.6566596,17.6014694 Z M2.88044662,2.40062262 C3.85790188,1.49381184 5.03715061,0.801497019 6.34334038,0.398530568 L6.73205081,1.07179677 C7.00819318,1.55008939 6.84431803,2.1616798 6.3660254,2.43782217 L4.6339746,3.43782217 C4.15568197,3.71396455 3.54409157,3.55008939 3.26794919,3.07179677 L2.88044662,2.40062262 Z M9.01640374,1.59111465 C8.74026137,1.59111465 8.51640374,1.36725702 8.51640374,1.09111465 C8.51640374,0.814972275 8.74026137,0.59111465 9.01640374,0.59111465 C9.29254612,0.59111465 9.51640374,0.814972275 9.51640374,1.09111465 C9.51640374,1.36725702 9.29254612,1.59111465 9.01640374,1.59111465 Z M9.01640374,17.5911146 C8.74026137,17.5911146 8.51640374,17.367257 8.51640374,17.0911146 C8.51640374,16.8149723 8.74026137,16.5911146 9.01640374,16.5911146 C9.29254612,16.5911146 9.51640374,16.8149723 9.51640374,17.0911146 C9.51640374,17.367257 9.29254612,17.5911146 9.01640374,17.5911146 Z M15.5115943,5.34111465 C15.3735231,5.10196834 15.4554607,4.79617314 15.694607,4.65810195 C15.9337533,4.52003076 16.2395485,4.60196834 16.3776197,4.84111465 C16.5156909,5.08026096 16.4337533,5.38605616 16.194607,5.52412735 C15.9554607,5.66219854 15.6496655,5.58026096 15.5115943,5.34111465 Z M1.65518781,13.3411146 C1.51711662,13.1019683 1.5990542,12.7961731 1.83820051,12.6581019 C2.07734683,12.5200308 2.38314203,12.6019683 2.52121322,12.8411146 C2.6592844,13.080261 2.57734683,13.3860562 2.33820051,13.5241274 C2.0990542,13.6621985 1.793259,13.580261 1.65518781,13.3411146 Z M15.5115943,12.8411146 C15.6496655,12.6019683 15.9554607,12.5200308 16.194607,12.6581019 C16.4337533,12.7961731 16.5156909,13.1019683 16.3776197,13.3411146 C16.2395485,13.580261 15.9337533,13.6621985 15.694607,13.5241274 C15.4554607,13.3860562 15.3735231,13.080261 15.5115943,12.8411146 Z M1.65518781,4.84111465 C1.793259,4.60196834 2.0990542,4.52003076 2.33820051,4.65810195 C2.57734683,4.79617314 2.6592844,5.10196834 2.52121322,5.34111465 C2.38314203,5.58026096 2.07734683,5.66219854 1.83820051,5.52412735 C1.5990542,5.38605616 1.51711662,5.08026096 1.65518781,4.84111465 Z" id="Combined-Shape" fill="#FFFFFF"></path>
                            </g>
                            <path d="M6.51367188,11.0828857 L5.33886719,11.0828857 L5.33886719,8.81530762 C5.33886719,8.53991562 5.3447265,8.28796501 5.35644531,8.05944824 C5.28417933,8.14733931 5.19433647,8.23913526 5.08691406,8.33483887 L4.60058594,8.73620605 L4,7.9979248 L5.47070312,6.79968262 L6.51367188,6.79968262 L6.51367188,11.0828857 Z M10.5742188,8.94714355 C10.5742188,9.70495984 10.4472669,10.2601301 10.1933594,10.6126709 C9.93945186,10.9652117 9.55078387,11.1414795 9.02734375,11.1414795 C8.51562244,11.1414795 8.12988411,10.9573993 7.87011719,10.5892334 C7.61035026,10.2210675 7.48046875,9.67370969 7.48046875,8.94714355 C7.48046875,8.185421 7.60742061,7.62683283 7.86132812,7.2713623 C8.11523564,6.91589178 8.50390363,6.73815918 9.02734375,6.73815918 C9.53711192,6.73815918 9.92236198,6.92321592 10.1831055,7.29333496 C10.443849,7.663454 10.5742188,8.21471802 10.5742188,8.94714355 Z M8.63183594,8.94714355 C8.63183594,9.43152098 8.66210907,9.76452546 8.72265625,9.94616699 C8.78320343,10.1278085 8.88476491,10.2186279 9.02734375,10.2186279 C9.17187572,10.2186279 9.27392548,10.1248789 9.33349609,9.93737793 C9.3930667,9.74987699 9.42285156,9.41980217 9.42285156,8.94714355 C9.42285156,8.47253181 9.39257843,8.1400156 9.33203125,7.94958496 C9.27148407,7.75915432 9.16992259,7.66394043 9.02734375,7.66394043 C8.88476491,7.66394043 8.78320343,7.75573639 8.72265625,7.93933105 C8.66210907,8.12292572 8.63183594,8.45885986 8.63183594,8.94714355 Z M14.0898438,8.94714355 C14.0898438,9.70495984 13.9628919,10.2601301 13.7089844,10.6126709 C13.4550769,10.9652117 13.0664089,11.1414795 12.5429688,11.1414795 C12.0312474,11.1414795 11.6455091,10.9573993 11.3857422,10.5892334 C11.1259753,10.2210675 10.9960938,9.67370969 10.9960938,8.94714355 C10.9960938,8.185421 11.1230456,7.62683283 11.3769531,7.2713623 C11.6308606,6.91589178 12.0195286,6.73815918 12.5429688,6.73815918 C13.0527369,6.73815918 13.437987,6.92321592 13.6987305,7.29333496 C13.959474,7.663454 14.0898438,8.21471802 14.0898438,8.94714355 Z M12.1474609,8.94714355 C12.1474609,9.43152098 12.1777341,9.76452546 12.2382812,9.94616699 C12.2988284,10.1278085 12.4003899,10.2186279 12.5429688,10.2186279 C12.6875007,10.2186279 12.7895505,10.1248789 12.8491211,9.93737793 C12.9086917,9.74987699 12.9384766,9.41980217 12.9384766,8.94714355 C12.9384766,8.47253181 12.9082034,8.1400156 12.8476562,7.94958496 C12.7871091,7.75915432 12.6855476,7.66394043 12.5429688,7.66394043 C12.4003899,7.66394043 12.2988284,7.75573639 12.2382812,7.93933105 C12.1777341,8.12292572 12.1474609,8.45885986 12.1474609,8.94714355 Z" id="100" fill="#FFFFFF"></path>
                        </g>
                    </g>
                </g>
            </g>
        </g>
    </g>
</svg>