<?xml version="1.0" encoding="UTF-8"?>
<svg width="25px" height="35px" viewBox="0 0 25 35" version="1.1" xmlns="http://www.w3.org/2000/svg" xmlns:xlink="http://www.w3.org/1999/xlink">
    <!-- Generator: Sketch 53.2 (72643) - https://sketchapp.com -->
    <title>Card Smal Back 1</title>
    <desc>Created with Sketch.</desc>
    <g id="Tablet" stroke="none" stroke-width="1" fill="none" fill-rule="evenodd">
        <g id="Poker-768-3-Copy" transform="translate(-614.000000, -280.000000)">
            <g id="Group-6" transform="translate(45.000000, 123.000000)">
                <g id="Group-4" transform="translate(569.000000, 140.000000)">
                    <g id="Group-3-Copy-9">
                        <g id="Kard-Small-Back" transform="translate(0.000000, 17.000000)">
                            <g id="Card-Smal-Back-1">
                                <g id="Group-19">
                                    <rect id="Rectangle-3-Copy" fill="#FFFFFF" x="-1.45661261e-13" y="7.10542736e-15" width="25" height="35" rx="3"></rect>
                                    <rect id="Rectangle-3-Copy-11" fill="#D44052" x="1.62037037" y="1.5" width="21.875" height="32" rx="2"></rect>
                                    <path d="M22.6851852,7.48165234 L2.43055556,28.5153062 L2.43055556,27.325463 L22.6851852,6.2918092 L22.6851852,7.48165234 Z M22.6851852,11.6883831 L3.32450607,31.7937037 C3.0931435,31.63985 2.89565147,31.4391037 2.74559865,31.2050337 L22.6851852,10.49854 L22.6851852,11.6883831 Z M22.6851852,15.8951139 L7.05436892,32.1271154 L5.90859404,32.1271154 L22.6851852,14.7052707 L22.6851852,15.8951139 Z M22.6851852,20.1018446 L11.1052948,32.1271154 L9.95951997,32.1271154 L22.6851852,18.9120015 L22.6851852,20.1018446 Z M22.6851852,24.3085754 L15.1562208,32.1271154 L14.0104459,32.1271154 L22.6851852,23.1187323 L22.6851852,24.3085754 Z M22.6851852,28.5153062 L19.2071467,32.1271154 L18.0613718,32.1271154 L22.6851852,27.325463 L22.6851852,28.5153062 Z M22.3701421,3.6020817 L2.43055556,24.3085754 L2.43055556,23.1187323 L21.7912347,3.01341165 C22.0225972,3.16726541 22.2200893,3.36801166 22.3701421,3.6020817 Z M19.2071467,2.68 L2.43055556,20.1018446 L2.43055556,18.9120015 L18.0613718,2.68 L19.2071467,2.68 Z M15.1562208,2.68 L2.43055556,15.8951139 L2.43055556,14.7052707 L14.0104459,2.68 L15.1562208,2.68 Z M11.1052948,2.68 L2.43055556,11.6883831 L2.43055556,10.49854 L9.95951997,2.68 L11.1052948,2.68 Z M7.05436892,2.68 L2.43055556,7.48165234 L2.43055556,6.2918092 L5.90859404,2.68 L7.05436892,2.68 Z" id="Combined-Shape" fill="#FFFFFF"></path>
                                    <path d="M22.6851852,7.48165234 L2.43055556,28.5153062 L2.43055556,27.325463 L22.6851852,6.2918092 L22.6851852,7.48165234 Z M22.6851852,11.6883831 L3.32450607,31.7937037 C3.0931435,31.63985 2.89565147,31.4391037 2.74559865,31.2050337 L22.6851852,10.49854 L22.6851852,11.6883831 Z M22.6851852,15.8951139 L7.05436892,32.1271154 L5.90859404,32.1271154 L22.6851852,14.7052707 L22.6851852,15.8951139 Z M22.6851852,20.1018446 L11.1052948,32.1271154 L9.95951997,32.1271154 L22.6851852,18.9120015 L22.6851852,20.1018446 Z M22.6851852,24.3085754 L15.1562208,32.1271154 L14.0104459,32.1271154 L22.6851852,23.1187323 L22.6851852,24.3085754 Z M22.6851852,28.5153062 L19.2071467,32.1271154 L18.0613718,32.1271154 L22.6851852,27.325463 L22.6851852,28.5153062 Z M22.3701421,3.6020817 L2.43055556,24.3085754 L2.43055556,23.1187323 L21.7912347,3.01341165 C22.0225972,3.16726541 22.2200893,3.36801166 22.3701421,3.6020817 Z M19.2071467,2.68 L2.43055556,20.1018446 L2.43055556,18.9120015 L18.0613718,2.68 L19.2071467,2.68 Z M15.1562208,2.68 L2.43055556,15.8951139 L2.43055556,14.7052707 L14.0104459,2.68 L15.1562208,2.68 Z M11.1052948,2.68 L2.43055556,11.6883831 L2.43055556,10.49854 L9.95951997,2.68 L11.1052948,2.68 Z M7.05436892,2.68 L2.43055556,7.48165234 L2.43055556,6.2918092 L5.90859404,2.68 L7.05436892,2.68 Z" id="Combined-Shape-Copy-3" fill="#FFFFFF" transform="translate(12.557870, 17.403558) scale(-1, 1) translate(-12.557870, -17.403558) "></path>
                                    <path d="M3.43055556,2.5 L21.6851852,2.5 C22.2374699,2.5 22.6851852,2.94771525 22.6851852,3.5 L22.6851852,31.5 C22.6851852,32.0522847 22.2374699,32.5 21.6851852,32.5 L3.43055556,32.5 C2.87827081,32.5 2.43055556,32.0522847 2.43055556,31.5 L2.43055556,3.5 C2.43055556,2.94771525 2.87827081,2.5 3.43055556,2.5 Z M3.24074074,3.35714286 L3.24074074,31.6428571 L21.875,31.6428571 L21.875,3.35714286 L3.24074074,3.35714286 Z" id="Combined-Shape" fill="#FFFFFF"></path>
                                    <ellipse id="Oval-6" stroke="#FFFFFF" fill="#D44052" cx="12.5578704" cy="17.2475962" rx="4.7662037" ry="4.96875"></ellipse>
                                </g>
                            </g>
                        </g>
                    </g>
                </g>
            </g>
        </g>
    </g>
</svg>