<?xml version="1.0" encoding="UTF-8"?>
<svg width="22px" height="26px" viewBox="0 0 22 26" version="1.1" xmlns="http://www.w3.org/2000/svg" xmlns:xlink="http://www.w3.org/1999/xlink">
    <!-- Generator: Sketch 53.2 (72643) - https://sketchapp.com -->
    <title>Purple</title>
    <desc>Created with Sketch.</desc>
    <defs>
        <path d="M0,6 L18,6 C18,5.35979497 18,4.6931283 18,4 C18,1.790861 13.9705627,0 9,0 C4.02943725,0 0,1.790861 0,4 C0,5.47275933 0,6.139426 0,6 Z" id="path-1"></path>
        <filter x="-36.1%" y="-81.2%" width="172.2%" height="262.5%" filterUnits="objectBoundingBox" id="filter-3">
            <feOffset dx="0" dy="1" in="SourceAlpha" result="shadowOffsetOuter1"></feOffset>
            <feGaussianBlur stdDeviation="1" in="shadowOffsetOuter1" result="shadowBlurOuter1"></feGaussianBlur>
            <feColorMatrix values="0 0 0 0 0   0 0 0 0 0   0 0 0 0 0  0 0 0 0.5 0" type="matrix" in="shadowBlurOuter1" result="shadowMatrixOuter1"></feColorMatrix>
            <feMerge>
                <feMergeNode in="shadowMatrixOuter1"></feMergeNode>
                <feMergeNode in="SourceGraphic"></feMergeNode>
            </feMerge>
        </filter>
        <ellipse id="path-4" cx="9" cy="4" rx="9" ry="4"></ellipse>
        <ellipse id="path-6" cx="9" cy="4" rx="7" ry="3.11111111"></ellipse>
        <path d="M0,6 L18,6 C18,5.35979497 18,4.6931283 18,4 C18,1.790861 13.9705627,0 9,0 C4.02943725,0 0,1.790861 0,4 C0,5.47275933 0,6.139426 0,6 Z" id="path-7"></path>
        <filter x="-36.1%" y="-81.2%" width="172.2%" height="262.5%" filterUnits="objectBoundingBox" id="filter-9">
            <feOffset dx="0" dy="1" in="SourceAlpha" result="shadowOffsetOuter1"></feOffset>
            <feGaussianBlur stdDeviation="1" in="shadowOffsetOuter1" result="shadowBlurOuter1"></feGaussianBlur>
            <feColorMatrix values="0 0 0 0 0   0 0 0 0 0   0 0 0 0 0  0 0 0 0.5 0" type="matrix" in="shadowBlurOuter1" result="shadowMatrixOuter1"></feColorMatrix>
            <feMerge>
                <feMergeNode in="shadowMatrixOuter1"></feMergeNode>
                <feMergeNode in="SourceGraphic"></feMergeNode>
            </feMerge>
        </filter>
        <ellipse id="path-10" cx="9" cy="4" rx="9" ry="4"></ellipse>
        <ellipse id="path-12" cx="9" cy="4" rx="7" ry="3.11111111"></ellipse>
        <path d="M0,6 L18,6 C18,5.35979497 18,4.6931283 18,4 C18,1.790861 13.9705627,0 9,0 C4.02943725,0 0,1.790861 0,4 C0,5.47275933 0,6.139426 0,6 Z" id="path-13"></path>
        <filter x="-36.1%" y="-81.2%" width="172.2%" height="262.5%" filterUnits="objectBoundingBox" id="filter-15">
            <feOffset dx="0" dy="1" in="SourceAlpha" result="shadowOffsetOuter1"></feOffset>
            <feGaussianBlur stdDeviation="1" in="shadowOffsetOuter1" result="shadowBlurOuter1"></feGaussianBlur>
            <feColorMatrix values="0 0 0 0 0   0 0 0 0 0   0 0 0 0 0  0 0 0 0.5 0" type="matrix" in="shadowBlurOuter1" result="shadowMatrixOuter1"></feColorMatrix>
            <feMerge>
                <feMergeNode in="shadowMatrixOuter1"></feMergeNode>
                <feMergeNode in="SourceGraphic"></feMergeNode>
            </feMerge>
        </filter>
        <ellipse id="path-16" cx="9" cy="4" rx="9" ry="4"></ellipse>
        <ellipse id="path-18" cx="9" cy="4" rx="7" ry="3.11111111"></ellipse>
        <path d="M0,6 L18,6 C18,5.35979497 18,4.6931283 18,4 C18,1.790861 13.9705627,0 9,0 C4.02943725,0 0,1.790861 0,4 C0,5.47275933 0,6.139426 0,6 Z" id="path-19"></path>
        <filter x="-36.1%" y="-81.2%" width="172.2%" height="262.5%" filterUnits="objectBoundingBox" id="filter-21">
            <feOffset dx="0" dy="1" in="SourceAlpha" result="shadowOffsetOuter1"></feOffset>
            <feGaussianBlur stdDeviation="1" in="shadowOffsetOuter1" result="shadowBlurOuter1"></feGaussianBlur>
            <feColorMatrix values="0 0 0 0 0   0 0 0 0 0   0 0 0 0 0  0 0 0 0.5 0" type="matrix" in="shadowBlurOuter1" result="shadowMatrixOuter1"></feColorMatrix>
            <feMerge>
                <feMergeNode in="shadowMatrixOuter1"></feMergeNode>
                <feMergeNode in="SourceGraphic"></feMergeNode>
            </feMerge>
        </filter>
        <ellipse id="path-22" cx="9" cy="4" rx="9" ry="4"></ellipse>
        <ellipse id="path-24" cx="9" cy="4" rx="7" ry="3.11111111"></ellipse>
        <path d="M0,6 L18,6 C18,5.35979497 18,4.6931283 18,4 C18,1.790861 13.9705627,0 9,0 C4.02943725,0 0,1.790861 0,4 C0,5.47275933 0,6.139426 0,6 Z" id="path-25"></path>
        <filter x="-36.1%" y="-81.2%" width="172.2%" height="262.5%" filterUnits="objectBoundingBox" id="filter-27">
            <feOffset dx="0" dy="1" in="SourceAlpha" result="shadowOffsetOuter1"></feOffset>
            <feGaussianBlur stdDeviation="1" in="shadowOffsetOuter1" result="shadowBlurOuter1"></feGaussianBlur>
            <feColorMatrix values="0 0 0 0 0   0 0 0 0 0   0 0 0 0 0  0 0 0 0.5 0" type="matrix" in="shadowBlurOuter1" result="shadowMatrixOuter1"></feColorMatrix>
            <feMerge>
                <feMergeNode in="shadowMatrixOuter1"></feMergeNode>
                <feMergeNode in="SourceGraphic"></feMergeNode>
            </feMerge>
        </filter>
        <ellipse id="path-28" cx="9" cy="4" rx="9" ry="4"></ellipse>
        <ellipse id="path-30" cx="9" cy="4" rx="7" ry="3.11111111"></ellipse>
        <path d="M0,6 L18,6 C18,5.35979497 18,4.6931283 18,4 C18,1.790861 13.9705627,0 9,0 C4.02943725,0 0,1.790861 0,4 C0,5.47275933 0,6.139426 0,6 Z" id="path-31"></path>
        <filter x="-36.1%" y="-81.2%" width="172.2%" height="262.5%" filterUnits="objectBoundingBox" id="filter-33">
            <feOffset dx="0" dy="1" in="SourceAlpha" result="shadowOffsetOuter1"></feOffset>
            <feGaussianBlur stdDeviation="1" in="shadowOffsetOuter1" result="shadowBlurOuter1"></feGaussianBlur>
            <feColorMatrix values="0 0 0 0 0   0 0 0 0 0   0 0 0 0 0  0 0 0 0.5 0" type="matrix" in="shadowBlurOuter1" result="shadowMatrixOuter1"></feColorMatrix>
            <feMerge>
                <feMergeNode in="shadowMatrixOuter1"></feMergeNode>
                <feMergeNode in="SourceGraphic"></feMergeNode>
            </feMerge>
        </filter>
        <ellipse id="path-34" cx="9" cy="4" rx="9" ry="4"></ellipse>
        <ellipse id="path-36" cx="9" cy="4" rx="7" ry="3.11111111"></ellipse>
        <path d="M0,6 L18,6 C18,5.35979497 18,4.6931283 18,4 C18,1.790861 13.9705627,0 9,0 C4.02943725,0 0,1.790861 0,4 C0,5.47275933 0,6.139426 0,6 Z" id="path-37"></path>
        <filter x="-36.1%" y="-81.2%" width="172.2%" height="262.5%" filterUnits="objectBoundingBox" id="filter-39">
            <feOffset dx="0" dy="1" in="SourceAlpha" result="shadowOffsetOuter1"></feOffset>
            <feGaussianBlur stdDeviation="1" in="shadowOffsetOuter1" result="shadowBlurOuter1"></feGaussianBlur>
            <feColorMatrix values="0 0 0 0 0   0 0 0 0 0   0 0 0 0 0  0 0 0 0.5 0" type="matrix" in="shadowBlurOuter1" result="shadowMatrixOuter1"></feColorMatrix>
            <feMerge>
                <feMergeNode in="shadowMatrixOuter1"></feMergeNode>
                <feMergeNode in="SourceGraphic"></feMergeNode>
            </feMerge>
        </filter>
        <ellipse id="path-40" cx="9" cy="4" rx="9" ry="4"></ellipse>
        <ellipse id="path-42" cx="9" cy="4" rx="7" ry="3.11111111"></ellipse>
    </defs>
    <g id="Desktop" stroke="none" stroke-width="1" fill="none" fill-rule="evenodd">
        <g id="Poker-1440-3" transform="translate(-749.000000, -276.000000)">
            <g id="Group-6" transform="translate(273.000000, 109.000000)">
                <g id="Table" transform="translate(97.000000, 144.000000)">
                    <g id="Chips-Table" transform="translate(281.000000, 23.000000)">
                        <g id="Purple" transform="translate(100.000000, 0.000000)">
                            <g id="1000">
                                <g id="Combined-Shape-+-Combined-Shape-+-Combined-Shape-Mask">
                                    <mask id="mask-2" fill="white">
                                        <use xlink:href="#path-1"></use>
                                    </mask>
                                    <use id="Color" fill="#7C027F" xlink:href="#path-1"></use>
                                    <path d="M6.65716553,0.136873721 L6.65716553,6 L2.79681396,6 L2.79681396,1.10186787 C3.86710367,0.649212338 5.18784283,0.31245637 6.65716553,0.136873721 Z M15.2008057,1.10086151 L15.2008057,6 L11.3404541,6 L11.3404541,0.136589425 C12.8096415,0.311962701 14.1303602,0.648468871 15.2008057,1.10086151 Z" id="Combined-Shape" fill="#FFFFFF" mask="url(#mask-2)"></path>
                                    <path d="M17.5,6 L17,6 L17,2.16568797 C17.6390692,2.71512761 18,3.33883049 18,4 C18,4.6931283 18,5.35979497 18,6 L17.5,6 Z" id="Combined-Shape" fill="#FFFFFF" mask="url(#mask-2)"></path>
                                    <path d="M1,2.16568797 L1,6 L0,6 L0,0 L1,0 L1,2.16568797 C2.49622694,0.879307118 5.51706864,0 9,0 C13.9705627,0 18,1.790861 18,4 C18,4.6931283 18,5.35979497 18,6 L0,6 C0,6.139426 0,5.47275933 0,4 C0,3.33883049 0.360930799,2.71512761 1,2.16568797 L1,6 L0,6 L0,0 L1,0 L1,2.16568797 C2.49622694,0.879307118 5.51706864,0 9,0 C13.9705627,0 18,1.790861 18,4 C18,4.6931283 18,5.35979497 18,6 L1,6 Z" id="Combined-Shape" fill="#FFFFFF" mask="url(#mask-2)"></path>
                                </g>
                                <g id="Oval-8-Copy-+-Oval-8-Copy-2-+-Combined-Shape-Mask" filter="url(#filter-3)" transform="translate(0.000000, 2.000000)">
                                    <mask id="mask-5" fill="white">
                                        <use xlink:href="#path-4"></use>
                                    </mask>
                                    <use id="Color" fill="#7C027F" xlink:href="#path-4"></use>
                                    <g id="Oval-8-Copy" mask="url(#mask-5)">
                                        <use fill="#7C027F" xlink:href="#path-6"></use>
                                        <use fill-opacity="0.25" fill="#000000" xlink:href="#path-6"></use>
                                    </g>
                                    <ellipse id="Color" fill="#7C027F" mask="url(#mask-5)" cx="9" cy="4" rx="6" ry="2.66666667"></ellipse>
                                    <path d="M15.2040876,1.10224923 C15.2019826,1.14988387 15.1947028,1.19802536 15.1818517,1.24598656 C15.0865571,1.60163063 14.7209991,1.81268563 14.3653551,1.71739109 L11.7895529,1.02720697 C11.4339088,0.931912424 11.2228538,0.566354453 11.3181483,0.210710384 C11.3249485,0.185331994 11.3331248,0.160689866 11.3425755,0.136842779 C12.8124146,0.312466104 14.1335752,0.649374881 15.2040876,1.10224923 Z M6.65742448,7.86315722 C5.18758541,7.6875339 3.8664248,7.35062512 2.79591239,6.89775077 C2.79801744,6.85011613 2.80529718,6.80197464 2.81814835,6.75401344 C2.91344289,6.39836937 3.27900086,6.18731437 3.63464493,6.28260891 L6.21044713,6.97279303 C6.5660912,7.06808758 6.77714619,7.43364555 6.68185165,7.78928962 C6.67505153,7.81466801 6.66687521,7.83931013 6.65742448,7.86315722 Z M17.0074463,5.82789585 L17.0074463,2.17210415 C17.6418722,2.71998123 18,3.34140278 18,4 C18,4.65859722 17.6418722,5.28001877 17.0074463,5.82789585 Z M1.00927734,2.1577337 L1.00927734,5.8422663 C0.424039938,5.34186792 0.0697770107,4.77956257 0.00927734375,4.18325637 L0.00927734375,3.81674363 C0.0697770107,3.22043743 0.424039938,2.65813208 1.00927734,2.1577337 Z M11.3425755,7.86315722 C11.3331248,7.83931013 11.3249485,7.81466801 11.3181483,7.78928962 C11.2228538,7.43364555 11.4339088,7.06808758 11.7895529,6.97279303 L14.3653551,6.28260891 C14.7209991,6.18731437 15.0865571,6.39836937 15.1818517,6.75401344 C15.1947028,6.80197464 15.2019826,6.85011613 15.2040876,6.89775077 C14.1335752,7.35062512 12.8124146,7.6875339 11.3425755,7.86315722 Z M2.79591239,1.10224923 C3.8664248,0.649374881 5.18758541,0.312466104 6.65742448,0.136842779 C6.66687521,0.160689866 6.67505153,0.185331994 6.68185165,0.210710384 C6.77714619,0.566354453 6.5660912,0.931912424 6.21044713,1.02720697 L3.63464493,1.71739109 C3.27900086,1.81268563 2.91344289,1.60163063 2.81814835,1.24598656 C2.80529718,1.19802536 2.79801744,1.14988387 2.79591239,1.10224923 Z M9.01640374,0.707162067 C8.74026137,0.707162067 8.51640374,0.607669789 8.51640374,0.484939844 C8.51640374,0.3622099 8.74026137,0.262717622 9.01640374,0.262717622 C9.29254612,0.262717622 9.51640374,0.3622099 9.51640374,0.484939844 C9.51640374,0.607669789 9.29254612,0.707162067 9.01640374,0.707162067 Z M9.01640374,7.81827318 C8.74026137,7.81827318 8.51640374,7.7187809 8.51640374,7.59605096 C8.51640374,7.47332101 8.74026137,7.37382873 9.01640374,7.37382873 C9.29254612,7.37382873 9.51640374,7.47332101 9.51640374,7.59605096 C9.51640374,7.7187809 9.29254612,7.81827318 9.01640374,7.81827318 Z M15.8334959,2.45516771 C15.5943496,2.31709652 15.4502293,2.11900487 15.5115943,2.01271762 C15.5729592,1.90643037 15.8165718,1.93219635 16.0557181,2.07026753 C16.2948644,2.20833872 16.4389846,2.40643037 16.3776197,2.51271762 C16.3162547,2.61900487 16.0726422,2.5932389 15.8334959,2.45516771 Z M1.9770894,6.01072327 C1.73794309,5.87265208 1.59382284,5.67456043 1.65518781,5.56827318 C1.71655278,5.46198593 1.96016531,5.4877519 2.19931163,5.62582309 C2.43845794,5.76389428 2.58257819,5.96198593 2.52121322,6.06827318 C2.45984824,6.17456043 2.21623571,6.14879445 1.9770894,6.01072327 Z M15.8334959,5.62582309 C16.0726422,5.4877519 16.3162547,5.46198593 16.3776197,5.56827318 C16.4389846,5.67456043 16.2948644,5.87265208 16.0557181,6.01072327 C15.8165718,6.14879445 15.5729592,6.17456043 15.5115943,6.06827318 C15.4502293,5.96198593 15.5943496,5.76389428 15.8334959,5.62582309 Z M1.9770894,2.07026753 C2.21623571,1.93219635 2.45984824,1.90643037 2.52121322,2.01271762 C2.58257819,2.11900487 2.43845794,2.31709652 2.19931163,2.45516771 C1.96016531,2.5932389 1.71655278,2.61900487 1.65518781,2.51271762 C1.59382284,2.40643037 1.73794309,2.20833872 1.9770894,2.07026753 Z" id="Combined-Shape" fill="#FFFFFF" mask="url(#mask-5)"></path>
                                    <ellipse id="Mask-Copy" fill-opacity="0.35" fill="#000000" mask="url(#mask-5)" cx="9" cy="4" rx="9" ry="4"></ellipse>
                                </g>
                            </g>
                            <g id="1000" transform="translate(0.000000, 2.000000)">
                                <g id="Combined-Shape-+-Combined-Shape-+-Combined-Shape-Mask">
                                    <mask id="mask-8" fill="white">
                                        <use xlink:href="#path-7"></use>
                                    </mask>
                                    <use id="Color" fill="#7C027F" xlink:href="#path-7"></use>
                                    <path d="M6.65716553,0.136873721 L6.65716553,6 L2.79681396,6 L2.79681396,1.10186787 C3.86710367,0.649212338 5.18784283,0.31245637 6.65716553,0.136873721 Z M15.2008057,1.10086151 L15.2008057,6 L11.3404541,6 L11.3404541,0.136589425 C12.8096415,0.311962701 14.1303602,0.648468871 15.2008057,1.10086151 Z" id="Combined-Shape" fill="#FFFFFF" mask="url(#mask-8)"></path>
                                    <path d="M17.5,6 L17,6 L17,2.16568797 C17.6390692,2.71512761 18,3.33883049 18,4 C18,4.6931283 18,5.35979497 18,6 L17.5,6 Z" id="Combined-Shape" fill="#FFFFFF" mask="url(#mask-8)"></path>
                                    <path d="M1,2.16568797 L1,6 L0,6 L0,0 L1,0 L1,2.16568797 C2.49622694,0.879307118 5.51706864,0 9,0 C13.9705627,0 18,1.790861 18,4 C18,4.6931283 18,5.35979497 18,6 L0,6 C0,6.139426 0,5.47275933 0,4 C0,3.33883049 0.360930799,2.71512761 1,2.16568797 L1,6 L0,6 L0,0 L1,0 L1,2.16568797 C2.49622694,0.879307118 5.51706864,0 9,0 C13.9705627,0 18,1.790861 18,4 C18,4.6931283 18,5.35979497 18,6 L1,6 Z" id="Combined-Shape" fill="#FFFFFF" mask="url(#mask-8)"></path>
                                </g>
                                <g id="Oval-8-Copy-+-Oval-8-Copy-2-+-Combined-Shape-Mask" filter="url(#filter-9)" transform="translate(0.000000, 2.000000)">
                                    <mask id="mask-11" fill="white">
                                        <use xlink:href="#path-10"></use>
                                    </mask>
                                    <use id="Color" fill="#7C027F" xlink:href="#path-10"></use>
                                    <g id="Oval-8-Copy" mask="url(#mask-11)">
                                        <use fill="#7C027F" xlink:href="#path-12"></use>
                                        <use fill-opacity="0.25" fill="#000000" xlink:href="#path-12"></use>
                                    </g>
                                    <ellipse id="Color" fill="#7C027F" mask="url(#mask-11)" cx="9" cy="4" rx="6" ry="2.66666667"></ellipse>
                                    <path d="M15.2040876,1.10224923 C15.2019826,1.14988387 15.1947028,1.19802536 15.1818517,1.24598656 C15.0865571,1.60163063 14.7209991,1.81268563 14.3653551,1.71739109 L11.7895529,1.02720697 C11.4339088,0.931912424 11.2228538,0.566354453 11.3181483,0.210710384 C11.3249485,0.185331994 11.3331248,0.160689866 11.3425755,0.136842779 C12.8124146,0.312466104 14.1335752,0.649374881 15.2040876,1.10224923 Z M6.65742448,7.86315722 C5.18758541,7.6875339 3.8664248,7.35062512 2.79591239,6.89775077 C2.79801744,6.85011613 2.80529718,6.80197464 2.81814835,6.75401344 C2.91344289,6.39836937 3.27900086,6.18731437 3.63464493,6.28260891 L6.21044713,6.97279303 C6.5660912,7.06808758 6.77714619,7.43364555 6.68185165,7.78928962 C6.67505153,7.81466801 6.66687521,7.83931013 6.65742448,7.86315722 Z M17.0074463,5.82789585 L17.0074463,2.17210415 C17.6418722,2.71998123 18,3.34140278 18,4 C18,4.65859722 17.6418722,5.28001877 17.0074463,5.82789585 Z M1.00927734,2.1577337 L1.00927734,5.8422663 C0.424039938,5.34186792 0.0697770107,4.77956257 0.00927734375,4.18325637 L0.00927734375,3.81674363 C0.0697770107,3.22043743 0.424039938,2.65813208 1.00927734,2.1577337 Z M11.3425755,7.86315722 C11.3331248,7.83931013 11.3249485,7.81466801 11.3181483,7.78928962 C11.2228538,7.43364555 11.4339088,7.06808758 11.7895529,6.97279303 L14.3653551,6.28260891 C14.7209991,6.18731437 15.0865571,6.39836937 15.1818517,6.75401344 C15.1947028,6.80197464 15.2019826,6.85011613 15.2040876,6.89775077 C14.1335752,7.35062512 12.8124146,7.6875339 11.3425755,7.86315722 Z M2.79591239,1.10224923 C3.8664248,0.649374881 5.18758541,0.312466104 6.65742448,0.136842779 C6.66687521,0.160689866 6.67505153,0.185331994 6.68185165,0.210710384 C6.77714619,0.566354453 6.5660912,0.931912424 6.21044713,1.02720697 L3.63464493,1.71739109 C3.27900086,1.81268563 2.91344289,1.60163063 2.81814835,1.24598656 C2.80529718,1.19802536 2.79801744,1.14988387 2.79591239,1.10224923 Z M9.01640374,0.707162067 C8.74026137,0.707162067 8.51640374,0.607669789 8.51640374,0.484939844 C8.51640374,0.3622099 8.74026137,0.262717622 9.01640374,0.262717622 C9.29254612,0.262717622 9.51640374,0.3622099 9.51640374,0.484939844 C9.51640374,0.607669789 9.29254612,0.707162067 9.01640374,0.707162067 Z M9.01640374,7.81827318 C8.74026137,7.81827318 8.51640374,7.7187809 8.51640374,7.59605096 C8.51640374,7.47332101 8.74026137,7.37382873 9.01640374,7.37382873 C9.29254612,7.37382873 9.51640374,7.47332101 9.51640374,7.59605096 C9.51640374,7.7187809 9.29254612,7.81827318 9.01640374,7.81827318 Z M15.8334959,2.45516771 C15.5943496,2.31709652 15.4502293,2.11900487 15.5115943,2.01271762 C15.5729592,1.90643037 15.8165718,1.93219635 16.0557181,2.07026753 C16.2948644,2.20833872 16.4389846,2.40643037 16.3776197,2.51271762 C16.3162547,2.61900487 16.0726422,2.5932389 15.8334959,2.45516771 Z M1.9770894,6.01072327 C1.73794309,5.87265208 1.59382284,5.67456043 1.65518781,5.56827318 C1.71655278,5.46198593 1.96016531,5.4877519 2.19931163,5.62582309 C2.43845794,5.76389428 2.58257819,5.96198593 2.52121322,6.06827318 C2.45984824,6.17456043 2.21623571,6.14879445 1.9770894,6.01072327 Z M15.8334959,5.62582309 C16.0726422,5.4877519 16.3162547,5.46198593 16.3776197,5.56827318 C16.4389846,5.67456043 16.2948644,5.87265208 16.0557181,6.01072327 C15.8165718,6.14879445 15.5729592,6.17456043 15.5115943,6.06827318 C15.4502293,5.96198593 15.5943496,5.76389428 15.8334959,5.62582309 Z M1.9770894,2.07026753 C2.21623571,1.93219635 2.45984824,1.90643037 2.52121322,2.01271762 C2.58257819,2.11900487 2.43845794,2.31709652 2.19931163,2.45516771 C1.96016531,2.5932389 1.71655278,2.61900487 1.65518781,2.51271762 C1.59382284,2.40643037 1.73794309,2.20833872 1.9770894,2.07026753 Z" id="Combined-Shape" fill="#FFFFFF" mask="url(#mask-11)"></path>
                                    <ellipse id="Mask-Copy" fill-opacity="0.35" fill="#000000" mask="url(#mask-11)" cx="9" cy="4" rx="9" ry="4"></ellipse>
                                </g>
                            </g>
                            <g id="1000" transform="translate(0.000000, 4.000000)">
                                <g id="Combined-Shape-+-Combined-Shape-+-Combined-Shape-Mask">
                                    <mask id="mask-14" fill="white">
                                        <use xlink:href="#path-13"></use>
                                    </mask>
                                    <use id="Color" fill="#7C027F" xlink:href="#path-13"></use>
                                    <path d="M6.65716553,0.136873721 L6.65716553,6 L2.79681396,6 L2.79681396,1.10186787 C3.86710367,0.649212338 5.18784283,0.31245637 6.65716553,0.136873721 Z M15.2008057,1.10086151 L15.2008057,6 L11.3404541,6 L11.3404541,0.136589425 C12.8096415,0.311962701 14.1303602,0.648468871 15.2008057,1.10086151 Z" id="Combined-Shape" fill="#FFFFFF" mask="url(#mask-14)"></path>
                                    <path d="M17.5,6 L17,6 L17,2.16568797 C17.6390692,2.71512761 18,3.33883049 18,4 C18,4.6931283 18,5.35979497 18,6 L17.5,6 Z" id="Combined-Shape" fill="#FFFFFF" mask="url(#mask-14)"></path>
                                    <path d="M1,2.16568797 L1,6 L0,6 L0,0 L1,0 L1,2.16568797 C2.49622694,0.879307118 5.51706864,0 9,0 C13.9705627,0 18,1.790861 18,4 C18,4.6931283 18,5.35979497 18,6 L0,6 C0,6.139426 0,5.47275933 0,4 C0,3.33883049 0.360930799,2.71512761 1,2.16568797 L1,6 L0,6 L0,0 L1,0 L1,2.16568797 C2.49622694,0.879307118 5.51706864,0 9,0 C13.9705627,0 18,1.790861 18,4 C18,4.6931283 18,5.35979497 18,6 L1,6 Z" id="Combined-Shape" fill="#FFFFFF" mask="url(#mask-14)"></path>
                                </g>
                                <g id="Oval-8-Copy-+-Oval-8-Copy-2-+-Combined-Shape-Mask" filter="url(#filter-15)" transform="translate(0.000000, 2.000000)">
                                    <mask id="mask-17" fill="white">
                                        <use xlink:href="#path-16"></use>
                                    </mask>
                                    <use id="Color" fill="#7C027F" xlink:href="#path-16"></use>
                                    <g id="Oval-8-Copy" mask="url(#mask-17)">
                                        <use fill="#7C027F" xlink:href="#path-18"></use>
                                        <use fill-opacity="0.25" fill="#000000" xlink:href="#path-18"></use>
                                    </g>
                                    <ellipse id="Color" fill="#7C027F" mask="url(#mask-17)" cx="9" cy="4" rx="6" ry="2.66666667"></ellipse>
                                    <path d="M15.2040876,1.10224923 C15.2019826,1.14988387 15.1947028,1.19802536 15.1818517,1.24598656 C15.0865571,1.60163063 14.7209991,1.81268563 14.3653551,1.71739109 L11.7895529,1.02720697 C11.4339088,0.931912424 11.2228538,0.566354453 11.3181483,0.210710384 C11.3249485,0.185331994 11.3331248,0.160689866 11.3425755,0.136842779 C12.8124146,0.312466104 14.1335752,0.649374881 15.2040876,1.10224923 Z M6.65742448,7.86315722 C5.18758541,7.6875339 3.8664248,7.35062512 2.79591239,6.89775077 C2.79801744,6.85011613 2.80529718,6.80197464 2.81814835,6.75401344 C2.91344289,6.39836937 3.27900086,6.18731437 3.63464493,6.28260891 L6.21044713,6.97279303 C6.5660912,7.06808758 6.77714619,7.43364555 6.68185165,7.78928962 C6.67505153,7.81466801 6.66687521,7.83931013 6.65742448,7.86315722 Z M17.0074463,5.82789585 L17.0074463,2.17210415 C17.6418722,2.71998123 18,3.34140278 18,4 C18,4.65859722 17.6418722,5.28001877 17.0074463,5.82789585 Z M1.00927734,2.1577337 L1.00927734,5.8422663 C0.424039938,5.34186792 0.0697770107,4.77956257 0.00927734375,4.18325637 L0.00927734375,3.81674363 C0.0697770107,3.22043743 0.424039938,2.65813208 1.00927734,2.1577337 Z M11.3425755,7.86315722 C11.3331248,7.83931013 11.3249485,7.81466801 11.3181483,7.78928962 C11.2228538,7.43364555 11.4339088,7.06808758 11.7895529,6.97279303 L14.3653551,6.28260891 C14.7209991,6.18731437 15.0865571,6.39836937 15.1818517,6.75401344 C15.1947028,6.80197464 15.2019826,6.85011613 15.2040876,6.89775077 C14.1335752,7.35062512 12.8124146,7.6875339 11.3425755,7.86315722 Z M2.79591239,1.10224923 C3.8664248,0.649374881 5.18758541,0.312466104 6.65742448,0.136842779 C6.66687521,0.160689866 6.67505153,0.185331994 6.68185165,0.210710384 C6.77714619,0.566354453 6.5660912,0.931912424 6.21044713,1.02720697 L3.63464493,1.71739109 C3.27900086,1.81268563 2.91344289,1.60163063 2.81814835,1.24598656 C2.80529718,1.19802536 2.79801744,1.14988387 2.79591239,1.10224923 Z M9.01640374,0.707162067 C8.74026137,0.707162067 8.51640374,0.607669789 8.51640374,0.484939844 C8.51640374,0.3622099 8.74026137,0.262717622 9.01640374,0.262717622 C9.29254612,0.262717622 9.51640374,0.3622099 9.51640374,0.484939844 C9.51640374,0.607669789 9.29254612,0.707162067 9.01640374,0.707162067 Z M9.01640374,7.81827318 C8.74026137,7.81827318 8.51640374,7.7187809 8.51640374,7.59605096 C8.51640374,7.47332101 8.74026137,7.37382873 9.01640374,7.37382873 C9.29254612,7.37382873 9.51640374,7.47332101 9.51640374,7.59605096 C9.51640374,7.7187809 9.29254612,7.81827318 9.01640374,7.81827318 Z M15.8334959,2.45516771 C15.5943496,2.31709652 15.4502293,2.11900487 15.5115943,2.01271762 C15.5729592,1.90643037 15.8165718,1.93219635 16.0557181,2.07026753 C16.2948644,2.20833872 16.4389846,2.40643037 16.3776197,2.51271762 C16.3162547,2.61900487 16.0726422,2.5932389 15.8334959,2.45516771 Z M1.9770894,6.01072327 C1.73794309,5.87265208 1.59382284,5.67456043 1.65518781,5.56827318 C1.71655278,5.46198593 1.96016531,5.4877519 2.19931163,5.62582309 C2.43845794,5.76389428 2.58257819,5.96198593 2.52121322,6.06827318 C2.45984824,6.17456043 2.21623571,6.14879445 1.9770894,6.01072327 Z M15.8334959,5.62582309 C16.0726422,5.4877519 16.3162547,5.46198593 16.3776197,5.56827318 C16.4389846,5.67456043 16.2948644,5.87265208 16.0557181,6.01072327 C15.8165718,6.14879445 15.5729592,6.17456043 15.5115943,6.06827318 C15.4502293,5.96198593 15.5943496,5.76389428 15.8334959,5.62582309 Z M1.9770894,2.07026753 C2.21623571,1.93219635 2.45984824,1.90643037 2.52121322,2.01271762 C2.58257819,2.11900487 2.43845794,2.31709652 2.19931163,2.45516771 C1.96016531,2.5932389 1.71655278,2.61900487 1.65518781,2.51271762 C1.59382284,2.40643037 1.73794309,2.20833872 1.9770894,2.07026753 Z" id="Combined-Shape" fill="#FFFFFF" mask="url(#mask-17)"></path>
                                    <ellipse id="Mask-Copy" fill-opacity="0.35" fill="#000000" mask="url(#mask-17)" cx="9" cy="4" rx="9" ry="4"></ellipse>
                                </g>
                            </g>
                            <g id="1000" transform="translate(0.000000, 7.000000)">
                                <g id="Combined-Shape-+-Combined-Shape-+-Combined-Shape-Mask">
                                    <mask id="mask-20" fill="white">
                                        <use xlink:href="#path-19"></use>
                                    </mask>
                                    <use id="Color" fill="#7C027F" xlink:href="#path-19"></use>
                                    <path d="M6.65716553,0.136873721 L6.65716553,6 L2.79681396,6 L2.79681396,1.10186787 C3.86710367,0.649212338 5.18784283,0.31245637 6.65716553,0.136873721 Z M15.2008057,1.10086151 L15.2008057,6 L11.3404541,6 L11.3404541,0.136589425 C12.8096415,0.311962701 14.1303602,0.648468871 15.2008057,1.10086151 Z" id="Combined-Shape" fill="#FFFFFF" mask="url(#mask-20)"></path>
                                    <path d="M17.5,6 L17,6 L17,2.16568797 C17.6390692,2.71512761 18,3.33883049 18,4 C18,4.6931283 18,5.35979497 18,6 L17.5,6 Z" id="Combined-Shape" fill="#FFFFFF" mask="url(#mask-20)"></path>
                                    <path d="M1,2.16568797 L1,6 L0,6 L0,0 L1,0 L1,2.16568797 C2.49622694,0.879307118 5.51706864,0 9,0 C13.9705627,0 18,1.790861 18,4 C18,4.6931283 18,5.35979497 18,6 L0,6 C0,6.139426 0,5.47275933 0,4 C0,3.33883049 0.360930799,2.71512761 1,2.16568797 L1,6 L0,6 L0,0 L1,0 L1,2.16568797 C2.49622694,0.879307118 5.51706864,0 9,0 C13.9705627,0 18,1.790861 18,4 C18,4.6931283 18,5.35979497 18,6 L1,6 Z" id="Combined-Shape" fill="#FFFFFF" mask="url(#mask-20)"></path>
                                </g>
                                <g id="Oval-8-Copy-+-Oval-8-Copy-2-+-Combined-Shape-Mask" filter="url(#filter-21)" transform="translate(0.000000, 2.000000)">
                                    <mask id="mask-23" fill="white">
                                        <use xlink:href="#path-22"></use>
                                    </mask>
                                    <use id="Color" fill="#7C027F" xlink:href="#path-22"></use>
                                    <g id="Oval-8-Copy" mask="url(#mask-23)">
                                        <use fill="#7C027F" xlink:href="#path-24"></use>
                                        <use fill-opacity="0.25" fill="#000000" xlink:href="#path-24"></use>
                                    </g>
                                    <ellipse id="Color" fill="#7C027F" mask="url(#mask-23)" cx="9" cy="4" rx="6" ry="2.66666667"></ellipse>
                                    <path d="M15.2040876,1.10224923 C15.2019826,1.14988387 15.1947028,1.19802536 15.1818517,1.24598656 C15.0865571,1.60163063 14.7209991,1.81268563 14.3653551,1.71739109 L11.7895529,1.02720697 C11.4339088,0.931912424 11.2228538,0.566354453 11.3181483,0.210710384 C11.3249485,0.185331994 11.3331248,0.160689866 11.3425755,0.136842779 C12.8124146,0.312466104 14.1335752,0.649374881 15.2040876,1.10224923 Z M6.65742448,7.86315722 C5.18758541,7.6875339 3.8664248,7.35062512 2.79591239,6.89775077 C2.79801744,6.85011613 2.80529718,6.80197464 2.81814835,6.75401344 C2.91344289,6.39836937 3.27900086,6.18731437 3.63464493,6.28260891 L6.21044713,6.97279303 C6.5660912,7.06808758 6.77714619,7.43364555 6.68185165,7.78928962 C6.67505153,7.81466801 6.66687521,7.83931013 6.65742448,7.86315722 Z M17.0074463,5.82789585 L17.0074463,2.17210415 C17.6418722,2.71998123 18,3.34140278 18,4 C18,4.65859722 17.6418722,5.28001877 17.0074463,5.82789585 Z M1.00927734,2.1577337 L1.00927734,5.8422663 C0.424039938,5.34186792 0.0697770107,4.77956257 0.00927734375,4.18325637 L0.00927734375,3.81674363 C0.0697770107,3.22043743 0.424039938,2.65813208 1.00927734,2.1577337 Z M11.3425755,7.86315722 C11.3331248,7.83931013 11.3249485,7.81466801 11.3181483,7.78928962 C11.2228538,7.43364555 11.4339088,7.06808758 11.7895529,6.97279303 L14.3653551,6.28260891 C14.7209991,6.18731437 15.0865571,6.39836937 15.1818517,6.75401344 C15.1947028,6.80197464 15.2019826,6.85011613 15.2040876,6.89775077 C14.1335752,7.35062512 12.8124146,7.6875339 11.3425755,7.86315722 Z M2.79591239,1.10224923 C3.8664248,0.649374881 5.18758541,0.312466104 6.65742448,0.136842779 C6.66687521,0.160689866 6.67505153,0.185331994 6.68185165,0.210710384 C6.77714619,0.566354453 6.5660912,0.931912424 6.21044713,1.02720697 L3.63464493,1.71739109 C3.27900086,1.81268563 2.91344289,1.60163063 2.81814835,1.24598656 C2.80529718,1.19802536 2.79801744,1.14988387 2.79591239,1.10224923 Z M9.01640374,0.707162067 C8.74026137,0.707162067 8.51640374,0.607669789 8.51640374,0.484939844 C8.51640374,0.3622099 8.74026137,0.262717622 9.01640374,0.262717622 C9.29254612,0.262717622 9.51640374,0.3622099 9.51640374,0.484939844 C9.51640374,0.607669789 9.29254612,0.707162067 9.01640374,0.707162067 Z M9.01640374,7.81827318 C8.74026137,7.81827318 8.51640374,7.7187809 8.51640374,7.59605096 C8.51640374,7.47332101 8.74026137,7.37382873 9.01640374,7.37382873 C9.29254612,7.37382873 9.51640374,7.47332101 9.51640374,7.59605096 C9.51640374,7.7187809 9.29254612,7.81827318 9.01640374,7.81827318 Z M15.8334959,2.45516771 C15.5943496,2.31709652 15.4502293,2.11900487 15.5115943,2.01271762 C15.5729592,1.90643037 15.8165718,1.93219635 16.0557181,2.07026753 C16.2948644,2.20833872 16.4389846,2.40643037 16.3776197,2.51271762 C16.3162547,2.61900487 16.0726422,2.5932389 15.8334959,2.45516771 Z M1.9770894,6.01072327 C1.73794309,5.87265208 1.59382284,5.67456043 1.65518781,5.56827318 C1.71655278,5.46198593 1.96016531,5.4877519 2.19931163,5.62582309 C2.43845794,5.76389428 2.58257819,5.96198593 2.52121322,6.06827318 C2.45984824,6.17456043 2.21623571,6.14879445 1.9770894,6.01072327 Z M15.8334959,5.62582309 C16.0726422,5.4877519 16.3162547,5.46198593 16.3776197,5.56827318 C16.4389846,5.67456043 16.2948644,5.87265208 16.0557181,6.01072327 C15.8165718,6.14879445 15.5729592,6.17456043 15.5115943,6.06827318 C15.4502293,5.96198593 15.5943496,5.76389428 15.8334959,5.62582309 Z M1.9770894,2.07026753 C2.21623571,1.93219635 2.45984824,1.90643037 2.52121322,2.01271762 C2.58257819,2.11900487 2.43845794,2.31709652 2.19931163,2.45516771 C1.96016531,2.5932389 1.71655278,2.61900487 1.65518781,2.51271762 C1.59382284,2.40643037 1.73794309,2.20833872 1.9770894,2.07026753 Z" id="Combined-Shape" fill="#FFFFFF" mask="url(#mask-23)"></path>
                                    <ellipse id="Mask-Copy" fill-opacity="0.35" fill="#000000" mask="url(#mask-23)" cx="9" cy="4" rx="9" ry="4"></ellipse>
                                </g>
                            </g>
                            <g id="1000" transform="translate(0.000000, 9.000000)">
                                <g id="Combined-Shape-+-Combined-Shape-+-Combined-Shape-Mask">
                                    <mask id="mask-26" fill="white">
                                        <use xlink:href="#path-25"></use>
                                    </mask>
                                    <use id="Color" fill="#7C027F" xlink:href="#path-25"></use>
                                    <path d="M6.65716553,0.136873721 L6.65716553,6 L2.79681396,6 L2.79681396,1.10186787 C3.86710367,0.649212338 5.18784283,0.31245637 6.65716553,0.136873721 Z M15.2008057,1.10086151 L15.2008057,6 L11.3404541,6 L11.3404541,0.136589425 C12.8096415,0.311962701 14.1303602,0.648468871 15.2008057,1.10086151 Z" id="Combined-Shape" fill="#FFFFFF" mask="url(#mask-26)"></path>
                                    <path d="M17.5,6 L17,6 L17,2.16568797 C17.6390692,2.71512761 18,3.33883049 18,4 C18,4.6931283 18,5.35979497 18,6 L17.5,6 Z" id="Combined-Shape" fill="#FFFFFF" mask="url(#mask-26)"></path>
                                    <path d="M1,2.16568797 L1,6 L0,6 L0,0 L1,0 L1,2.16568797 C2.49622694,0.879307118 5.51706864,0 9,0 C13.9705627,0 18,1.790861 18,4 C18,4.6931283 18,5.35979497 18,6 L0,6 C0,6.139426 0,5.47275933 0,4 C0,3.33883049 0.360930799,2.71512761 1,2.16568797 L1,6 L0,6 L0,0 L1,0 L1,2.16568797 C2.49622694,0.879307118 5.51706864,0 9,0 C13.9705627,0 18,1.790861 18,4 C18,4.6931283 18,5.35979497 18,6 L1,6 Z" id="Combined-Shape" fill="#FFFFFF" mask="url(#mask-26)"></path>
                                </g>
                                <g id="Oval-8-Copy-+-Oval-8-Copy-2-+-Combined-Shape-Mask" filter="url(#filter-27)" transform="translate(0.000000, 2.000000)">
                                    <mask id="mask-29" fill="white">
                                        <use xlink:href="#path-28"></use>
                                    </mask>
                                    <use id="Color" fill="#7C027F" xlink:href="#path-28"></use>
                                    <g id="Oval-8-Copy" mask="url(#mask-29)">
                                        <use fill="#7C027F" xlink:href="#path-30"></use>
                                        <use fill-opacity="0.25" fill="#000000" xlink:href="#path-30"></use>
                                    </g>
                                    <ellipse id="Color" fill="#7C027F" mask="url(#mask-29)" cx="9" cy="4" rx="6" ry="2.66666667"></ellipse>
                                    <path d="M15.2040876,1.10224923 C15.2019826,1.14988387 15.1947028,1.19802536 15.1818517,1.24598656 C15.0865571,1.60163063 14.7209991,1.81268563 14.3653551,1.71739109 L11.7895529,1.02720697 C11.4339088,0.931912424 11.2228538,0.566354453 11.3181483,0.210710384 C11.3249485,0.185331994 11.3331248,0.160689866 11.3425755,0.136842779 C12.8124146,0.312466104 14.1335752,0.649374881 15.2040876,1.10224923 Z M6.65742448,7.86315722 C5.18758541,7.6875339 3.8664248,7.35062512 2.79591239,6.89775077 C2.79801744,6.85011613 2.80529718,6.80197464 2.81814835,6.75401344 C2.91344289,6.39836937 3.27900086,6.18731437 3.63464493,6.28260891 L6.21044713,6.97279303 C6.5660912,7.06808758 6.77714619,7.43364555 6.68185165,7.78928962 C6.67505153,7.81466801 6.66687521,7.83931013 6.65742448,7.86315722 Z M17.0074463,5.82789585 L17.0074463,2.17210415 C17.6418722,2.71998123 18,3.34140278 18,4 C18,4.65859722 17.6418722,5.28001877 17.0074463,5.82789585 Z M1.00927734,2.1577337 L1.00927734,5.8422663 C0.424039938,5.34186792 0.0697770107,4.77956257 0.00927734375,4.18325637 L0.00927734375,3.81674363 C0.0697770107,3.22043743 0.424039938,2.65813208 1.00927734,2.1577337 Z M11.3425755,7.86315722 C11.3331248,7.83931013 11.3249485,7.81466801 11.3181483,7.78928962 C11.2228538,7.43364555 11.4339088,7.06808758 11.7895529,6.97279303 L14.3653551,6.28260891 C14.7209991,6.18731437 15.0865571,6.39836937 15.1818517,6.75401344 C15.1947028,6.80197464 15.2019826,6.85011613 15.2040876,6.89775077 C14.1335752,7.35062512 12.8124146,7.6875339 11.3425755,7.86315722 Z M2.79591239,1.10224923 C3.8664248,0.649374881 5.18758541,0.312466104 6.65742448,0.136842779 C6.66687521,0.160689866 6.67505153,0.185331994 6.68185165,0.210710384 C6.77714619,0.566354453 6.5660912,0.931912424 6.21044713,1.02720697 L3.63464493,1.71739109 C3.27900086,1.81268563 2.91344289,1.60163063 2.81814835,1.24598656 C2.80529718,1.19802536 2.79801744,1.14988387 2.79591239,1.10224923 Z M9.01640374,0.707162067 C8.74026137,0.707162067 8.51640374,0.607669789 8.51640374,0.484939844 C8.51640374,0.3622099 8.74026137,0.262717622 9.01640374,0.262717622 C9.29254612,0.262717622 9.51640374,0.3622099 9.51640374,0.484939844 C9.51640374,0.607669789 9.29254612,0.707162067 9.01640374,0.707162067 Z M9.01640374,7.81827318 C8.74026137,7.81827318 8.51640374,7.7187809 8.51640374,7.59605096 C8.51640374,7.47332101 8.74026137,7.37382873 9.01640374,7.37382873 C9.29254612,7.37382873 9.51640374,7.47332101 9.51640374,7.59605096 C9.51640374,7.7187809 9.29254612,7.81827318 9.01640374,7.81827318 Z M15.8334959,2.45516771 C15.5943496,2.31709652 15.4502293,2.11900487 15.5115943,2.01271762 C15.5729592,1.90643037 15.8165718,1.93219635 16.0557181,2.07026753 C16.2948644,2.20833872 16.4389846,2.40643037 16.3776197,2.51271762 C16.3162547,2.61900487 16.0726422,2.5932389 15.8334959,2.45516771 Z M1.9770894,6.01072327 C1.73794309,5.87265208 1.59382284,5.67456043 1.65518781,5.56827318 C1.71655278,5.46198593 1.96016531,5.4877519 2.19931163,5.62582309 C2.43845794,5.76389428 2.58257819,5.96198593 2.52121322,6.06827318 C2.45984824,6.17456043 2.21623571,6.14879445 1.9770894,6.01072327 Z M15.8334959,5.62582309 C16.0726422,5.4877519 16.3162547,5.46198593 16.3776197,5.56827318 C16.4389846,5.67456043 16.2948644,5.87265208 16.0557181,6.01072327 C15.8165718,6.14879445 15.5729592,6.17456043 15.5115943,6.06827318 C15.4502293,5.96198593 15.5943496,5.76389428 15.8334959,5.62582309 Z M1.9770894,2.07026753 C2.21623571,1.93219635 2.45984824,1.90643037 2.52121322,2.01271762 C2.58257819,2.11900487 2.43845794,2.31709652 2.19931163,2.45516771 C1.96016531,2.5932389 1.71655278,2.61900487 1.65518781,2.51271762 C1.59382284,2.40643037 1.73794309,2.20833872 1.9770894,2.07026753 Z" id="Combined-Shape" fill="#FFFFFF" mask="url(#mask-29)"></path>
                                    <ellipse id="Mask-Copy" fill-opacity="0.35" fill="#000000" mask="url(#mask-29)" cx="9" cy="4" rx="9" ry="4"></ellipse>
                                </g>
                            </g>
                            <g id="1000" transform="translate(0.000000, 11.000000)">
                                <g id="Combined-Shape-+-Combined-Shape-+-Combined-Shape-Mask">
                                    <mask id="mask-32" fill="white">
                                        <use xlink:href="#path-31"></use>
                                    </mask>
                                    <use id="Color" fill="#7C027F" xlink:href="#path-31"></use>
                                    <path d="M6.65716553,0.136873721 L6.65716553,6 L2.79681396,6 L2.79681396,1.10186787 C3.86710367,0.649212338 5.18784283,0.31245637 6.65716553,0.136873721 Z M15.2008057,1.10086151 L15.2008057,6 L11.3404541,6 L11.3404541,0.136589425 C12.8096415,0.311962701 14.1303602,0.648468871 15.2008057,1.10086151 Z" id="Combined-Shape" fill="#FFFFFF" mask="url(#mask-32)"></path>
                                    <path d="M17.5,6 L17,6 L17,2.16568797 C17.6390692,2.71512761 18,3.33883049 18,4 C18,4.6931283 18,5.35979497 18,6 L17.5,6 Z" id="Combined-Shape" fill="#FFFFFF" mask="url(#mask-32)"></path>
                                    <path d="M1,2.16568797 L1,6 L0,6 L0,0 L1,0 L1,2.16568797 C2.49622694,0.879307118 5.51706864,0 9,0 C13.9705627,0 18,1.790861 18,4 C18,4.6931283 18,5.35979497 18,6 L0,6 C0,6.139426 0,5.47275933 0,4 C0,3.33883049 0.360930799,2.71512761 1,2.16568797 L1,6 L0,6 L0,0 L1,0 L1,2.16568797 C2.49622694,0.879307118 5.51706864,0 9,0 C13.9705627,0 18,1.790861 18,4 C18,4.6931283 18,5.35979497 18,6 L1,6 Z" id="Combined-Shape" fill="#FFFFFF" mask="url(#mask-32)"></path>
                                </g>
                                <g id="Oval-8-Copy-+-Oval-8-Copy-2-+-Combined-Shape-Mask" filter="url(#filter-33)" transform="translate(0.000000, 2.000000)">
                                    <mask id="mask-35" fill="white">
                                        <use xlink:href="#path-34"></use>
                                    </mask>
                                    <use id="Color" fill="#7C027F" xlink:href="#path-34"></use>
                                    <g id="Oval-8-Copy" mask="url(#mask-35)">
                                        <use fill="#7C027F" xlink:href="#path-36"></use>
                                        <use fill-opacity="0.25" fill="#000000" xlink:href="#path-36"></use>
                                    </g>
                                    <ellipse id="Color" fill="#7C027F" mask="url(#mask-35)" cx="9" cy="4" rx="6" ry="2.66666667"></ellipse>
                                    <path d="M15.2040876,1.10224923 C15.2019826,1.14988387 15.1947028,1.19802536 15.1818517,1.24598656 C15.0865571,1.60163063 14.7209991,1.81268563 14.3653551,1.71739109 L11.7895529,1.02720697 C11.4339088,0.931912424 11.2228538,0.566354453 11.3181483,0.210710384 C11.3249485,0.185331994 11.3331248,0.160689866 11.3425755,0.136842779 C12.8124146,0.312466104 14.1335752,0.649374881 15.2040876,1.10224923 Z M6.65742448,7.86315722 C5.18758541,7.6875339 3.8664248,7.35062512 2.79591239,6.89775077 C2.79801744,6.85011613 2.80529718,6.80197464 2.81814835,6.75401344 C2.91344289,6.39836937 3.27900086,6.18731437 3.63464493,6.28260891 L6.21044713,6.97279303 C6.5660912,7.06808758 6.77714619,7.43364555 6.68185165,7.78928962 C6.67505153,7.81466801 6.66687521,7.83931013 6.65742448,7.86315722 Z M17.0074463,5.82789585 L17.0074463,2.17210415 C17.6418722,2.71998123 18,3.34140278 18,4 C18,4.65859722 17.6418722,5.28001877 17.0074463,5.82789585 Z M1.00927734,2.1577337 L1.00927734,5.8422663 C0.424039938,5.34186792 0.0697770107,4.77956257 0.00927734375,4.18325637 L0.00927734375,3.81674363 C0.0697770107,3.22043743 0.424039938,2.65813208 1.00927734,2.1577337 Z M11.3425755,7.86315722 C11.3331248,7.83931013 11.3249485,7.81466801 11.3181483,7.78928962 C11.2228538,7.43364555 11.4339088,7.06808758 11.7895529,6.97279303 L14.3653551,6.28260891 C14.7209991,6.18731437 15.0865571,6.39836937 15.1818517,6.75401344 C15.1947028,6.80197464 15.2019826,6.85011613 15.2040876,6.89775077 C14.1335752,7.35062512 12.8124146,7.6875339 11.3425755,7.86315722 Z M2.79591239,1.10224923 C3.8664248,0.649374881 5.18758541,0.312466104 6.65742448,0.136842779 C6.66687521,0.160689866 6.67505153,0.185331994 6.68185165,0.210710384 C6.77714619,0.566354453 6.5660912,0.931912424 6.21044713,1.02720697 L3.63464493,1.71739109 C3.27900086,1.81268563 2.91344289,1.60163063 2.81814835,1.24598656 C2.80529718,1.19802536 2.79801744,1.14988387 2.79591239,1.10224923 Z M9.01640374,0.707162067 C8.74026137,0.707162067 8.51640374,0.607669789 8.51640374,0.484939844 C8.51640374,0.3622099 8.74026137,0.262717622 9.01640374,0.262717622 C9.29254612,0.262717622 9.51640374,0.3622099 9.51640374,0.484939844 C9.51640374,0.607669789 9.29254612,0.707162067 9.01640374,0.707162067 Z M9.01640374,7.81827318 C8.74026137,7.81827318 8.51640374,7.7187809 8.51640374,7.59605096 C8.51640374,7.47332101 8.74026137,7.37382873 9.01640374,7.37382873 C9.29254612,7.37382873 9.51640374,7.47332101 9.51640374,7.59605096 C9.51640374,7.7187809 9.29254612,7.81827318 9.01640374,7.81827318 Z M15.8334959,2.45516771 C15.5943496,2.31709652 15.4502293,2.11900487 15.5115943,2.01271762 C15.5729592,1.90643037 15.8165718,1.93219635 16.0557181,2.07026753 C16.2948644,2.20833872 16.4389846,2.40643037 16.3776197,2.51271762 C16.3162547,2.61900487 16.0726422,2.5932389 15.8334959,2.45516771 Z M1.9770894,6.01072327 C1.73794309,5.87265208 1.59382284,5.67456043 1.65518781,5.56827318 C1.71655278,5.46198593 1.96016531,5.4877519 2.19931163,5.62582309 C2.43845794,5.76389428 2.58257819,5.96198593 2.52121322,6.06827318 C2.45984824,6.17456043 2.21623571,6.14879445 1.9770894,6.01072327 Z M15.8334959,5.62582309 C16.0726422,5.4877519 16.3162547,5.46198593 16.3776197,5.56827318 C16.4389846,5.67456043 16.2948644,5.87265208 16.0557181,6.01072327 C15.8165718,6.14879445 15.5729592,6.17456043 15.5115943,6.06827318 C15.4502293,5.96198593 15.5943496,5.76389428 15.8334959,5.62582309 Z M1.9770894,2.07026753 C2.21623571,1.93219635 2.45984824,1.90643037 2.52121322,2.01271762 C2.58257819,2.11900487 2.43845794,2.31709652 2.19931163,2.45516771 C1.96016531,2.5932389 1.71655278,2.61900487 1.65518781,2.51271762 C1.59382284,2.40643037 1.73794309,2.20833872 1.9770894,2.07026753 Z" id="Combined-Shape" fill="#FFFFFF" mask="url(#mask-35)"></path>
                                    <ellipse id="Mask-Copy" fill-opacity="0.35" fill="#000000" mask="url(#mask-35)" cx="9" cy="4" rx="9" ry="4"></ellipse>
                                </g>
                            </g>
                            <g id="1000" transform="translate(0.000000, 13.000000)">
                                <g id="Combined-Shape-+-Combined-Shape-+-Combined-Shape-Mask">
                                    <mask id="mask-38" fill="white">
                                        <use xlink:href="#path-37"></use>
                                    </mask>
                                    <use id="Color" fill="#7C027F" xlink:href="#path-37"></use>
                                    <path d="M6.65716553,0.136873721 L6.65716553,6 L2.79681396,6 L2.79681396,1.10186787 C3.86710367,0.649212338 5.18784283,0.31245637 6.65716553,0.136873721 Z M15.2008057,1.10086151 L15.2008057,6 L11.3404541,6 L11.3404541,0.136589425 C12.8096415,0.311962701 14.1303602,0.648468871 15.2008057,1.10086151 Z" id="Combined-Shape" fill="#FFFFFF" mask="url(#mask-38)"></path>
                                    <path d="M17.5,6 L17,6 L17,2.16568797 C17.6390692,2.71512761 18,3.33883049 18,4 C18,4.6931283 18,5.35979497 18,6 L17.5,6 Z" id="Combined-Shape" fill="#FFFFFF" mask="url(#mask-38)"></path>
                                    <path d="M1,2.16568797 L1,6 L0,6 L0,0 L1,0 L1,2.16568797 C2.49622694,0.879307118 5.51706864,0 9,0 C13.9705627,0 18,1.790861 18,4 C18,4.6931283 18,5.35979497 18,6 L0,6 C0,6.139426 0,5.47275933 0,4 C0,3.33883049 0.360930799,2.71512761 1,2.16568797 L1,6 L0,6 L0,0 L1,0 L1,2.16568797 C2.49622694,0.879307118 5.51706864,0 9,0 C13.9705627,0 18,1.790861 18,4 C18,4.6931283 18,5.35979497 18,6 L1,6 Z" id="Combined-Shape" fill="#FFFFFF" mask="url(#mask-38)"></path>
                                </g>
                                <g id="Oval-8-Copy-+-Oval-8-Copy-2-+-Combined-Shape-Mask" filter="url(#filter-39)" transform="translate(0.000000, 2.000000)">
                                    <mask id="mask-41" fill="white">
                                        <use xlink:href="#path-40"></use>
                                    </mask>
                                    <use id="Color" fill="#7C027F" xlink:href="#path-40"></use>
                                    <g id="Oval-8-Copy" mask="url(#mask-41)">
                                        <use fill="#7C027F" xlink:href="#path-42"></use>
                                        <use fill-opacity="0.25" fill="#000000" xlink:href="#path-42"></use>
                                    </g>
                                    <ellipse id="Color" fill="#7C027F" mask="url(#mask-41)" cx="9" cy="4" rx="6" ry="2.66666667"></ellipse>
                                    <path d="M15.2040876,1.10224923 C15.2019826,1.14988387 15.1947028,1.19802536 15.1818517,1.24598656 C15.0865571,1.60163063 14.7209991,1.81268563 14.3653551,1.71739109 L11.7895529,1.02720697 C11.4339088,0.931912424 11.2228538,0.566354453 11.3181483,0.210710384 C11.3249485,0.185331994 11.3331248,0.160689866 11.3425755,0.136842779 C12.8124146,0.312466104 14.1335752,0.649374881 15.2040876,1.10224923 Z M6.65742448,7.86315722 C5.18758541,7.6875339 3.8664248,7.35062512 2.79591239,6.89775077 C2.79801744,6.85011613 2.80529718,6.80197464 2.81814835,6.75401344 C2.91344289,6.39836937 3.27900086,6.18731437 3.63464493,6.28260891 L6.21044713,6.97279303 C6.5660912,7.06808758 6.77714619,7.43364555 6.68185165,7.78928962 C6.67505153,7.81466801 6.66687521,7.83931013 6.65742448,7.86315722 Z M17.0074463,5.82789585 L17.0074463,2.17210415 C17.6418722,2.71998123 18,3.34140278 18,4 C18,4.65859722 17.6418722,5.28001877 17.0074463,5.82789585 Z M1.00927734,2.1577337 L1.00927734,5.8422663 C0.424039938,5.34186792 0.0697770107,4.77956257 0.00927734375,4.18325637 L0.00927734375,3.81674363 C0.0697770107,3.22043743 0.424039938,2.65813208 1.00927734,2.1577337 Z M11.3425755,7.86315722 C11.3331248,7.83931013 11.3249485,7.81466801 11.3181483,7.78928962 C11.2228538,7.43364555 11.4339088,7.06808758 11.7895529,6.97279303 L14.3653551,6.28260891 C14.7209991,6.18731437 15.0865571,6.39836937 15.1818517,6.75401344 C15.1947028,6.80197464 15.2019826,6.85011613 15.2040876,6.89775077 C14.1335752,7.35062512 12.8124146,7.6875339 11.3425755,7.86315722 Z M2.79591239,1.10224923 C3.8664248,0.649374881 5.18758541,0.312466104 6.65742448,0.136842779 C6.66687521,0.160689866 6.67505153,0.185331994 6.68185165,0.210710384 C6.77714619,0.566354453 6.5660912,0.931912424 6.21044713,1.02720697 L3.63464493,1.71739109 C3.27900086,1.81268563 2.91344289,1.60163063 2.81814835,1.24598656 C2.80529718,1.19802536 2.79801744,1.14988387 2.79591239,1.10224923 Z M9.01640374,0.707162067 C8.74026137,0.707162067 8.51640374,0.607669789 8.51640374,0.484939844 C8.51640374,0.3622099 8.74026137,0.262717622 9.01640374,0.262717622 C9.29254612,0.262717622 9.51640374,0.3622099 9.51640374,0.484939844 C9.51640374,0.607669789 9.29254612,0.707162067 9.01640374,0.707162067 Z M9.01640374,7.81827318 C8.74026137,7.81827318 8.51640374,7.7187809 8.51640374,7.59605096 C8.51640374,7.47332101 8.74026137,7.37382873 9.01640374,7.37382873 C9.29254612,7.37382873 9.51640374,7.47332101 9.51640374,7.59605096 C9.51640374,7.7187809 9.29254612,7.81827318 9.01640374,7.81827318 Z M15.8334959,2.45516771 C15.5943496,2.31709652 15.4502293,2.11900487 15.5115943,2.01271762 C15.5729592,1.90643037 15.8165718,1.93219635 16.0557181,2.07026753 C16.2948644,2.20833872 16.4389846,2.40643037 16.3776197,2.51271762 C16.3162547,2.61900487 16.0726422,2.5932389 15.8334959,2.45516771 Z M1.9770894,6.01072327 C1.73794309,5.87265208 1.59382284,5.67456043 1.65518781,5.56827318 C1.71655278,5.46198593 1.96016531,5.4877519 2.19931163,5.62582309 C2.43845794,5.76389428 2.58257819,5.96198593 2.52121322,6.06827318 C2.45984824,6.17456043 2.21623571,6.14879445 1.9770894,6.01072327 Z M15.8334959,5.62582309 C16.0726422,5.4877519 16.3162547,5.46198593 16.3776197,5.56827318 C16.4389846,5.67456043 16.2948644,5.87265208 16.0557181,6.01072327 C15.8165718,6.14879445 15.5729592,6.17456043 15.5115943,6.06827318 C15.4502293,5.96198593 15.5943496,5.76389428 15.8334959,5.62582309 Z M1.9770894,2.07026753 C2.21623571,1.93219635 2.45984824,1.90643037 2.52121322,2.01271762 C2.58257819,2.11900487 2.43845794,2.31709652 2.19931163,2.45516771 C1.96016531,2.5932389 1.71655278,2.61900487 1.65518781,2.51271762 C1.59382284,2.40643037 1.73794309,2.20833872 1.9770894,2.07026753 Z" id="Combined-Shape" fill="#FFFFFF" mask="url(#mask-41)"></path>
                                    <ellipse id="Mask-Copy" fill-opacity="0.35" fill="#000000" mask="url(#mask-41)" cx="9" cy="4" rx="9" ry="4"></ellipse>
                                </g>
                            </g>
                        </g>
                    </g>
                </g>
            </g>
        </g>
    </g>
</svg>