<?xml version="1.0" encoding="UTF-8"?>
<svg width="22px" height="26px" viewBox="0 0 22 26" version="1.1" xmlns="http://www.w3.org/2000/svg" xmlns:xlink="http://www.w3.org/1999/xlink">
    <!-- Generator: Sketch 53.2 (72643) - https://sketchapp.com -->
    <title>Group 9</title>
    <desc>Created with Sketch.</desc>
    <defs>
        <circle id="path-1" cx="9" cy="9" r="9"></circle>
        <filter x="-19.4%" y="-13.9%" width="138.9%" height="138.9%" filterUnits="objectBoundingBox" id="filter-3">
            <feOffset dx="0" dy="1" in="SourceAlpha" result="shadowOffsetOuter1"></feOffset>
            <feGaussianBlur stdDeviation="1" in="shadowOffsetOuter1" result="shadowBlurOuter1"></feGaussianBlur>
            <feColorMatrix values="0 0 0 0 0.062745098   0 0 0 0 0.149019608   0 0 0 0 0.2  0 0 0 0.35 0" type="matrix" in="shadowBlurOuter1"></feColorMatrix>
        </filter>
        <circle id="path-4" cx="9" cy="9" r="9"></circle>
        <circle id="path-6" cx="9" cy="9" r="7"></circle>
        <circle id="path-7" cx="9" cy="9" r="9"></circle>
        <filter x="-19.4%" y="-13.9%" width="138.9%" height="138.9%" filterUnits="objectBoundingBox" id="filter-9">
            <feOffset dx="0" dy="1" in="SourceAlpha" result="shadowOffsetOuter1"></feOffset>
            <feGaussianBlur stdDeviation="1" in="shadowOffsetOuter1" result="shadowBlurOuter1"></feGaussianBlur>
            <feColorMatrix values="0 0 0 0 0.062745098   0 0 0 0 0.149019608   0 0 0 0 0.2  0 0 0 0.35 0" type="matrix" in="shadowBlurOuter1"></feColorMatrix>
        </filter>
        <circle id="path-10" cx="9" cy="9" r="9"></circle>
        <circle id="path-12" cx="9" cy="9" r="7"></circle>
        <circle id="path-13" cx="9" cy="9" r="9"></circle>
        <filter x="-19.4%" y="-13.9%" width="138.9%" height="138.9%" filterUnits="objectBoundingBox" id="filter-15">
            <feOffset dx="0" dy="1" in="SourceAlpha" result="shadowOffsetOuter1"></feOffset>
            <feGaussianBlur stdDeviation="1" in="shadowOffsetOuter1" result="shadowBlurOuter1"></feGaussianBlur>
            <feColorMatrix values="0 0 0 0 0.062745098   0 0 0 0 0.149019608   0 0 0 0 0.2  0 0 0 0.35 0" type="matrix" in="shadowBlurOuter1"></feColorMatrix>
        </filter>
        <circle id="path-16" cx="9" cy="9" r="9"></circle>
        <circle id="path-18" cx="9" cy="9" r="7"></circle>
        <circle id="path-19" cx="9" cy="9" r="9"></circle>
        <filter x="-19.4%" y="-13.9%" width="138.9%" height="138.9%" filterUnits="objectBoundingBox" id="filter-21">
            <feOffset dx="0" dy="1" in="SourceAlpha" result="shadowOffsetOuter1"></feOffset>
            <feGaussianBlur stdDeviation="1" in="shadowOffsetOuter1" result="shadowBlurOuter1"></feGaussianBlur>
            <feColorMatrix values="0 0 0 0 0.062745098   0 0 0 0 0.149019608   0 0 0 0 0.2  0 0 0 0.35 0" type="matrix" in="shadowBlurOuter1"></feColorMatrix>
        </filter>
        <circle id="path-22" cx="9" cy="9" r="9"></circle>
        <circle id="path-24" cx="9" cy="9" r="7"></circle>
        <circle id="path-25" cx="9" cy="9" r="9"></circle>
        <filter x="-19.4%" y="-13.9%" width="138.9%" height="138.9%" filterUnits="objectBoundingBox" id="filter-27">
            <feOffset dx="0" dy="1" in="SourceAlpha" result="shadowOffsetOuter1"></feOffset>
            <feGaussianBlur stdDeviation="1" in="shadowOffsetOuter1" result="shadowBlurOuter1"></feGaussianBlur>
            <feColorMatrix values="0 0 0 0 0.062745098   0 0 0 0 0.149019608   0 0 0 0 0.2  0 0 0 0.35 0" type="matrix" in="shadowBlurOuter1"></feColorMatrix>
        </filter>
        <circle id="path-28" cx="9" cy="9" r="9"></circle>
    </defs>
    <g id="Desktop" stroke="none" stroke-width="1" fill="none" fill-rule="evenodd">
        <g id="Poker-1440-3" transform="translate(-699.000000, -545.000000)">
            <g id="Group-6" transform="translate(273.000000, 109.000000)">
                <g id="Chips" transform="translate(408.000000, 433.000000)">
                    <g id="Group-9">
                        <g transform="translate(20.000000, 3.000000)">
                            <g id="Chip-red" transform="translate(0.000000, 4.000000)">
                                <g id="Rectangle-12" transform="translate(0.000000, 1.000000)">
                                    <mask id="mask-2" fill="white">
                                        <use xlink:href="#path-1"></use>
                                    </mask>
                                    <g id="Mask">
                                        <use fill="black" fill-opacity="1" filter="url(#filter-3)" xlink:href="#path-1"></use>
                                        <use fill="#D7383A" fill-rule="evenodd" xlink:href="#path-1"></use>
                                    </g>
                                    <polygon fill="#FFFFFF" mask="url(#mask-2)" points="0 8 0.220230103 8 0.220230103 11.1244354 -1.11022302e-16 11.1244354"></polygon>
                                    <polygon id="Rectangle-12-Copy-3" fill="#FFFFFF" mask="url(#mask-2)" transform="translate(17.500000, 9.562218) scale(-1, 1) translate(-17.500000, -9.562218) " points="17 8 17.2202301 8 17.2202301 11.1244354 17 11.1244354"></polygon>
                                    <polygon id="Rectangle-12-Copy" fill="#FFFFFF" mask="url(#mask-2)" points="2.8815918 14 6.3430481 15.0938721 6.3430481 17.8685913 2.8815918 16.7747192"></polygon>
                                    <polygon id="Rectangle-12-Copy-2" fill="#FFFFFF" mask="url(#mask-2)" transform="translate(13.389603, 15.966034) scale(-1, 1) translate(-13.389603, -15.966034) " points="11.6588745 14.0317383 15.1203308 15.1256104 15.1203308 17.9003296 11.6588745 16.8064575"></polygon>
                                    <mask id="mask-5" fill="white">
                                        <use xlink:href="#path-4"></use>
                                    </mask>
                                    <use id="Mask-Copy-3" fill-opacity="0.5" fill="#000000" xlink:href="#path-4"></use>
                                </g>
                                <circle id="Oval-8" fill="#D7383A" cx="9" cy="9" r="9"></circle>
                                <g id="Oval-8-Copy">
                                    <use fill="#D7383A" xlink:href="#path-6"></use>
                                    <use fill-opacity="0.25" fill="#000000" xlink:href="#path-6"></use>
                                </g>
                                <circle id="Oval-8-Copy-2" fill="#D7383A" cx="9" cy="9" r="6"></circle>
                                <path d="M15.1195534,2.40062262 L14.7320508,3.07179677 C14.4559084,3.55008939 13.844318,3.71396455 13.3660254,3.43782217 L11.6339746,2.43782217 C11.155682,2.1616798 10.9918068,1.55008939 11.2679492,1.07179677 L11.6566596,0.398530568 C12.9628494,0.801497019 14.1420981,1.49381184 15.1195534,2.40062262 Z M6.34334038,17.6014694 C5.03715061,17.198503 3.85790188,16.5061882 2.88044662,15.5993774 L3.26794919,14.9282032 C3.54409157,14.4499106 4.15568197,14.2860355 4.6339746,14.5621778 L6.3660254,15.5621778 C6.84431803,15.8383202 7.00819318,16.4499106 6.73205081,16.9282032 L6.34334038,17.6014694 Z M17.7769836,11 L17,11 C16.4477153,11 16,10.5522847 16,10 L16,8 C16,7.44771525 16.4477153,7 17,7 L17.7769836,7 C17.9229386,7.64322274 18,8.31261204 18,9 C18,9.68738796 17.9229386,10.3567773 17.7769836,11 Z M0.223016424,11 C0.0770614401,10.3567773 0,9.68738796 0,9 C0,8.31261204 0.0770614401,7.64322274 0.223016424,7 L1,7 C1.55228475,7 2,7.44771525 2,8 L2,10 C2,10.5522847 1.55228475,11 1,11 L0.223016424,11 Z M11.6566596,17.6014694 L11.2679492,16.9282032 C10.9918068,16.4499106 11.155682,15.8383202 11.6339746,15.5621778 L13.3660254,14.5621778 C13.844318,14.2860355 14.4559084,14.4499106 14.7320508,14.9282032 L15.1195534,15.5993774 C14.1420981,16.5061882 12.9628494,17.198503 11.6566596,17.6014694 Z M2.88044662,2.40062262 C3.85790188,1.49381184 5.03715061,0.801497019 6.34334038,0.398530568 L6.73205081,1.07179677 C7.00819318,1.55008939 6.84431803,2.1616798 6.3660254,2.43782217 L4.6339746,3.43782217 C4.15568197,3.71396455 3.54409157,3.55008939 3.26794919,3.07179677 L2.88044662,2.40062262 Z M9.01640374,1.59111465 C8.74026137,1.59111465 8.51640374,1.36725702 8.51640374,1.09111465 C8.51640374,0.814972275 8.74026137,0.59111465 9.01640374,0.59111465 C9.29254612,0.59111465 9.51640374,0.814972275 9.51640374,1.09111465 C9.51640374,1.36725702 9.29254612,1.59111465 9.01640374,1.59111465 Z M9.01640374,17.5911146 C8.74026137,17.5911146 8.51640374,17.367257 8.51640374,17.0911146 C8.51640374,16.8149723 8.74026137,16.5911146 9.01640374,16.5911146 C9.29254612,16.5911146 9.51640374,16.8149723 9.51640374,17.0911146 C9.51640374,17.367257 9.29254612,17.5911146 9.01640374,17.5911146 Z M15.5115943,5.34111465 C15.3735231,5.10196834 15.4554607,4.79617314 15.694607,4.65810195 C15.9337533,4.52003076 16.2395485,4.60196834 16.3776197,4.84111465 C16.5156909,5.08026096 16.4337533,5.38605616 16.194607,5.52412735 C15.9554607,5.66219854 15.6496655,5.58026096 15.5115943,5.34111465 Z M1.65518781,13.3411146 C1.51711662,13.1019683 1.5990542,12.7961731 1.83820051,12.6581019 C2.07734683,12.5200308 2.38314203,12.6019683 2.52121322,12.8411146 C2.6592844,13.080261 2.57734683,13.3860562 2.33820051,13.5241274 C2.0990542,13.6621985 1.793259,13.580261 1.65518781,13.3411146 Z M15.5115943,12.8411146 C15.6496655,12.6019683 15.9554607,12.5200308 16.194607,12.6581019 C16.4337533,12.7961731 16.5156909,13.1019683 16.3776197,13.3411146 C16.2395485,13.580261 15.9337533,13.6621985 15.694607,13.5241274 C15.4554607,13.3860562 15.3735231,13.080261 15.5115943,12.8411146 Z M1.65518781,4.84111465 C1.793259,4.60196834 2.0990542,4.52003076 2.33820051,4.65810195 C2.57734683,4.79617314 2.6592844,5.10196834 2.52121322,5.34111465 C2.38314203,5.58026096 2.07734683,5.66219854 1.83820051,5.52412735 C1.5990542,5.38605616 1.51711662,5.08026096 1.65518781,4.84111465 Z" id="Combined-Shape" fill="#FFFFFF"></path>
                            </g>
                            <g id="Chip-red" transform="translate(0.000000, 3.000000)">
                                <g id="Rectangle-12" transform="translate(0.000000, 1.000000)">
                                    <mask id="mask-8" fill="white">
                                        <use xlink:href="#path-7"></use>
                                    </mask>
                                    <g id="Mask">
                                        <use fill="black" fill-opacity="1" filter="url(#filter-9)" xlink:href="#path-7"></use>
                                        <use fill="#D7383A" fill-rule="evenodd" xlink:href="#path-7"></use>
                                    </g>
                                    <polygon fill="#FFFFFF" mask="url(#mask-8)" points="0 8 0.220230103 8 0.220230103 11.1244354 -1.11022302e-16 11.1244354"></polygon>
                                    <polygon id="Rectangle-12-Copy-3" fill="#FFFFFF" mask="url(#mask-8)" transform="translate(17.500000, 9.562218) scale(-1, 1) translate(-17.500000, -9.562218) " points="17 8 17.2202301 8 17.2202301 11.1244354 17 11.1244354"></polygon>
                                    <polygon id="Rectangle-12-Copy" fill="#FFFFFF" mask="url(#mask-8)" points="2.8815918 14 6.3430481 15.0938721 6.3430481 17.8685913 2.8815918 16.7747192"></polygon>
                                    <polygon id="Rectangle-12-Copy-2" fill="#FFFFFF" mask="url(#mask-8)" transform="translate(13.389603, 15.966034) scale(-1, 1) translate(-13.389603, -15.966034) " points="11.6588745 14.0317383 15.1203308 15.1256104 15.1203308 17.9003296 11.6588745 16.8064575"></polygon>
                                    <mask id="mask-11" fill="white">
                                        <use xlink:href="#path-10"></use>
                                    </mask>
                                    <use id="Mask-Copy-3" fill-opacity="0.5" fill="#000000" xlink:href="#path-10"></use>
                                </g>
                                <circle id="Oval-8" fill="#D7383A" cx="9" cy="9" r="9"></circle>
                                <g id="Oval-8-Copy">
                                    <use fill="#D7383A" xlink:href="#path-12"></use>
                                    <use fill-opacity="0.25" fill="#000000" xlink:href="#path-12"></use>
                                </g>
                                <circle id="Oval-8-Copy-2" fill="#D7383A" cx="9" cy="9" r="6"></circle>
                                <path d="M15.1195534,2.40062262 L14.7320508,3.07179677 C14.4559084,3.55008939 13.844318,3.71396455 13.3660254,3.43782217 L11.6339746,2.43782217 C11.155682,2.1616798 10.9918068,1.55008939 11.2679492,1.07179677 L11.6566596,0.398530568 C12.9628494,0.801497019 14.1420981,1.49381184 15.1195534,2.40062262 Z M6.34334038,17.6014694 C5.03715061,17.198503 3.85790188,16.5061882 2.88044662,15.5993774 L3.26794919,14.9282032 C3.54409157,14.4499106 4.15568197,14.2860355 4.6339746,14.5621778 L6.3660254,15.5621778 C6.84431803,15.8383202 7.00819318,16.4499106 6.73205081,16.9282032 L6.34334038,17.6014694 Z M17.7769836,11 L17,11 C16.4477153,11 16,10.5522847 16,10 L16,8 C16,7.44771525 16.4477153,7 17,7 L17.7769836,7 C17.9229386,7.64322274 18,8.31261204 18,9 C18,9.68738796 17.9229386,10.3567773 17.7769836,11 Z M0.223016424,11 C0.0770614401,10.3567773 0,9.68738796 0,9 C0,8.31261204 0.0770614401,7.64322274 0.223016424,7 L1,7 C1.55228475,7 2,7.44771525 2,8 L2,10 C2,10.5522847 1.55228475,11 1,11 L0.223016424,11 Z M11.6566596,17.6014694 L11.2679492,16.9282032 C10.9918068,16.4499106 11.155682,15.8383202 11.6339746,15.5621778 L13.3660254,14.5621778 C13.844318,14.2860355 14.4559084,14.4499106 14.7320508,14.9282032 L15.1195534,15.5993774 C14.1420981,16.5061882 12.9628494,17.198503 11.6566596,17.6014694 Z M2.88044662,2.40062262 C3.85790188,1.49381184 5.03715061,0.801497019 6.34334038,0.398530568 L6.73205081,1.07179677 C7.00819318,1.55008939 6.84431803,2.1616798 6.3660254,2.43782217 L4.6339746,3.43782217 C4.15568197,3.71396455 3.54409157,3.55008939 3.26794919,3.07179677 L2.88044662,2.40062262 Z M9.01640374,1.59111465 C8.74026137,1.59111465 8.51640374,1.36725702 8.51640374,1.09111465 C8.51640374,0.814972275 8.74026137,0.59111465 9.01640374,0.59111465 C9.29254612,0.59111465 9.51640374,0.814972275 9.51640374,1.09111465 C9.51640374,1.36725702 9.29254612,1.59111465 9.01640374,1.59111465 Z M9.01640374,17.5911146 C8.74026137,17.5911146 8.51640374,17.367257 8.51640374,17.0911146 C8.51640374,16.8149723 8.74026137,16.5911146 9.01640374,16.5911146 C9.29254612,16.5911146 9.51640374,16.8149723 9.51640374,17.0911146 C9.51640374,17.367257 9.29254612,17.5911146 9.01640374,17.5911146 Z M15.5115943,5.34111465 C15.3735231,5.10196834 15.4554607,4.79617314 15.694607,4.65810195 C15.9337533,4.52003076 16.2395485,4.60196834 16.3776197,4.84111465 C16.5156909,5.08026096 16.4337533,5.38605616 16.194607,5.52412735 C15.9554607,5.66219854 15.6496655,5.58026096 15.5115943,5.34111465 Z M1.65518781,13.3411146 C1.51711662,13.1019683 1.5990542,12.7961731 1.83820051,12.6581019 C2.07734683,12.5200308 2.38314203,12.6019683 2.52121322,12.8411146 C2.6592844,13.080261 2.57734683,13.3860562 2.33820051,13.5241274 C2.0990542,13.6621985 1.793259,13.580261 1.65518781,13.3411146 Z M15.5115943,12.8411146 C15.6496655,12.6019683 15.9554607,12.5200308 16.194607,12.6581019 C16.4337533,12.7961731 16.5156909,13.1019683 16.3776197,13.3411146 C16.2395485,13.580261 15.9337533,13.6621985 15.694607,13.5241274 C15.4554607,13.3860562 15.3735231,13.080261 15.5115943,12.8411146 Z M1.65518781,4.84111465 C1.793259,4.60196834 2.0990542,4.52003076 2.33820051,4.65810195 C2.57734683,4.79617314 2.6592844,5.10196834 2.52121322,5.34111465 C2.38314203,5.58026096 2.07734683,5.66219854 1.83820051,5.52412735 C1.5990542,5.38605616 1.51711662,5.08026096 1.65518781,4.84111465 Z" id="Combined-Shape" fill="#FFFFFF"></path>
                            </g>
                            <g id="Chip-red" transform="translate(0.000000, 2.000000)">
                                <g id="Rectangle-12" transform="translate(0.000000, 1.000000)">
                                    <mask id="mask-14" fill="white">
                                        <use xlink:href="#path-13"></use>
                                    </mask>
                                    <g id="Mask">
                                        <use fill="black" fill-opacity="1" filter="url(#filter-15)" xlink:href="#path-13"></use>
                                        <use fill="#D7383A" fill-rule="evenodd" xlink:href="#path-13"></use>
                                    </g>
                                    <polygon fill="#FFFFFF" mask="url(#mask-14)" points="0 8 0.220230103 8 0.220230103 11.1244354 -1.11022302e-16 11.1244354"></polygon>
                                    <polygon id="Rectangle-12-Copy-3" fill="#FFFFFF" mask="url(#mask-14)" transform="translate(17.500000, 9.562218) scale(-1, 1) translate(-17.500000, -9.562218) " points="17 8 17.2202301 8 17.2202301 11.1244354 17 11.1244354"></polygon>
                                    <polygon id="Rectangle-12-Copy" fill="#FFFFFF" mask="url(#mask-14)" points="2.8815918 14 6.3430481 15.0938721 6.3430481 17.8685913 2.8815918 16.7747192"></polygon>
                                    <polygon id="Rectangle-12-Copy-2" fill="#FFFFFF" mask="url(#mask-14)" transform="translate(13.389603, 15.966034) scale(-1, 1) translate(-13.389603, -15.966034) " points="11.6588745 14.0317383 15.1203308 15.1256104 15.1203308 17.9003296 11.6588745 16.8064575"></polygon>
                                    <mask id="mask-17" fill="white">
                                        <use xlink:href="#path-16"></use>
                                    </mask>
                                    <use id="Mask-Copy-3" fill-opacity="0.5" fill="#000000" xlink:href="#path-16"></use>
                                </g>
                                <circle id="Oval-8" fill="#D7383A" cx="9" cy="9" r="9"></circle>
                                <g id="Oval-8-Copy">
                                    <use fill="#D7383A" xlink:href="#path-18"></use>
                                    <use fill-opacity="0.25" fill="#000000" xlink:href="#path-18"></use>
                                </g>
                                <circle id="Oval-8-Copy-2" fill="#D7383A" cx="9" cy="9" r="6"></circle>
                                <path d="M15.1195534,2.40062262 L14.7320508,3.07179677 C14.4559084,3.55008939 13.844318,3.71396455 13.3660254,3.43782217 L11.6339746,2.43782217 C11.155682,2.1616798 10.9918068,1.55008939 11.2679492,1.07179677 L11.6566596,0.398530568 C12.9628494,0.801497019 14.1420981,1.49381184 15.1195534,2.40062262 Z M6.34334038,17.6014694 C5.03715061,17.198503 3.85790188,16.5061882 2.88044662,15.5993774 L3.26794919,14.9282032 C3.54409157,14.4499106 4.15568197,14.2860355 4.6339746,14.5621778 L6.3660254,15.5621778 C6.84431803,15.8383202 7.00819318,16.4499106 6.73205081,16.9282032 L6.34334038,17.6014694 Z M17.7769836,11 L17,11 C16.4477153,11 16,10.5522847 16,10 L16,8 C16,7.44771525 16.4477153,7 17,7 L17.7769836,7 C17.9229386,7.64322274 18,8.31261204 18,9 C18,9.68738796 17.9229386,10.3567773 17.7769836,11 Z M0.223016424,11 C0.0770614401,10.3567773 0,9.68738796 0,9 C0,8.31261204 0.0770614401,7.64322274 0.223016424,7 L1,7 C1.55228475,7 2,7.44771525 2,8 L2,10 C2,10.5522847 1.55228475,11 1,11 L0.223016424,11 Z M11.6566596,17.6014694 L11.2679492,16.9282032 C10.9918068,16.4499106 11.155682,15.8383202 11.6339746,15.5621778 L13.3660254,14.5621778 C13.844318,14.2860355 14.4559084,14.4499106 14.7320508,14.9282032 L15.1195534,15.5993774 C14.1420981,16.5061882 12.9628494,17.198503 11.6566596,17.6014694 Z M2.88044662,2.40062262 C3.85790188,1.49381184 5.03715061,0.801497019 6.34334038,0.398530568 L6.73205081,1.07179677 C7.00819318,1.55008939 6.84431803,2.1616798 6.3660254,2.43782217 L4.6339746,3.43782217 C4.15568197,3.71396455 3.54409157,3.55008939 3.26794919,3.07179677 L2.88044662,2.40062262 Z M9.01640374,1.59111465 C8.74026137,1.59111465 8.51640374,1.36725702 8.51640374,1.09111465 C8.51640374,0.814972275 8.74026137,0.59111465 9.01640374,0.59111465 C9.29254612,0.59111465 9.51640374,0.814972275 9.51640374,1.09111465 C9.51640374,1.36725702 9.29254612,1.59111465 9.01640374,1.59111465 Z M9.01640374,17.5911146 C8.74026137,17.5911146 8.51640374,17.367257 8.51640374,17.0911146 C8.51640374,16.8149723 8.74026137,16.5911146 9.01640374,16.5911146 C9.29254612,16.5911146 9.51640374,16.8149723 9.51640374,17.0911146 C9.51640374,17.367257 9.29254612,17.5911146 9.01640374,17.5911146 Z M15.5115943,5.34111465 C15.3735231,5.10196834 15.4554607,4.79617314 15.694607,4.65810195 C15.9337533,4.52003076 16.2395485,4.60196834 16.3776197,4.84111465 C16.5156909,5.08026096 16.4337533,5.38605616 16.194607,5.52412735 C15.9554607,5.66219854 15.6496655,5.58026096 15.5115943,5.34111465 Z M1.65518781,13.3411146 C1.51711662,13.1019683 1.5990542,12.7961731 1.83820051,12.6581019 C2.07734683,12.5200308 2.38314203,12.6019683 2.52121322,12.8411146 C2.6592844,13.080261 2.57734683,13.3860562 2.33820051,13.5241274 C2.0990542,13.6621985 1.793259,13.580261 1.65518781,13.3411146 Z M15.5115943,12.8411146 C15.6496655,12.6019683 15.9554607,12.5200308 16.194607,12.6581019 C16.4337533,12.7961731 16.5156909,13.1019683 16.3776197,13.3411146 C16.2395485,13.580261 15.9337533,13.6621985 15.694607,13.5241274 C15.4554607,13.3860562 15.3735231,13.080261 15.5115943,12.8411146 Z M1.65518781,4.84111465 C1.793259,4.60196834 2.0990542,4.52003076 2.33820051,4.65810195 C2.57734683,4.79617314 2.6592844,5.10196834 2.52121322,5.34111465 C2.38314203,5.58026096 2.07734683,5.66219854 1.83820051,5.52412735 C1.5990542,5.38605616 1.51711662,5.08026096 1.65518781,4.84111465 Z" id="Combined-Shape" fill="#FFFFFF"></path>
                            </g>
                            <g id="Chip-red" transform="translate(0.000000, 1.000000)">
                                <g id="Rectangle-12" transform="translate(0.000000, 1.000000)">
                                    <mask id="mask-20" fill="white">
                                        <use xlink:href="#path-19"></use>
                                    </mask>
                                    <g id="Mask">
                                        <use fill="black" fill-opacity="1" filter="url(#filter-21)" xlink:href="#path-19"></use>
                                        <use fill="#D7383A" fill-rule="evenodd" xlink:href="#path-19"></use>
                                    </g>
                                    <polygon fill="#FFFFFF" mask="url(#mask-20)" points="0 8 0.220230103 8 0.220230103 11.1244354 -1.11022302e-16 11.1244354"></polygon>
                                    <polygon id="Rectangle-12-Copy-3" fill="#FFFFFF" mask="url(#mask-20)" transform="translate(17.500000, 9.562218) scale(-1, 1) translate(-17.500000, -9.562218) " points="17 8 17.2202301 8 17.2202301 11.1244354 17 11.1244354"></polygon>
                                    <polygon id="Rectangle-12-Copy" fill="#FFFFFF" mask="url(#mask-20)" points="2.8815918 14 6.3430481 15.0938721 6.3430481 17.8685913 2.8815918 16.7747192"></polygon>
                                    <polygon id="Rectangle-12-Copy-2" fill="#FFFFFF" mask="url(#mask-20)" transform="translate(13.389603, 15.966034) scale(-1, 1) translate(-13.389603, -15.966034) " points="11.6588745 14.0317383 15.1203308 15.1256104 15.1203308 17.9003296 11.6588745 16.8064575"></polygon>
                                    <mask id="mask-23" fill="white">
                                        <use xlink:href="#path-22"></use>
                                    </mask>
                                    <use id="Mask-Copy-3" fill-opacity="0.5" fill="#000000" xlink:href="#path-22"></use>
                                </g>
                                <circle id="Oval-8" fill="#D7383A" cx="9" cy="9" r="9"></circle>
                                <g id="Oval-8-Copy">
                                    <use fill="#D7383A" xlink:href="#path-24"></use>
                                    <use fill-opacity="0.25" fill="#000000" xlink:href="#path-24"></use>
                                </g>
                                <circle id="Oval-8-Copy-2" fill="#D7383A" cx="9" cy="9" r="6"></circle>
                                <path d="M15.1195534,2.40062262 L14.7320508,3.07179677 C14.4559084,3.55008939 13.844318,3.71396455 13.3660254,3.43782217 L11.6339746,2.43782217 C11.155682,2.1616798 10.9918068,1.55008939 11.2679492,1.07179677 L11.6566596,0.398530568 C12.9628494,0.801497019 14.1420981,1.49381184 15.1195534,2.40062262 Z M6.34334038,17.6014694 C5.03715061,17.198503 3.85790188,16.5061882 2.88044662,15.5993774 L3.26794919,14.9282032 C3.54409157,14.4499106 4.15568197,14.2860355 4.6339746,14.5621778 L6.3660254,15.5621778 C6.84431803,15.8383202 7.00819318,16.4499106 6.73205081,16.9282032 L6.34334038,17.6014694 Z M17.7769836,11 L17,11 C16.4477153,11 16,10.5522847 16,10 L16,8 C16,7.44771525 16.4477153,7 17,7 L17.7769836,7 C17.9229386,7.64322274 18,8.31261204 18,9 C18,9.68738796 17.9229386,10.3567773 17.7769836,11 Z M0.223016424,11 C0.0770614401,10.3567773 0,9.68738796 0,9 C0,8.31261204 0.0770614401,7.64322274 0.223016424,7 L1,7 C1.55228475,7 2,7.44771525 2,8 L2,10 C2,10.5522847 1.55228475,11 1,11 L0.223016424,11 Z M11.6566596,17.6014694 L11.2679492,16.9282032 C10.9918068,16.4499106 11.155682,15.8383202 11.6339746,15.5621778 L13.3660254,14.5621778 C13.844318,14.2860355 14.4559084,14.4499106 14.7320508,14.9282032 L15.1195534,15.5993774 C14.1420981,16.5061882 12.9628494,17.198503 11.6566596,17.6014694 Z M2.88044662,2.40062262 C3.85790188,1.49381184 5.03715061,0.801497019 6.34334038,0.398530568 L6.73205081,1.07179677 C7.00819318,1.55008939 6.84431803,2.1616798 6.3660254,2.43782217 L4.6339746,3.43782217 C4.15568197,3.71396455 3.54409157,3.55008939 3.26794919,3.07179677 L2.88044662,2.40062262 Z M9.01640374,1.59111465 C8.74026137,1.59111465 8.51640374,1.36725702 8.51640374,1.09111465 C8.51640374,0.814972275 8.74026137,0.59111465 9.01640374,0.59111465 C9.29254612,0.59111465 9.51640374,0.814972275 9.51640374,1.09111465 C9.51640374,1.36725702 9.29254612,1.59111465 9.01640374,1.59111465 Z M9.01640374,17.5911146 C8.74026137,17.5911146 8.51640374,17.367257 8.51640374,17.0911146 C8.51640374,16.8149723 8.74026137,16.5911146 9.01640374,16.5911146 C9.29254612,16.5911146 9.51640374,16.8149723 9.51640374,17.0911146 C9.51640374,17.367257 9.29254612,17.5911146 9.01640374,17.5911146 Z M15.5115943,5.34111465 C15.3735231,5.10196834 15.4554607,4.79617314 15.694607,4.65810195 C15.9337533,4.52003076 16.2395485,4.60196834 16.3776197,4.84111465 C16.5156909,5.08026096 16.4337533,5.38605616 16.194607,5.52412735 C15.9554607,5.66219854 15.6496655,5.58026096 15.5115943,5.34111465 Z M1.65518781,13.3411146 C1.51711662,13.1019683 1.5990542,12.7961731 1.83820051,12.6581019 C2.07734683,12.5200308 2.38314203,12.6019683 2.52121322,12.8411146 C2.6592844,13.080261 2.57734683,13.3860562 2.33820051,13.5241274 C2.0990542,13.6621985 1.793259,13.580261 1.65518781,13.3411146 Z M15.5115943,12.8411146 C15.6496655,12.6019683 15.9554607,12.5200308 16.194607,12.6581019 C16.4337533,12.7961731 16.5156909,13.1019683 16.3776197,13.3411146 C16.2395485,13.580261 15.9337533,13.6621985 15.694607,13.5241274 C15.4554607,13.3860562 15.3735231,13.080261 15.5115943,12.8411146 Z M1.65518781,4.84111465 C1.793259,4.60196834 2.0990542,4.52003076 2.33820051,4.65810195 C2.57734683,4.79617314 2.6592844,5.10196834 2.52121322,5.34111465 C2.38314203,5.58026096 2.07734683,5.66219854 1.83820051,5.52412735 C1.5990542,5.38605616 1.51711662,5.08026096 1.65518781,4.84111465 Z" id="Combined-Shape" fill="#FFFFFF"></path>
                            </g>
                            <g id="Chip-red">
                                <g id="Rectangle-12" transform="translate(0.000000, 1.000000)">
                                    <mask id="mask-26" fill="white">
                                        <use xlink:href="#path-25"></use>
                                    </mask>
                                    <g id="Mask">
                                        <use fill="black" fill-opacity="1" filter="url(#filter-27)" xlink:href="#path-25"></use>
                                        <use fill="#D7383A" fill-rule="evenodd" xlink:href="#path-25"></use>
                                    </g>
                                    <polygon fill="#FFFFFF" mask="url(#mask-26)" points="0 8 0.220230103 8 0.220230103 11.1244354 -1.11022302e-16 11.1244354"></polygon>
                                    <polygon id="Rectangle-12-Copy-3" fill="#FFFFFF" mask="url(#mask-26)" transform="translate(17.500000, 9.562218) scale(-1, 1) translate(-17.500000, -9.562218) " points="17 8 17.2202301 8 17.2202301 11.1244354 17 11.1244354"></polygon>
                                    <polygon id="Rectangle-12-Copy" fill="#FFFFFF" mask="url(#mask-26)" points="2.8815918 14 6.3430481 15.0938721 6.3430481 17.8685913 2.8815918 16.7747192"></polygon>
                                    <polygon id="Rectangle-12-Copy-2" fill="#FFFFFF" mask="url(#mask-26)" transform="translate(13.389603, 15.966034) scale(-1, 1) translate(-13.389603, -15.966034) " points="11.6588745 14.0317383 15.1203308 15.1256104 15.1203308 17.9003296 11.6588745 16.8064575"></polygon>
                                    <mask id="mask-29" fill="white">
                                        <use xlink:href="#path-28"></use>
                                    </mask>
                                    <use id="Mask-Copy-3" fill-opacity="0.5" fill="#000000" xlink:href="#path-28"></use>
                                </g>
                                <circle id="Oval-8" fill="#D7383A" cx="9" cy="9" r="9"></circle>
                                <circle id="Oval-8-Copy" fill="#000000" opacity="0.25" cx="9" cy="9" r="7"></circle>
                                <circle id="Oval-8-Copy-2" fill="#D7383A" cx="9" cy="9" r="6"></circle>
                                <path d="M15.1195534,2.40062262 L14.7320508,3.07179677 C14.4559084,3.55008939 13.844318,3.71396455 13.3660254,3.43782217 L11.6339746,2.43782217 C11.155682,2.1616798 10.9918068,1.55008939 11.2679492,1.07179677 L11.6566596,0.398530568 C12.9628494,0.801497019 14.1420981,1.49381184 15.1195534,2.40062262 Z M6.34334038,17.6014694 C5.03715061,17.198503 3.85790188,16.5061882 2.88044662,15.5993774 L3.26794919,14.9282032 C3.54409157,14.4499106 4.15568197,14.2860355 4.6339746,14.5621778 L6.3660254,15.5621778 C6.84431803,15.8383202 7.00819318,16.4499106 6.73205081,16.9282032 L6.34334038,17.6014694 Z M17.7769836,11 L17,11 C16.4477153,11 16,10.5522847 16,10 L16,8 C16,7.44771525 16.4477153,7 17,7 L17.7769836,7 C17.9229386,7.64322274 18,8.31261204 18,9 C18,9.68738796 17.9229386,10.3567773 17.7769836,11 Z M0.223016424,11 C0.0770614401,10.3567773 0,9.68738796 0,9 C0,8.31261204 0.0770614401,7.64322274 0.223016424,7 L1,7 C1.55228475,7 2,7.44771525 2,8 L2,10 C2,10.5522847 1.55228475,11 1,11 L0.223016424,11 Z M11.6566596,17.6014694 L11.2679492,16.9282032 C10.9918068,16.4499106 11.155682,15.8383202 11.6339746,15.5621778 L13.3660254,14.5621778 C13.844318,14.2860355 14.4559084,14.4499106 14.7320508,14.9282032 L15.1195534,15.5993774 C14.1420981,16.5061882 12.9628494,17.198503 11.6566596,17.6014694 Z M2.88044662,2.40062262 C3.85790188,1.49381184 5.03715061,0.801497019 6.34334038,0.398530568 L6.73205081,1.07179677 C7.00819318,1.55008939 6.84431803,2.1616798 6.3660254,2.43782217 L4.6339746,3.43782217 C4.15568197,3.71396455 3.54409157,3.55008939 3.26794919,3.07179677 L2.88044662,2.40062262 Z M9.01640374,1.59111465 C8.74026137,1.59111465 8.51640374,1.36725702 8.51640374,1.09111465 C8.51640374,0.814972275 8.74026137,0.59111465 9.01640374,0.59111465 C9.29254612,0.59111465 9.51640374,0.814972275 9.51640374,1.09111465 C9.51640374,1.36725702 9.29254612,1.59111465 9.01640374,1.59111465 Z M9.01640374,17.5911146 C8.74026137,17.5911146 8.51640374,17.367257 8.51640374,17.0911146 C8.51640374,16.8149723 8.74026137,16.5911146 9.01640374,16.5911146 C9.29254612,16.5911146 9.51640374,16.8149723 9.51640374,17.0911146 C9.51640374,17.367257 9.29254612,17.5911146 9.01640374,17.5911146 Z M15.5115943,5.34111465 C15.3735231,5.10196834 15.4554607,4.79617314 15.694607,4.65810195 C15.9337533,4.52003076 16.2395485,4.60196834 16.3776197,4.84111465 C16.5156909,5.08026096 16.4337533,5.38605616 16.194607,5.52412735 C15.9554607,5.66219854 15.6496655,5.58026096 15.5115943,5.34111465 Z M1.65518781,13.3411146 C1.51711662,13.1019683 1.5990542,12.7961731 1.83820051,12.6581019 C2.07734683,12.5200308 2.38314203,12.6019683 2.52121322,12.8411146 C2.6592844,13.080261 2.57734683,13.3860562 2.33820051,13.5241274 C2.0990542,13.6621985 1.793259,13.580261 1.65518781,13.3411146 Z M15.5115943,12.8411146 C15.6496655,12.6019683 15.9554607,12.5200308 16.194607,12.6581019 C16.4337533,12.7961731 16.5156909,13.1019683 16.3776197,13.3411146 C16.2395485,13.580261 15.9337533,13.6621985 15.694607,13.5241274 C15.4554607,13.3860562 15.3735231,13.080261 15.5115943,12.8411146 Z M1.65518781,4.84111465 C1.793259,4.60196834 2.0990542,4.52003076 2.33820051,4.65810195 C2.57734683,4.79617314 2.6592844,5.10196834 2.52121322,5.34111465 C2.38314203,5.58026096 2.07734683,5.66219854 1.83820051,5.52412735 C1.5990542,5.38605616 1.51711662,5.08026096 1.65518781,4.84111465 Z" id="Combined-Shape" fill="#FFFFFF"></path>
                            </g>
                            <text id="5" font-family="OpenSans-Extrabold, Open Sans" font-size="6" font-weight="600" fill="#FFFFFF">
                                <tspan x="7.2421875" y="11">5</tspan>
                            </text>
                        </g>
                    </g>
                </g>
            </g>
        </g>
    </g>
</svg>