<svg width="13" height="18" viewBox="0 0 13 18" fill="none" xmlns="http://www.w3.org/2000/svg">
<path id="icon Lobby" fill-rule="evenodd" clip-rule="evenodd" d="M12.9949 2.82373C12.9037 1.24892 11.5977 0 10 0H3L2.82373 0.00509269C1.24892 0.0963391 0 1.40232 0 3H2L2.00673 2.88338C2.06449 2.38604 2.48716 2 3 2H10L10.1166 2.00673C10.614 2.06449 11 2.48716 11 3V15L10.9933 15.1166C10.9355 15.614 10.5128 16 10 16H3L2.88338 15.9933C2.38604 15.9355 2 15.5128 2 15H0L0.00509269 15.1763C0.0963391 16.7511 1.40232 18 3 18H10L10.1763 17.9949C11.7511 17.9037 13 16.5977 13 15V3L12.9949 2.82373ZM4.60996 5.28181L7.71357 8.31498C8.09487 8.69202 8.09609 9.30673 7.71274 9.68594L4.61001 12.7182C4.22778 13.0951 3.60942 13.0938 3.22891 12.7149C2.84844 12.3361 2.8499 11.7234 3.23218 11.3463L4.65806 9.96774L0 9.93548V8L4.65811 8.03226L3.23213 6.65368C2.84985 6.27665 2.84839 5.66392 3.22886 5.2851C3.60938 4.90623 4.22769 4.90482 4.60996 5.28181Z" fill="white"/>
</svg>
