<svg xmlns="http://www.w3.org/2000/svg" width="25" height="26" viewBox="0 0 25 26">
  <path d="M17.2651709,10.1272676 C18.2502671,8.97623438 18.8174145,7.4656582 18.7286325,5.82192773 C18.5597222,2.68945313 15.9197115,0.124453125 12.7446581,0.00458789063 C9.18814103,-0.129462891 6.26212607,2.67663867 6.26212607,6.15774023 C6.26212607,7.67116406 6.81730769,9.05480859 7.73472222,10.1272148 C6.52553419,9.83780859 5.19594017,9.85341797 3.77227564,10.5061641 C1.58087607,11.511334 0.055982906,13.6386387 0.0247863248,16.0236563 C-0.0198183761,19.4621484 2.78958333,22.2630293 6.26212607,22.2630293 C7.94011752,22.2630293 9.45972222,21.6060117 10.580609,20.5421484 L10.580609,22.3563691 C10.580609,23.2265391 10.3507479,23.0815215 9.91314103,23.8370469 L8.07152778,25.29125 C7.88872863,25.6071816 8.11997863,25.9998945 8.48803419,25.9998945 L16.511859,25.9998945 C16.8803953,25.9998945 17.1111645,25.6072344 16.9283654,25.29125 L15.0867521,23.8370469 C14.6496261,23.0815215 14.4192842,23.2265391 14.4192842,22.3563691 L14.4192842,20.5421484 C15.5406517,21.6060645 17.0602564,22.2630293 18.7377671,22.2630293 C22.2103098,22.2630293 25.0201923,19.4621484 24.9751068,16.0236563 C24.9439103,13.6386387 23.4189637,11.511334 21.2276175,10.5062168 C19.803953,9.8534707 18.474359,9.83786133 17.2651709,10.1272676 Z"/>
</svg>
