<svg width="22" height="24" viewBox="0 0 22 24" fill="none" xmlns="http://www.w3.org/2000/svg">
<g filter="url(#filter0_d)">
<path fill-rule="evenodd" clip-rule="evenodd" d="M11 21C15.9706 21 20 16.9706 20 12C20 7.02944 15.9706 3 11 3C6.02944 3 2 7.02944 2 12C2 16.9706 6.02944 21 11 21Z" fill="#FFC600"/>
</g>
<mask id="mask0" mask-type="alpha" maskUnits="userSpaceOnUse" x="2" y="3" width="18" height="18">
<path fill-rule="evenodd" clip-rule="evenodd" d="M11 21C15.9706 21 20 16.9706 20 12C20 7.02944 15.9706 3 11 3C6.02944 3 2 7.02944 2 12C2 16.9706 6.02944 21 11 21Z" fill="white"/>
</mask>
<g mask="url(#mask0)">
<path fill-rule="evenodd" clip-rule="evenodd" d="M2 11H2.22023V14.1244H2V11Z" fill="white"/>
<path fill-rule="evenodd" clip-rule="evenodd" d="M20 11H19.7798V14.1244H20V11Z" fill="white"/>
<path fill-rule="evenodd" clip-rule="evenodd" d="M4.88184 17L8.34329 18.0939V20.8686L4.88184 19.7747V17Z" fill="white"/>
<path fill-rule="evenodd" clip-rule="evenodd" d="M17.1201 17.0312L13.6587 18.1251V20.8998L17.1201 19.806V17.0312Z" fill="white"/>
</g>
<path fill-rule="evenodd" clip-rule="evenodd" d="M11 21C15.9706 21 20 16.9706 20 12C20 7.02944 15.9706 3 11 3C6.02944 3 2 7.02944 2 12C2 16.9706 6.02944 21 11 21Z" fill="black" fill-opacity="0.5"/>
<mask id="mask1" mask-type="alpha" maskUnits="userSpaceOnUse" x="2" y="3" width="18" height="18">
<path fill-rule="evenodd" clip-rule="evenodd" d="M11 21C15.9706 21 20 16.9706 20 12C20 7.02944 15.9706 3 11 3C6.02944 3 2 7.02944 2 12C2 16.9706 6.02944 21 11 21Z" fill="white"/>
</mask>
<g mask="url(#mask1)">
</g>
<path fill-rule="evenodd" clip-rule="evenodd" d="M11 20C15.9706 20 20 15.9706 20 11C20 6.02944 15.9706 2 11 2C6.02944 2 2 6.02944 2 11C2 15.9706 6.02944 20 11 20Z" fill="#FFC600"/>
<path fill-rule="evenodd" clip-rule="evenodd" d="M11 18C14.866 18 18 14.866 18 11C18 7.13401 14.866 4 11 4C7.13401 4 4 7.13401 4 11C4 14.866 7.13401 18 11 18Z" fill="#FFC600"/>
<path fill-rule="evenodd" clip-rule="evenodd" d="M11 18C14.866 18 18 14.866 18 11C18 7.13401 14.866 4 11 4C7.13401 4 4 7.13401 4 11C4 14.866 7.13401 18 11 18Z" fill="black" fill-opacity="0.25"/>
<path fill-rule="evenodd" clip-rule="evenodd" d="M11 17C14.3137 17 17 14.3137 17 11C17 7.68629 14.3137 5 11 5C7.68629 5 5 7.68629 5 11C5 14.3137 7.68629 17 11 17Z" fill="#FFC600"/>
<path fill-rule="evenodd" clip-rule="evenodd" d="M17.1196 4.40053C16.1421 3.49372 14.9628 2.8014 13.6567 2.39844L13.2679 3.0717C12.9918 3.55 13.1557 4.16159 13.634 4.43773L15.366 5.43773C15.8443 5.71387 16.4559 5.55 16.7321 5.0717L17.1196 4.40053ZM4.88045 4.40053C5.8579 3.49372 7.03715 2.8014 8.34334 2.39844L8.73205 3.0717C9.00819 3.55 8.84432 4.16159 8.36603 4.43773L6.63397 5.43773C6.15568 5.71387 5.54409 5.55 5.26795 5.0717L4.88045 4.40053ZM2.22302 12.9999C2.07706 12.3567 2 11.6873 2 10.9999C2 10.3125 2.07706 9.64313 2.22302 8.99991H3C3.55228 8.99991 4 9.44762 4 9.99991V11.9999C4 12.5522 3.55228 12.9999 3 12.9999H2.22302ZM8.34334 19.6014C7.03715 19.1984 5.8579 18.5061 4.88045 17.5993L5.26795 16.9281C5.54409 16.4498 6.15568 16.2859 6.63397 16.5621L8.36603 17.5621C8.84432 17.8382 9.00819 18.4498 8.73205 18.9281L8.34334 19.6014ZM17.1196 17.5993C16.1421 18.5061 14.9628 19.1984 13.6567 19.6014L13.2679 18.9281C12.9918 18.4498 13.1557 17.8382 13.634 17.5621L15.366 16.5621C15.8443 16.2859 16.4559 16.4498 16.7321 16.9281L17.1196 17.5993ZM19.777 8.99991C19.9229 9.64313 20 10.3125 20 10.9999C20 11.6873 19.9229 12.3567 19.777 12.9999H19C18.4477 12.9999 18 12.5522 18 11.9999V9.99991C18 9.44762 18.4477 8.99991 19 8.99991H19.777ZM11.0164 3.59102C11.2925 3.59102 11.5164 3.36716 11.5164 3.09102C11.5164 2.81488 11.2925 2.59102 11.0164 2.59102C10.7403 2.59102 10.5164 2.81488 10.5164 3.09102C10.5164 3.36716 10.7403 3.59102 11.0164 3.59102ZM11.5164 19.091C11.5164 19.3672 11.2925 19.591 11.0164 19.591C10.7403 19.591 10.5164 19.3672 10.5164 19.091C10.5164 18.8149 10.7403 18.591 11.0164 18.591C11.2925 18.591 11.5164 18.8149 11.5164 19.091ZM17.5116 7.34102C17.6497 7.58017 17.9555 7.66211 18.1946 7.52403C18.4338 7.38596 18.5157 7.08017 18.3776 6.84102C18.2395 6.60188 17.9338 6.51994 17.6946 6.65801C17.4555 6.79608 17.3735 7.10188 17.5116 7.34102ZM4.3382 15.524C4.09905 15.6621 3.79326 15.5802 3.65519 15.341C3.51712 15.1019 3.59905 14.7961 3.8382 14.658C4.07735 14.5199 4.38314 14.6019 4.52121 14.841C4.65928 15.0802 4.57735 15.386 4.3382 15.524ZM17.5116 14.841C17.3735 15.0802 17.4555 15.386 17.6946 15.524C17.9338 15.6621 18.2395 15.5802 18.3776 15.341C18.5157 15.1019 18.4338 14.7961 18.1946 14.658C17.9555 14.5199 17.6497 14.6019 17.5116 14.841ZM3.8382 7.52403C3.59905 7.38596 3.51712 7.08017 3.65519 6.84102C3.79326 6.60188 4.09905 6.51994 4.3382 6.65801C4.57735 6.79608 4.65928 7.10188 4.52121 7.34102C4.38314 7.58017 4.07735 7.66211 3.8382 7.52403Z" fill="white"/>
<g filter="url(#filter1_d)">
<path fill-rule="evenodd" clip-rule="evenodd" d="M11 20C15.9706 20 20 15.9706 20 11C20 6.02944 15.9706 2 11 2C6.02944 2 2 6.02944 2 11C2 15.9706 6.02944 20 11 20Z" fill="#FFC600"/>
</g>
<mask id="mask2" mask-type="alpha" maskUnits="userSpaceOnUse" x="2" y="2" width="18" height="18">
<path fill-rule="evenodd" clip-rule="evenodd" d="M11 20C15.9706 20 20 15.9706 20 11C20 6.02944 15.9706 2 11 2C6.02944 2 2 6.02944 2 11C2 15.9706 6.02944 20 11 20Z" fill="white"/>
</mask>
<g mask="url(#mask2)">
<path fill-rule="evenodd" clip-rule="evenodd" d="M2 10H2.22023V13.1244H2V10Z" fill="white"/>
<path fill-rule="evenodd" clip-rule="evenodd" d="M20 10H19.7798V13.1244H20V10Z" fill="white"/>
<path fill-rule="evenodd" clip-rule="evenodd" d="M4.88184 16L8.34329 17.0939V19.8686L4.88184 18.7747V16Z" fill="white"/>
<path fill-rule="evenodd" clip-rule="evenodd" d="M17.1201 16.0312L13.6587 17.1251V19.8998L17.1201 18.806V16.0312Z" fill="white"/>
</g>
<path fill-rule="evenodd" clip-rule="evenodd" d="M11 20C15.9706 20 20 15.9706 20 11C20 6.02944 15.9706 2 11 2C6.02944 2 2 6.02944 2 11C2 15.9706 6.02944 20 11 20Z" fill="black" fill-opacity="0.5"/>
<mask id="mask3" mask-type="alpha" maskUnits="userSpaceOnUse" x="2" y="2" width="18" height="18">
<path fill-rule="evenodd" clip-rule="evenodd" d="M11 20C15.9706 20 20 15.9706 20 11C20 6.02944 15.9706 2 11 2C6.02944 2 2 6.02944 2 11C2 15.9706 6.02944 20 11 20Z" fill="white"/>
</mask>
<g mask="url(#mask3)">
</g>
<path fill-rule="evenodd" clip-rule="evenodd" d="M11 19C15.9706 19 20 14.9706 20 10C20 5.02944 15.9706 1 11 1C6.02944 1 2 5.02944 2 10C2 14.9706 6.02944 19 11 19Z" fill="#FFC600"/>
<path fill-rule="evenodd" clip-rule="evenodd" d="M11 17C14.866 17 18 13.866 18 10C18 6.13401 14.866 3 11 3C7.13401 3 4 6.13401 4 10C4 13.866 7.13401 17 11 17Z" fill="#FFC600"/>
<path fill-rule="evenodd" clip-rule="evenodd" d="M11 17C14.866 17 18 13.866 18 10C18 6.13401 14.866 3 11 3C7.13401 3 4 6.13401 4 10C4 13.866 7.13401 17 11 17Z" fill="black" fill-opacity="0.25"/>
<path fill-rule="evenodd" clip-rule="evenodd" d="M11 16C14.3137 16 17 13.3137 17 10C17 6.68629 14.3137 4 11 4C7.68629 4 5 6.68629 5 10C5 13.3137 7.68629 16 11 16Z" fill="#FFC600"/>
<path fill-rule="evenodd" clip-rule="evenodd" d="M17.1196 3.40053C16.1421 2.49372 14.9628 1.8014 13.6567 1.39844L13.2679 2.0717C12.9918 2.55 13.1557 3.16159 13.634 3.43773L15.366 4.43773C15.8443 4.71387 16.4559 4.55 16.7321 4.0717L17.1196 3.40053ZM4.88045 3.40053C5.8579 2.49372 7.03715 1.8014 8.34334 1.39844L8.73205 2.0717C9.00819 2.55 8.84432 3.16159 8.36603 3.43773L6.63397 4.43773C6.15568 4.71387 5.54409 4.55 5.26795 4.0717L4.88045 3.40053ZM2.22302 11.9999C2.07706 11.3567 2 10.6873 2 9.99991C2 9.31252 2.07706 8.64313 2.22302 7.99991H3C3.55228 7.99991 4 8.44762 4 8.99991V10.9999C4 11.5522 3.55228 11.9999 3 11.9999H2.22302ZM8.34334 18.6014C7.03715 18.1984 5.8579 17.5061 4.88045 16.5993L5.26795 15.9281C5.54409 15.4498 6.15568 15.2859 6.63397 15.5621L8.36603 16.5621C8.84432 16.8382 9.00819 17.4498 8.73205 17.9281L8.34334 18.6014ZM17.1196 16.5993C16.1421 17.5061 14.9628 18.1984 13.6567 18.6014L13.2679 17.9281C12.9918 17.4498 13.1557 16.8382 13.634 16.5621L15.366 15.5621C15.8443 15.2859 16.4559 15.4498 16.7321 15.9281L17.1196 16.5993ZM19.777 7.99991C19.9229 8.64313 20 9.31252 20 9.99991C20 10.6873 19.9229 11.3567 19.777 11.9999H19C18.4477 11.9999 18 11.5522 18 10.9999V8.99991C18 8.44762 18.4477 7.99991 19 7.99991H19.777ZM11.0164 2.59102C11.2925 2.59102 11.5164 2.36716 11.5164 2.09102C11.5164 1.81488 11.2925 1.59102 11.0164 1.59102C10.7403 1.59102 10.5164 1.81488 10.5164 2.09102C10.5164 2.36716 10.7403 2.59102 11.0164 2.59102ZM11.5164 18.091C11.5164 18.3672 11.2925 18.591 11.0164 18.591C10.7403 18.591 10.5164 18.3672 10.5164 18.091C10.5164 17.8149 10.7403 17.591 11.0164 17.591C11.2925 17.591 11.5164 17.8149 11.5164 18.091ZM17.5116 6.34102C17.6497 6.58017 17.9555 6.66211 18.1946 6.52403C18.4338 6.38596 18.5157 6.08017 18.3776 5.84102C18.2395 5.60188 17.9338 5.51994 17.6946 5.65801C17.4555 5.79608 17.3735 6.10188 17.5116 6.34102ZM4.3382 14.524C4.09905 14.6621 3.79326 14.5802 3.65519 14.341C3.51712 14.1019 3.59905 13.7961 3.8382 13.658C4.07735 13.5199 4.38314 13.6019 4.52121 13.841C4.65928 14.0802 4.57735 14.386 4.3382 14.524ZM17.5116 13.841C17.3735 14.0802 17.4555 14.386 17.6946 14.524C17.9338 14.6621 18.2395 14.5802 18.3776 14.341C18.5157 14.1019 18.4338 13.7961 18.1946 13.658C17.9555 13.5199 17.6497 13.6019 17.5116 13.841ZM3.8382 6.52403C3.59905 6.38596 3.51712 6.08017 3.65519 5.84102C3.79326 5.60188 4.09905 5.51994 4.3382 5.65801C4.57735 5.79608 4.65928 6.10188 4.52121 6.34102C4.38314 6.58017 4.07735 6.66211 3.8382 6.52403Z" fill="white"/>
<g filter="url(#filter2_d)">
<path fill-rule="evenodd" clip-rule="evenodd" d="M11 19C15.9706 19 20 14.9706 20 10C20 5.02944 15.9706 1 11 1C6.02944 1 2 5.02944 2 10C2 14.9706 6.02944 19 11 19Z" fill="#FFC600"/>
</g>
<mask id="mask4" mask-type="alpha" maskUnits="userSpaceOnUse" x="2" y="1" width="18" height="18">
<path fill-rule="evenodd" clip-rule="evenodd" d="M11 19C15.9706 19 20 14.9706 20 10C20 5.02944 15.9706 1 11 1C6.02944 1 2 5.02944 2 10C2 14.9706 6.02944 19 11 19Z" fill="white"/>
</mask>
<g mask="url(#mask4)">
<path fill-rule="evenodd" clip-rule="evenodd" d="M2 9H2.22023V12.1244H2V9Z" fill="white"/>
<path fill-rule="evenodd" clip-rule="evenodd" d="M20 9H19.7798V12.1244H20V9Z" fill="white"/>
<path fill-rule="evenodd" clip-rule="evenodd" d="M4.88184 15L8.34329 16.0939V18.8686L4.88184 17.7747V15Z" fill="white"/>
<path fill-rule="evenodd" clip-rule="evenodd" d="M17.1201 15.0312L13.6587 16.1251V18.8998L17.1201 17.806V15.0312Z" fill="white"/>
</g>
<path fill-rule="evenodd" clip-rule="evenodd" d="M11 19C15.9706 19 20 14.9706 20 10C20 5.02944 15.9706 1 11 1C6.02944 1 2 5.02944 2 10C2 14.9706 6.02944 19 11 19Z" fill="black" fill-opacity="0.5"/>
<mask id="mask5" mask-type="alpha" maskUnits="userSpaceOnUse" x="2" y="1" width="18" height="18">
<path fill-rule="evenodd" clip-rule="evenodd" d="M11 19C15.9706 19 20 14.9706 20 10C20 5.02944 15.9706 1 11 1C6.02944 1 2 5.02944 2 10C2 14.9706 6.02944 19 11 19Z" fill="white"/>
</mask>
<g mask="url(#mask5)">
</g>
<path fill-rule="evenodd" clip-rule="evenodd" d="M11 18C15.9706 18 20 13.9706 20 9C20 4.02944 15.9706 0 11 0C6.02944 0 2 4.02944 2 9C2 13.9706 6.02944 18 11 18Z" fill="#FFC600"/>
<path fill-rule="evenodd" clip-rule="evenodd" d="M11 16C14.866 16 18 12.866 18 9C18 5.13401 14.866 2 11 2C7.13401 2 4 5.13401 4 9C4 12.866 7.13401 16 11 16Z" fill="#FFC600"/>
<path fill-rule="evenodd" clip-rule="evenodd" d="M11 16C14.866 16 18 12.866 18 9C18 5.13401 14.866 2 11 2C7.13401 2 4 5.13401 4 9C4 12.866 7.13401 16 11 16Z" fill="black" fill-opacity="0.25"/>
<path fill-rule="evenodd" clip-rule="evenodd" d="M11 15C14.3137 15 17 12.3137 17 9C17 5.68629 14.3137 3 11 3C7.68629 3 5 5.68629 5 9C5 12.3137 7.68629 15 11 15Z" fill="#FFC600"/>
<path fill-rule="evenodd" clip-rule="evenodd" d="M17.1196 2.40053C16.1421 1.49372 14.9628 0.801404 13.6567 0.398438L13.2679 1.0717C12.9918 1.55 13.1557 2.16159 13.634 2.43773L15.366 3.43773C15.8443 3.71387 16.4559 3.55 16.7321 3.0717L17.1196 2.40053ZM4.88045 2.40053C5.8579 1.49372 7.03715 0.801404 8.34334 0.398438L8.73205 1.0717C9.00819 1.55 8.84432 2.16159 8.36603 2.43773L6.63397 3.43773C6.15568 3.71387 5.54409 3.55 5.26795 3.0717L4.88045 2.40053ZM2.22302 10.9999C2.07706 10.3567 2 9.68729 2 8.99991C2 8.31252 2.07706 7.64313 2.22302 6.99991H3C3.55228 6.99991 4 7.44762 4 7.99991V9.99991C4 10.5522 3.55228 10.9999 3 10.9999H2.22302ZM8.34334 17.6014C7.03715 17.1984 5.8579 16.5061 4.88045 15.5993L5.26795 14.9281C5.54409 14.4498 6.15568 14.2859 6.63397 14.5621L8.36603 15.5621C8.84432 15.8382 9.00819 16.4498 8.73205 16.9281L8.34334 17.6014ZM17.1196 15.5993C16.1421 16.5061 14.9628 17.1984 13.6567 17.6014L13.2679 16.9281C12.9918 16.4498 13.1557 15.8382 13.634 15.5621L15.366 14.5621C15.8443 14.2859 16.4559 14.4498 16.7321 14.9281L17.1196 15.5993ZM19.777 6.99991C19.9229 7.64313 20 8.31252 20 8.99991C20 9.68729 19.9229 10.3567 19.777 10.9999H19C18.4477 10.9999 18 10.5522 18 9.99991V7.99991C18 7.44762 18.4477 6.99991 19 6.99991H19.777ZM11.0164 1.59102C11.2925 1.59102 11.5164 1.36716 11.5164 1.09102C11.5164 0.814879 11.2925 0.591022 11.0164 0.591022C10.7403 0.591022 10.5164 0.814879 10.5164 1.09102C10.5164 1.36716 10.7403 1.59102 11.0164 1.59102ZM11.5164 17.091C11.5164 17.3672 11.2925 17.591 11.0164 17.591C10.7403 17.591 10.5164 17.3672 10.5164 17.091C10.5164 16.8149 10.7403 16.591 11.0164 16.591C11.2925 16.591 11.5164 16.8149 11.5164 17.091ZM17.5116 5.34102C17.6497 5.58017 17.9555 5.66211 18.1946 5.52403C18.4338 5.38596 18.5157 5.08017 18.3776 4.84102C18.2395 4.60188 17.9338 4.51994 17.6946 4.65801C17.4555 4.79608 17.3735 5.10188 17.5116 5.34102ZM4.3382 13.524C4.09905 13.6621 3.79326 13.5802 3.65519 13.341C3.51712 13.1019 3.59905 12.7961 3.8382 12.658C4.07735 12.5199 4.38314 12.6019 4.52121 12.841C4.65928 13.0802 4.57735 13.386 4.3382 13.524ZM17.5116 12.841C17.3735 13.0802 17.4555 13.386 17.6946 13.524C17.9338 13.6621 18.2395 13.5802 18.3776 13.341C18.5157 13.1019 18.4338 12.7961 18.1946 12.658C17.9555 12.5199 17.6497 12.6019 17.5116 12.841ZM3.8382 5.52403C3.59905 5.38596 3.51712 5.08017 3.65519 4.84102C3.79326 4.60188 4.09905 4.51994 4.3382 4.65801C4.57735 4.79608 4.65928 5.10188 4.52121 5.34102C4.38314 5.58017 4.07735 5.66211 3.8382 5.52403Z" fill="white"/>
<path d="M9.42969 8.19336C9.67578 8.19336 9.89746 8.25098 10.0947 8.36621C10.2939 8.47949 10.4482 8.64062 10.5576 8.84961C10.6689 9.05859 10.7246 9.2998 10.7246 9.57324C10.7246 10.0518 10.5801 10.4189 10.291 10.6748C10.0039 10.9307 9.56836 11.0586 8.98438 11.0586C8.48438 11.0586 8.07617 10.9814 7.75977 10.8271V9.87793C7.92969 9.95605 8.12109 10.0205 8.33398 10.0713C8.54883 10.1221 8.7334 10.1475 8.8877 10.1475C9.10254 10.1475 9.26758 10.1025 9.38281 10.0127C9.49805 9.9209 9.55566 9.78613 9.55566 9.6084C9.55566 9.44434 9.49707 9.31641 9.37988 9.22461C9.2627 9.13281 9.08496 9.08691 8.84668 9.08691C8.66504 9.08691 8.46875 9.12109 8.25781 9.18945L7.83301 8.97852L7.99414 6.7168H10.4375V7.68066H8.97852L8.92578 8.24609C9.07812 8.2168 9.18652 8.20117 9.25098 8.19922C9.31543 8.19531 9.375 8.19336 9.42969 8.19336ZM14.3047 8.86426C14.3047 9.62207 14.1777 10.1777 13.9238 10.5312C13.6699 10.8828 13.2812 11.0586 12.7578 11.0586C12.2461 11.0586 11.8604 10.875 11.6006 10.5078C11.3408 10.1387 11.2109 9.59082 11.2109 8.86426C11.2109 8.10254 11.3379 7.54395 11.5918 7.18848C11.8457 6.83301 12.2344 6.65527 12.7578 6.65527C13.2676 6.65527 13.6523 6.84082 13.9121 7.21191C14.1738 7.58105 14.3047 8.13184 14.3047 8.86426ZM12.3623 8.86426C12.3623 9.34863 12.3926 9.68164 12.4531 9.86328C12.5137 10.0449 12.6152 10.1357 12.7578 10.1357C12.9023 10.1357 13.0039 10.042 13.0625 9.85449C13.123 9.66699 13.1533 9.33691 13.1533 8.86426C13.1533 8.38965 13.123 8.05762 13.0625 7.86816C13.002 7.67676 12.9004 7.58105 12.7578 7.58105C12.6152 7.58105 12.5137 7.67285 12.4531 7.85645C12.3926 8.04004 12.3623 8.37598 12.3623 8.86426Z" fill="white"/>
<defs>
<filter id="filter0_d" x="0" y="2" width="22" height="22" filterUnits="userSpaceOnUse" color-interpolation-filters="sRGB">
<feFlood flood-opacity="0" result="BackgroundImageFix"/>
<feColorMatrix in="SourceAlpha" type="matrix" values="0 0 0 0 0 0 0 0 0 0 0 0 0 0 0 0 0 0 127 0"/>
<feOffset dy="1"/>
<feGaussianBlur stdDeviation="1"/>
<feColorMatrix type="matrix" values="0 0 0 0 0.0627451 0 0 0 0 0.14902 0 0 0 0 0.2 0 0 0 0.35 0"/>
<feBlend mode="normal" in2="BackgroundImageFix" result="effect1_dropShadow"/>
<feBlend mode="normal" in="SourceGraphic" in2="effect1_dropShadow" result="shape"/>
</filter>
<filter id="filter1_d" x="0" y="1" width="22" height="22" filterUnits="userSpaceOnUse" color-interpolation-filters="sRGB">
<feFlood flood-opacity="0" result="BackgroundImageFix"/>
<feColorMatrix in="SourceAlpha" type="matrix" values="0 0 0 0 0 0 0 0 0 0 0 0 0 0 0 0 0 0 127 0"/>
<feOffset dy="1"/>
<feGaussianBlur stdDeviation="1"/>
<feColorMatrix type="matrix" values="0 0 0 0 0.0627451 0 0 0 0 0.14902 0 0 0 0 0.2 0 0 0 0.35 0"/>
<feBlend mode="normal" in2="BackgroundImageFix" result="effect1_dropShadow"/>
<feBlend mode="normal" in="SourceGraphic" in2="effect1_dropShadow" result="shape"/>
</filter>
<filter id="filter2_d" x="0" y="0" width="22" height="22" filterUnits="userSpaceOnUse" color-interpolation-filters="sRGB">
<feFlood flood-opacity="0" result="BackgroundImageFix"/>
<feColorMatrix in="SourceAlpha" type="matrix" values="0 0 0 0 0 0 0 0 0 0 0 0 0 0 0 0 0 0 127 0"/>
<feOffset dy="1"/>
<feGaussianBlur stdDeviation="1"/>
<feColorMatrix type="matrix" values="0 0 0 0 0.0627451 0 0 0 0 0.14902 0 0 0 0 0.2 0 0 0 0.35 0"/>
<feBlend mode="normal" in2="BackgroundImageFix" result="effect1_dropShadow"/>
<feBlend mode="normal" in="SourceGraphic" in2="effect1_dropShadow" result="shape"/>
</filter>
</defs>
</svg>
