<svg width="22" height="29" viewBox="0 0 22 29" fill="none" xmlns="http://www.w3.org/2000/svg">
<g filter="url(#filter0_d)">
<path fill-rule="evenodd" clip-rule="evenodd" d="M11 26C15.9706 26 20 21.9706 20 17C20 12.0294 15.9706 8 11 8C6.02944 8 2 12.0294 2 17C2 21.9706 6.02944 26 11 26Z" fill="#102633"/>
</g>
<mask id="mask0" mask-type="alpha" maskUnits="userSpaceOnUse" x="2" y="8" width="18" height="18">
<path fill-rule="evenodd" clip-rule="evenodd" d="M11 26C15.9706 26 20 21.9706 20 17C20 12.0294 15.9706 8 11 8C6.02944 8 2 12.0294 2 17C2 21.9706 6.02944 26 11 26Z" fill="white"/>
</mask>
<g mask="url(#mask0)">
<path fill-rule="evenodd" clip-rule="evenodd" d="M2 16H2.22023V19.1244H2V16Z" fill="white"/>
<path fill-rule="evenodd" clip-rule="evenodd" d="M20 16H19.7798V19.1244H20V16Z" fill="white"/>
<path fill-rule="evenodd" clip-rule="evenodd" d="M4.88184 22L8.34329 23.0939V25.8686L4.88184 24.7747V22Z" fill="white"/>
<path fill-rule="evenodd" clip-rule="evenodd" d="M17.1201 22.0312L13.6587 23.1251V25.8998L17.1201 24.806V22.0312Z" fill="white"/>
</g>
<path fill-rule="evenodd" clip-rule="evenodd" d="M11 26C15.9706 26 20 21.9706 20 17C20 12.0294 15.9706 8 11 8C6.02944 8 2 12.0294 2 17C2 21.9706 6.02944 26 11 26Z" fill="black" fill-opacity="0.5"/>
<mask id="mask1" mask-type="alpha" maskUnits="userSpaceOnUse" x="2" y="8" width="18" height="18">
<path fill-rule="evenodd" clip-rule="evenodd" d="M11 26C15.9706 26 20 21.9706 20 17C20 12.0294 15.9706 8 11 8C6.02944 8 2 12.0294 2 17C2 21.9706 6.02944 26 11 26Z" fill="white"/>
</mask>
<g mask="url(#mask1)">
</g>
<path fill-rule="evenodd" clip-rule="evenodd" d="M11 25C15.9706 25 20 20.9706 20 16C20 11.0294 15.9706 7 11 7C6.02944 7 2 11.0294 2 16C2 20.9706 6.02944 25 11 25Z" fill="#102633"/>
<path fill-rule="evenodd" clip-rule="evenodd" d="M11 23C14.866 23 18 19.866 18 16C18 12.134 14.866 9 11 9C7.13401 9 4 12.134 4 16C4 19.866 7.13401 23 11 23Z" fill="#102633"/>
<path fill-rule="evenodd" clip-rule="evenodd" d="M11 23C14.866 23 18 19.866 18 16C18 12.134 14.866 9 11 9C7.13401 9 4 12.134 4 16C4 19.866 7.13401 23 11 23Z" fill="black" fill-opacity="0.5"/>
<path fill-rule="evenodd" clip-rule="evenodd" d="M11 22C14.3137 22 17 19.3137 17 16C17 12.6863 14.3137 10 11 10C7.68629 10 5 12.6863 5 16C5 19.3137 7.68629 22 11 22Z" fill="#102633"/>
<path fill-rule="evenodd" clip-rule="evenodd" d="M17.1196 9.40053C16.1421 8.49372 14.9628 7.8014 13.6567 7.39844L13.2679 8.0717C12.9918 8.55 13.1557 9.16159 13.634 9.43773L15.366 10.4377C15.8443 10.7139 16.4559 10.55 16.7321 10.0717L17.1196 9.40053ZM4.88045 9.40053C5.8579 8.49372 7.03715 7.8014 8.34334 7.39844L8.73205 8.0717C9.00819 8.55 8.84432 9.16159 8.36603 9.43773L6.63397 10.4377C6.15568 10.7139 5.54409 10.55 5.26795 10.0717L4.88045 9.40053ZM2.22302 17.9999C2.07706 17.3567 2 16.6873 2 15.9999C2 15.3125 2.07706 14.6431 2.22302 13.9999H3C3.55228 13.9999 4 14.4476 4 14.9999V16.9999C4 17.5522 3.55228 17.9999 3 17.9999H2.22302ZM8.34334 24.6014C7.03715 24.1984 5.8579 23.5061 4.88045 22.5993L5.26795 21.9281C5.54409 21.4498 6.15568 21.2859 6.63397 21.5621L8.36603 22.5621C8.84432 22.8382 9.00819 23.4498 8.73205 23.9281L8.34334 24.6014ZM17.1196 22.5993C16.1421 23.5061 14.9628 24.1984 13.6567 24.6014L13.2679 23.9281C12.9918 23.4498 13.1557 22.8382 13.634 22.5621L15.366 21.5621C15.8443 21.2859 16.4559 21.4498 16.7321 21.9281L17.1196 22.5993ZM19.777 13.9999C19.9229 14.6431 20 15.3125 20 15.9999C20 16.6873 19.9229 17.3567 19.777 17.9999H19C18.4477 17.9999 18 17.5522 18 16.9999V14.9999C18 14.4476 18.4477 13.9999 19 13.9999H19.777ZM11.0164 8.59102C11.2925 8.59102 11.5164 8.36716 11.5164 8.09102C11.5164 7.81488 11.2925 7.59102 11.0164 7.59102C10.7403 7.59102 10.5164 7.81488 10.5164 8.09102C10.5164 8.36716 10.7403 8.59102 11.0164 8.59102ZM11.5164 24.091C11.5164 24.3672 11.2925 24.591 11.0164 24.591C10.7403 24.591 10.5164 24.3672 10.5164 24.091C10.5164 23.8149 10.7403 23.591 11.0164 23.591C11.2925 23.591 11.5164 23.8149 11.5164 24.091ZM17.5116 12.341C17.6497 12.5802 17.9555 12.6621 18.1946 12.524C18.4338 12.386 18.5157 12.0802 18.3776 11.841C18.2395 11.6019 17.9338 11.5199 17.6946 11.658C17.4555 11.7961 17.3735 12.1019 17.5116 12.341ZM4.3382 20.524C4.09905 20.6621 3.79326 20.5802 3.65519 20.341C3.51712 20.1019 3.59905 19.7961 3.8382 19.658C4.07735 19.5199 4.38314 19.6019 4.52121 19.841C4.65928 20.0802 4.57735 20.386 4.3382 20.524ZM17.5116 19.841C17.3735 20.0802 17.4555 20.386 17.6946 20.524C17.9338 20.6621 18.2395 20.5802 18.3776 20.341C18.5157 20.1019 18.4338 19.7961 18.1946 19.658C17.9555 19.5199 17.6497 19.6019 17.5116 19.841ZM3.8382 12.524C3.59905 12.386 3.51712 12.0802 3.65519 11.841C3.79326 11.6019 4.09905 11.5199 4.3382 11.658C4.57735 11.7961 4.65928 12.1019 4.52121 12.341C4.38314 12.5802 4.07735 12.6621 3.8382 12.524Z" fill="white"/>
<g filter="url(#filter1_d)">
<path fill-rule="evenodd" clip-rule="evenodd" d="M11 25C15.9706 25 20 20.9706 20 16C20 11.0294 15.9706 7 11 7C6.02944 7 2 11.0294 2 16C2 20.9706 6.02944 25 11 25Z" fill="#102633"/>
</g>
<mask id="mask2" mask-type="alpha" maskUnits="userSpaceOnUse" x="2" y="7" width="18" height="18">
<path fill-rule="evenodd" clip-rule="evenodd" d="M11 25C15.9706 25 20 20.9706 20 16C20 11.0294 15.9706 7 11 7C6.02944 7 2 11.0294 2 16C2 20.9706 6.02944 25 11 25Z" fill="white"/>
</mask>
<g mask="url(#mask2)">
<path fill-rule="evenodd" clip-rule="evenodd" d="M2 15H2.22023V18.1244H2V15Z" fill="white"/>
<path fill-rule="evenodd" clip-rule="evenodd" d="M20 15H19.7798V18.1244H20V15Z" fill="white"/>
<path fill-rule="evenodd" clip-rule="evenodd" d="M4.88184 21L8.34329 22.0939V24.8686L4.88184 23.7747V21Z" fill="white"/>
<path fill-rule="evenodd" clip-rule="evenodd" d="M17.1201 21.0312L13.6587 22.1251V24.8998L17.1201 23.806V21.0312Z" fill="white"/>
</g>
<path fill-rule="evenodd" clip-rule="evenodd" d="M11 25C15.9706 25 20 20.9706 20 16C20 11.0294 15.9706 7 11 7C6.02944 7 2 11.0294 2 16C2 20.9706 6.02944 25 11 25Z" fill="black" fill-opacity="0.5"/>
<mask id="mask3" mask-type="alpha" maskUnits="userSpaceOnUse" x="2" y="7" width="18" height="18">
<path fill-rule="evenodd" clip-rule="evenodd" d="M11 25C15.9706 25 20 20.9706 20 16C20 11.0294 15.9706 7 11 7C6.02944 7 2 11.0294 2 16C2 20.9706 6.02944 25 11 25Z" fill="white"/>
</mask>
<g mask="url(#mask3)">
</g>
<path fill-rule="evenodd" clip-rule="evenodd" d="M11 24C15.9706 24 20 19.9706 20 15C20 10.0294 15.9706 6 11 6C6.02944 6 2 10.0294 2 15C2 19.9706 6.02944 24 11 24Z" fill="#102633"/>
<path fill-rule="evenodd" clip-rule="evenodd" d="M11 22C14.866 22 18 18.866 18 15C18 11.134 14.866 8 11 8C7.13401 8 4 11.134 4 15C4 18.866 7.13401 22 11 22Z" fill="#102633"/>
<path fill-rule="evenodd" clip-rule="evenodd" d="M11 22C14.866 22 18 18.866 18 15C18 11.134 14.866 8 11 8C7.13401 8 4 11.134 4 15C4 18.866 7.13401 22 11 22Z" fill="black" fill-opacity="0.5"/>
<path fill-rule="evenodd" clip-rule="evenodd" d="M11 21C14.3137 21 17 18.3137 17 15C17 11.6863 14.3137 9 11 9C7.68629 9 5 11.6863 5 15C5 18.3137 7.68629 21 11 21Z" fill="#102633"/>
<path fill-rule="evenodd" clip-rule="evenodd" d="M17.1196 8.40053C16.1421 7.49372 14.9628 6.8014 13.6567 6.39844L13.2679 7.0717C12.9918 7.55 13.1557 8.16159 13.634 8.43773L15.366 9.43773C15.8443 9.71387 16.4559 9.55 16.7321 9.0717L17.1196 8.40053ZM4.88045 8.40053C5.8579 7.49372 7.03715 6.8014 8.34334 6.39844L8.73205 7.0717C9.00819 7.55 8.84432 8.16159 8.36603 8.43773L6.63397 9.43773C6.15568 9.71387 5.54409 9.55 5.26795 9.0717L4.88045 8.40053ZM2.22302 16.9999C2.07706 16.3567 2 15.6873 2 14.9999C2 14.3125 2.07706 13.6431 2.22302 12.9999H3C3.55228 12.9999 4 13.4476 4 13.9999V15.9999C4 16.5522 3.55228 16.9999 3 16.9999H2.22302ZM8.34334 23.6014C7.03715 23.1984 5.8579 22.5061 4.88045 21.5993L5.26795 20.9281C5.54409 20.4498 6.15568 20.2859 6.63397 20.5621L8.36603 21.5621C8.84432 21.8382 9.00819 22.4498 8.73205 22.9281L8.34334 23.6014ZM17.1196 21.5993C16.1421 22.5061 14.9628 23.1984 13.6567 23.6014L13.2679 22.9281C12.9918 22.4498 13.1557 21.8382 13.634 21.5621L15.366 20.5621C15.8443 20.2859 16.4559 20.4498 16.7321 20.9281L17.1196 21.5993ZM19.777 12.9999C19.9229 13.6431 20 14.3125 20 14.9999C20 15.6873 19.9229 16.3567 19.777 16.9999H19C18.4477 16.9999 18 16.5522 18 15.9999V13.9999C18 13.4476 18.4477 12.9999 19 12.9999H19.777ZM11.0164 7.59102C11.2925 7.59102 11.5164 7.36716 11.5164 7.09102C11.5164 6.81488 11.2925 6.59102 11.0164 6.59102C10.7403 6.59102 10.5164 6.81488 10.5164 7.09102C10.5164 7.36716 10.7403 7.59102 11.0164 7.59102ZM11.5164 23.091C11.5164 23.3672 11.2925 23.591 11.0164 23.591C10.7403 23.591 10.5164 23.3672 10.5164 23.091C10.5164 22.8149 10.7403 22.591 11.0164 22.591C11.2925 22.591 11.5164 22.8149 11.5164 23.091ZM17.5116 11.341C17.6497 11.5802 17.9555 11.6621 18.1946 11.524C18.4338 11.386 18.5157 11.0802 18.3776 10.841C18.2395 10.6019 17.9338 10.5199 17.6946 10.658C17.4555 10.7961 17.3735 11.1019 17.5116 11.341ZM4.3382 19.524C4.09905 19.6621 3.79326 19.5802 3.65519 19.341C3.51712 19.1019 3.59905 18.7961 3.8382 18.658C4.07735 18.5199 4.38314 18.6019 4.52121 18.841C4.65928 19.0802 4.57735 19.386 4.3382 19.524ZM17.5116 18.841C17.3735 19.0802 17.4555 19.386 17.6946 19.524C17.9338 19.6621 18.2395 19.5802 18.3776 19.341C18.5157 19.1019 18.4338 18.7961 18.1946 18.658C17.9555 18.5199 17.6497 18.6019 17.5116 18.841ZM3.8382 11.524C3.59905 11.386 3.51712 11.0802 3.65519 10.841C3.79326 10.6019 4.09905 10.5199 4.3382 10.658C4.57735 10.7961 4.65928 11.1019 4.52121 11.341C4.38314 11.5802 4.07735 11.6621 3.8382 11.524Z" fill="white"/>
<g filter="url(#filter2_d)">
<path fill-rule="evenodd" clip-rule="evenodd" d="M11 24C15.9706 24 20 19.9706 20 15C20 10.0294 15.9706 6 11 6C6.02944 6 2 10.0294 2 15C2 19.9706 6.02944 24 11 24Z" fill="#102633"/>
</g>
<mask id="mask4" mask-type="alpha" maskUnits="userSpaceOnUse" x="2" y="6" width="18" height="18">
<path fill-rule="evenodd" clip-rule="evenodd" d="M11 24C15.9706 24 20 19.9706 20 15C20 10.0294 15.9706 6 11 6C6.02944 6 2 10.0294 2 15C2 19.9706 6.02944 24 11 24Z" fill="white"/>
</mask>
<g mask="url(#mask4)">
<path fill-rule="evenodd" clip-rule="evenodd" d="M2 14H2.22023V17.1244H2V14Z" fill="white"/>
<path fill-rule="evenodd" clip-rule="evenodd" d="M20 14H19.7798V17.1244H20V14Z" fill="white"/>
<path fill-rule="evenodd" clip-rule="evenodd" d="M4.88184 20L8.34329 21.0939V23.8686L4.88184 22.7747V20Z" fill="white"/>
<path fill-rule="evenodd" clip-rule="evenodd" d="M17.1201 20.0312L13.6587 21.1251V23.8998L17.1201 22.806V20.0312Z" fill="white"/>
</g>
<path fill-rule="evenodd" clip-rule="evenodd" d="M11 24C15.9706 24 20 19.9706 20 15C20 10.0294 15.9706 6 11 6C6.02944 6 2 10.0294 2 15C2 19.9706 6.02944 24 11 24Z" fill="black" fill-opacity="0.5"/>
<mask id="mask5" mask-type="alpha" maskUnits="userSpaceOnUse" x="2" y="6" width="18" height="18">
<path fill-rule="evenodd" clip-rule="evenodd" d="M11 24C15.9706 24 20 19.9706 20 15C20 10.0294 15.9706 6 11 6C6.02944 6 2 10.0294 2 15C2 19.9706 6.02944 24 11 24Z" fill="white"/>
</mask>
<g mask="url(#mask5)">
</g>
<path fill-rule="evenodd" clip-rule="evenodd" d="M11 23C15.9706 23 20 18.9706 20 14C20 9.02944 15.9706 5 11 5C6.02944 5 2 9.02944 2 14C2 18.9706 6.02944 23 11 23Z" fill="#102633"/>
<path fill-rule="evenodd" clip-rule="evenodd" d="M11 21C14.866 21 18 17.866 18 14C18 10.134 14.866 7 11 7C7.13401 7 4 10.134 4 14C4 17.866 7.13401 21 11 21Z" fill="#102633"/>
<path fill-rule="evenodd" clip-rule="evenodd" d="M11 21C14.866 21 18 17.866 18 14C18 10.134 14.866 7 11 7C7.13401 7 4 10.134 4 14C4 17.866 7.13401 21 11 21Z" fill="black" fill-opacity="0.5"/>
<path fill-rule="evenodd" clip-rule="evenodd" d="M11 20C14.3137 20 17 17.3137 17 14C17 10.6863 14.3137 8 11 8C7.68629 8 5 10.6863 5 14C5 17.3137 7.68629 20 11 20Z" fill="#102633"/>
<path fill-rule="evenodd" clip-rule="evenodd" d="M17.1196 7.40053C16.1421 6.49372 14.9628 5.8014 13.6567 5.39844L13.2679 6.0717C12.9918 6.55 13.1557 7.16159 13.634 7.43773L15.366 8.43773C15.8443 8.71387 16.4559 8.55 16.7321 8.0717L17.1196 7.40053ZM4.88045 7.40053C5.8579 6.49372 7.03715 5.8014 8.34334 5.39844L8.73205 6.0717C9.00819 6.55 8.84432 7.16159 8.36603 7.43773L6.63397 8.43773C6.15568 8.71387 5.54409 8.55 5.26795 8.0717L4.88045 7.40053ZM2.22302 15.9999C2.07706 15.3567 2 14.6873 2 13.9999C2 13.3125 2.07706 12.6431 2.22302 11.9999H3C3.55228 11.9999 4 12.4476 4 12.9999V14.9999C4 15.5522 3.55228 15.9999 3 15.9999H2.22302ZM8.34334 22.6014C7.03715 22.1984 5.8579 21.5061 4.88045 20.5993L5.26795 19.9281C5.54409 19.4498 6.15568 19.2859 6.63397 19.5621L8.36603 20.5621C8.84432 20.8382 9.00819 21.4498 8.73205 21.9281L8.34334 22.6014ZM17.1196 20.5993C16.1421 21.5061 14.9628 22.1984 13.6567 22.6014L13.2679 21.9281C12.9918 21.4498 13.1557 20.8382 13.634 20.5621L15.366 19.5621C15.8443 19.2859 16.4559 19.4498 16.7321 19.9281L17.1196 20.5993ZM19.777 11.9999C19.9229 12.6431 20 13.3125 20 13.9999C20 14.6873 19.9229 15.3567 19.777 15.9999H19C18.4477 15.9999 18 15.5522 18 14.9999V12.9999C18 12.4476 18.4477 11.9999 19 11.9999H19.777ZM11.0164 6.59102C11.2925 6.59102 11.5164 6.36716 11.5164 6.09102C11.5164 5.81488 11.2925 5.59102 11.0164 5.59102C10.7403 5.59102 10.5164 5.81488 10.5164 6.09102C10.5164 6.36716 10.7403 6.59102 11.0164 6.59102ZM11.5164 22.091C11.5164 22.3672 11.2925 22.591 11.0164 22.591C10.7403 22.591 10.5164 22.3672 10.5164 22.091C10.5164 21.8149 10.7403 21.591 11.0164 21.591C11.2925 21.591 11.5164 21.8149 11.5164 22.091ZM17.5116 10.341C17.6497 10.5802 17.9555 10.6621 18.1946 10.524C18.4338 10.386 18.5157 10.0802 18.3776 9.84102C18.2395 9.60188 17.9338 9.51994 17.6946 9.65801C17.4555 9.79608 17.3735 10.1019 17.5116 10.341ZM4.3382 18.524C4.09905 18.6621 3.79326 18.5802 3.65519 18.341C3.51712 18.1019 3.59905 17.7961 3.8382 17.658C4.07735 17.5199 4.38314 17.6019 4.52121 17.841C4.65928 18.0802 4.57735 18.386 4.3382 18.524ZM17.5116 17.841C17.3735 18.0802 17.4555 18.386 17.6946 18.524C17.9338 18.6621 18.2395 18.5802 18.3776 18.341C18.5157 18.1019 18.4338 17.7961 18.1946 17.658C17.9555 17.5199 17.6497 17.6019 17.5116 17.841ZM3.8382 10.524C3.59905 10.386 3.51712 10.0802 3.65519 9.84102C3.79326 9.60188 4.09905 9.51994 4.3382 9.65801C4.57735 9.79608 4.65928 10.1019 4.52121 10.341C4.38314 10.5802 4.07735 10.6621 3.8382 10.524Z" fill="white"/>
<g filter="url(#filter3_d)">
<path fill-rule="evenodd" clip-rule="evenodd" d="M11 23C15.9706 23 20 18.9706 20 14C20 9.02944 15.9706 5 11 5C6.02944 5 2 9.02944 2 14C2 18.9706 6.02944 23 11 23Z" fill="#102633"/>
</g>
<mask id="mask6" mask-type="alpha" maskUnits="userSpaceOnUse" x="2" y="5" width="18" height="18">
<path fill-rule="evenodd" clip-rule="evenodd" d="M11 23C15.9706 23 20 18.9706 20 14C20 9.02944 15.9706 5 11 5C6.02944 5 2 9.02944 2 14C2 18.9706 6.02944 23 11 23Z" fill="white"/>
</mask>
<g mask="url(#mask6)">
<path fill-rule="evenodd" clip-rule="evenodd" d="M2 13H2.22023V16.1244H2V13Z" fill="white"/>
<path fill-rule="evenodd" clip-rule="evenodd" d="M20 13H19.7798V16.1244H20V13Z" fill="white"/>
<path fill-rule="evenodd" clip-rule="evenodd" d="M4.88184 19L8.34329 20.0939V22.8686L4.88184 21.7747V19Z" fill="white"/>
<path fill-rule="evenodd" clip-rule="evenodd" d="M17.1201 19.0312L13.6587 20.1251V22.8998L17.1201 21.806V19.0312Z" fill="white"/>
</g>
<path fill-rule="evenodd" clip-rule="evenodd" d="M11 23C15.9706 23 20 18.9706 20 14C20 9.02944 15.9706 5 11 5C6.02944 5 2 9.02944 2 14C2 18.9706 6.02944 23 11 23Z" fill="black" fill-opacity="0.5"/>
<mask id="mask7" mask-type="alpha" maskUnits="userSpaceOnUse" x="2" y="5" width="18" height="18">
<path fill-rule="evenodd" clip-rule="evenodd" d="M11 23C15.9706 23 20 18.9706 20 14C20 9.02944 15.9706 5 11 5C6.02944 5 2 9.02944 2 14C2 18.9706 6.02944 23 11 23Z" fill="white"/>
</mask>
<g mask="url(#mask7)">
</g>
<path fill-rule="evenodd" clip-rule="evenodd" d="M11 22C15.9706 22 20 17.9706 20 13C20 8.02944 15.9706 4 11 4C6.02944 4 2 8.02944 2 13C2 17.9706 6.02944 22 11 22Z" fill="#102633"/>
<path fill-rule="evenodd" clip-rule="evenodd" d="M11 20C14.866 20 18 16.866 18 13C18 9.13401 14.866 6 11 6C7.13401 6 4 9.13401 4 13C4 16.866 7.13401 20 11 20Z" fill="#102633"/>
<path fill-rule="evenodd" clip-rule="evenodd" d="M11 20C14.866 20 18 16.866 18 13C18 9.13401 14.866 6 11 6C7.13401 6 4 9.13401 4 13C4 16.866 7.13401 20 11 20Z" fill="black" fill-opacity="0.5"/>
<path fill-rule="evenodd" clip-rule="evenodd" d="M11 19C14.3137 19 17 16.3137 17 13C17 9.68629 14.3137 7 11 7C7.68629 7 5 9.68629 5 13C5 16.3137 7.68629 19 11 19Z" fill="#102633"/>
<path fill-rule="evenodd" clip-rule="evenodd" d="M17.1196 6.40053C16.1421 5.49372 14.9628 4.8014 13.6567 4.39844L13.2679 5.0717C12.9918 5.55 13.1557 6.16159 13.634 6.43773L15.366 7.43773C15.8443 7.71387 16.4559 7.55 16.7321 7.0717L17.1196 6.40053ZM4.88045 6.40053C5.8579 5.49372 7.03715 4.8014 8.34334 4.39844L8.73205 5.0717C9.00819 5.55 8.84432 6.16159 8.36603 6.43773L6.63397 7.43773C6.15568 7.71387 5.54409 7.55 5.26795 7.0717L4.88045 6.40053ZM2.22302 14.9999C2.07706 14.3567 2 13.6873 2 12.9999C2 12.3125 2.07706 11.6431 2.22302 10.9999H3C3.55228 10.9999 4 11.4476 4 11.9999V13.9999C4 14.5522 3.55228 14.9999 3 14.9999H2.22302ZM8.34334 21.6014C7.03715 21.1984 5.8579 20.5061 4.88045 19.5993L5.26795 18.9281C5.54409 18.4498 6.15568 18.2859 6.63397 18.5621L8.36603 19.5621C8.84432 19.8382 9.00819 20.4498 8.73205 20.9281L8.34334 21.6014ZM17.1196 19.5993C16.1421 20.5061 14.9628 21.1984 13.6567 21.6014L13.2679 20.9281C12.9918 20.4498 13.1557 19.8382 13.634 19.5621L15.366 18.5621C15.8443 18.2859 16.4559 18.4498 16.7321 18.9281L17.1196 19.5993ZM19.777 10.9999C19.9229 11.6431 20 12.3125 20 12.9999C20 13.6873 19.9229 14.3567 19.777 14.9999H19C18.4477 14.9999 18 14.5522 18 13.9999V11.9999C18 11.4476 18.4477 10.9999 19 10.9999H19.777ZM11.0164 5.59102C11.2925 5.59102 11.5164 5.36716 11.5164 5.09102C11.5164 4.81488 11.2925 4.59102 11.0164 4.59102C10.7403 4.59102 10.5164 4.81488 10.5164 5.09102C10.5164 5.36716 10.7403 5.59102 11.0164 5.59102ZM11.5164 21.091C11.5164 21.3672 11.2925 21.591 11.0164 21.591C10.7403 21.591 10.5164 21.3672 10.5164 21.091C10.5164 20.8149 10.7403 20.591 11.0164 20.591C11.2925 20.591 11.5164 20.8149 11.5164 21.091ZM17.5116 9.34102C17.6497 9.58017 17.9555 9.66211 18.1946 9.52403C18.4338 9.38596 18.5157 9.08017 18.3776 8.84102C18.2395 8.60188 17.9338 8.51994 17.6946 8.65801C17.4555 8.79608 17.3735 9.10188 17.5116 9.34102ZM4.3382 17.524C4.09905 17.6621 3.79326 17.5802 3.65519 17.341C3.51712 17.1019 3.59905 16.7961 3.8382 16.658C4.07735 16.5199 4.38314 16.6019 4.52121 16.841C4.65928 17.0802 4.57735 17.386 4.3382 17.524ZM17.5116 16.841C17.3735 17.0802 17.4555 17.386 17.6946 17.524C17.9338 17.6621 18.2395 17.5802 18.3776 17.341C18.5157 17.1019 18.4338 16.7961 18.1946 16.658C17.9555 16.5199 17.6497 16.6019 17.5116 16.841ZM3.8382 9.52403C3.59905 9.38596 3.51712 9.08017 3.65519 8.84102C3.79326 8.60188 4.09905 8.51994 4.3382 8.65801C4.57735 8.79608 4.65928 9.10188 4.52121 9.34102C4.38314 9.58017 4.07735 9.66211 3.8382 9.52403Z" fill="white"/>
<g filter="url(#filter4_d)">
<path fill-rule="evenodd" clip-rule="evenodd" d="M11 22C15.9706 22 20 17.9706 20 13C20 8.02944 15.9706 4 11 4C6.02944 4 2 8.02944 2 13C2 17.9706 6.02944 22 11 22Z" fill="#102633"/>
</g>
<mask id="mask8" mask-type="alpha" maskUnits="userSpaceOnUse" x="2" y="4" width="18" height="18">
<path fill-rule="evenodd" clip-rule="evenodd" d="M11 22C15.9706 22 20 17.9706 20 13C20 8.02944 15.9706 4 11 4C6.02944 4 2 8.02944 2 13C2 17.9706 6.02944 22 11 22Z" fill="white"/>
</mask>
<g mask="url(#mask8)">
<path fill-rule="evenodd" clip-rule="evenodd" d="M2 12H2.22023V15.1244H2V12Z" fill="white"/>
<path fill-rule="evenodd" clip-rule="evenodd" d="M20 12H19.7798V15.1244H20V12Z" fill="white"/>
<path fill-rule="evenodd" clip-rule="evenodd" d="M4.88184 18L8.34329 19.0939V21.8686L4.88184 20.7747V18Z" fill="white"/>
<path fill-rule="evenodd" clip-rule="evenodd" d="M17.1201 18.0312L13.6587 19.1251V21.8998L17.1201 20.806V18.0312Z" fill="white"/>
</g>
<path fill-rule="evenodd" clip-rule="evenodd" d="M11 22C15.9706 22 20 17.9706 20 13C20 8.02944 15.9706 4 11 4C6.02944 4 2 8.02944 2 13C2 17.9706 6.02944 22 11 22Z" fill="black" fill-opacity="0.5"/>
<mask id="mask9" mask-type="alpha" maskUnits="userSpaceOnUse" x="2" y="4" width="18" height="18">
<path fill-rule="evenodd" clip-rule="evenodd" d="M11 22C15.9706 22 20 17.9706 20 13C20 8.02944 15.9706 4 11 4C6.02944 4 2 8.02944 2 13C2 17.9706 6.02944 22 11 22Z" fill="white"/>
</mask>
<g mask="url(#mask9)">
</g>
<path fill-rule="evenodd" clip-rule="evenodd" d="M11 21C15.9706 21 20 16.9706 20 12C20 7.02944 15.9706 3 11 3C6.02944 3 2 7.02944 2 12C2 16.9706 6.02944 21 11 21Z" fill="#102633"/>
<path fill-rule="evenodd" clip-rule="evenodd" d="M11 19C14.866 19 18 15.866 18 12C18 8.13401 14.866 5 11 5C7.13401 5 4 8.13401 4 12C4 15.866 7.13401 19 11 19Z" fill="#102633"/>
<path fill-rule="evenodd" clip-rule="evenodd" d="M11 19C14.866 19 18 15.866 18 12C18 8.13401 14.866 5 11 5C7.13401 5 4 8.13401 4 12C4 15.866 7.13401 19 11 19Z" fill="black" fill-opacity="0.5"/>
<path fill-rule="evenodd" clip-rule="evenodd" d="M11 18C14.3137 18 17 15.3137 17 12C17 8.68629 14.3137 6 11 6C7.68629 6 5 8.68629 5 12C5 15.3137 7.68629 18 11 18Z" fill="#102633"/>
<path fill-rule="evenodd" clip-rule="evenodd" d="M17.1196 5.40053C16.1421 4.49372 14.9628 3.8014 13.6567 3.39844L13.2679 4.0717C12.9918 4.55 13.1557 5.16159 13.634 5.43773L15.366 6.43773C15.8443 6.71387 16.4559 6.55 16.7321 6.0717L17.1196 5.40053ZM4.88045 5.40053C5.8579 4.49372 7.03715 3.8014 8.34334 3.39844L8.73205 4.0717C9.00819 4.55 8.84432 5.16159 8.36603 5.43773L6.63397 6.43773C6.15568 6.71387 5.54409 6.55 5.26795 6.0717L4.88045 5.40053ZM2.22302 13.9999C2.07706 13.3567 2 12.6873 2 11.9999C2 11.3125 2.07706 10.6431 2.22302 9.99991H3C3.55228 9.99991 4 10.4476 4 10.9999V12.9999C4 13.5522 3.55228 13.9999 3 13.9999H2.22302ZM8.34334 20.6014C7.03715 20.1984 5.8579 19.5061 4.88045 18.5993L5.26795 17.9281C5.54409 17.4498 6.15568 17.2859 6.63397 17.5621L8.36603 18.5621C8.84432 18.8382 9.00819 19.4498 8.73205 19.9281L8.34334 20.6014ZM17.1196 18.5993C16.1421 19.5061 14.9628 20.1984 13.6567 20.6014L13.2679 19.9281C12.9918 19.4498 13.1557 18.8382 13.634 18.5621L15.366 17.5621C15.8443 17.2859 16.4559 17.4498 16.7321 17.9281L17.1196 18.5993ZM19.777 9.99991C19.9229 10.6431 20 11.3125 20 11.9999C20 12.6873 19.9229 13.3567 19.777 13.9999H19C18.4477 13.9999 18 13.5522 18 12.9999V10.9999C18 10.4476 18.4477 9.99991 19 9.99991H19.777ZM11.0164 4.59102C11.2925 4.59102 11.5164 4.36716 11.5164 4.09102C11.5164 3.81488 11.2925 3.59102 11.0164 3.59102C10.7403 3.59102 10.5164 3.81488 10.5164 4.09102C10.5164 4.36716 10.7403 4.59102 11.0164 4.59102ZM11.5164 20.091C11.5164 20.3672 11.2925 20.591 11.0164 20.591C10.7403 20.591 10.5164 20.3672 10.5164 20.091C10.5164 19.8149 10.7403 19.591 11.0164 19.591C11.2925 19.591 11.5164 19.8149 11.5164 20.091ZM17.5116 8.34102C17.6497 8.58017 17.9555 8.66211 18.1946 8.52403C18.4338 8.38596 18.5157 8.08017 18.3776 7.84102C18.2395 7.60188 17.9338 7.51994 17.6946 7.65801C17.4555 7.79608 17.3735 8.10188 17.5116 8.34102ZM4.3382 16.524C4.09905 16.6621 3.79326 16.5802 3.65519 16.341C3.51712 16.1019 3.59905 15.7961 3.8382 15.658C4.07735 15.5199 4.38314 15.6019 4.52121 15.841C4.65928 16.0802 4.57735 16.386 4.3382 16.524ZM17.5116 15.841C17.3735 16.0802 17.4555 16.386 17.6946 16.524C17.9338 16.6621 18.2395 16.5802 18.3776 16.341C18.5157 16.1019 18.4338 15.7961 18.1946 15.658C17.9555 15.5199 17.6497 15.6019 17.5116 15.841ZM3.8382 8.52403C3.59905 8.38596 3.51712 8.08017 3.65519 7.84102C3.79326 7.60188 4.09905 7.51994 4.3382 7.65801C4.57735 7.79608 4.65928 8.10188 4.52121 8.34102C4.38314 8.58017 4.07735 8.66211 3.8382 8.52403Z" fill="white"/>
<g filter="url(#filter5_d)">
<path fill-rule="evenodd" clip-rule="evenodd" d="M11 21C15.9706 21 20 16.9706 20 12C20 7.02944 15.9706 3 11 3C6.02944 3 2 7.02944 2 12C2 16.9706 6.02944 21 11 21Z" fill="#102633"/>
</g>
<mask id="mask10" mask-type="alpha" maskUnits="userSpaceOnUse" x="2" y="3" width="18" height="18">
<path fill-rule="evenodd" clip-rule="evenodd" d="M11 21C15.9706 21 20 16.9706 20 12C20 7.02944 15.9706 3 11 3C6.02944 3 2 7.02944 2 12C2 16.9706 6.02944 21 11 21Z" fill="white"/>
</mask>
<g mask="url(#mask10)">
<path fill-rule="evenodd" clip-rule="evenodd" d="M2 11H2.22023V14.1244H2V11Z" fill="white"/>
<path fill-rule="evenodd" clip-rule="evenodd" d="M20 11H19.7798V14.1244H20V11Z" fill="white"/>
<path fill-rule="evenodd" clip-rule="evenodd" d="M4.88184 17L8.34329 18.0939V20.8686L4.88184 19.7747V17Z" fill="white"/>
<path fill-rule="evenodd" clip-rule="evenodd" d="M17.1201 17.0312L13.6587 18.1251V20.8998L17.1201 19.806V17.0312Z" fill="white"/>
</g>
<path fill-rule="evenodd" clip-rule="evenodd" d="M11 21C15.9706 21 20 16.9706 20 12C20 7.02944 15.9706 3 11 3C6.02944 3 2 7.02944 2 12C2 16.9706 6.02944 21 11 21Z" fill="black" fill-opacity="0.5"/>
<mask id="mask11" mask-type="alpha" maskUnits="userSpaceOnUse" x="2" y="3" width="18" height="18">
<path fill-rule="evenodd" clip-rule="evenodd" d="M11 21C15.9706 21 20 16.9706 20 12C20 7.02944 15.9706 3 11 3C6.02944 3 2 7.02944 2 12C2 16.9706 6.02944 21 11 21Z" fill="white"/>
</mask>
<g mask="url(#mask11)">
</g>
<path fill-rule="evenodd" clip-rule="evenodd" d="M11 20C15.9706 20 20 15.9706 20 11C20 6.02944 15.9706 2 11 2C6.02944 2 2 6.02944 2 11C2 15.9706 6.02944 20 11 20Z" fill="#102633"/>
<path fill-rule="evenodd" clip-rule="evenodd" d="M11 18C14.866 18 18 14.866 18 11C18 7.13401 14.866 4 11 4C7.13401 4 4 7.13401 4 11C4 14.866 7.13401 18 11 18Z" fill="#102633"/>
<path fill-rule="evenodd" clip-rule="evenodd" d="M11 18C14.866 18 18 14.866 18 11C18 7.13401 14.866 4 11 4C7.13401 4 4 7.13401 4 11C4 14.866 7.13401 18 11 18Z" fill="black" fill-opacity="0.5"/>
<path fill-rule="evenodd" clip-rule="evenodd" d="M11 17C14.3137 17 17 14.3137 17 11C17 7.68629 14.3137 5 11 5C7.68629 5 5 7.68629 5 11C5 14.3137 7.68629 17 11 17Z" fill="#102633"/>
<path fill-rule="evenodd" clip-rule="evenodd" d="M17.1196 4.40053C16.1421 3.49372 14.9628 2.8014 13.6567 2.39844L13.2679 3.0717C12.9918 3.55 13.1557 4.16159 13.634 4.43773L15.366 5.43773C15.8443 5.71387 16.4559 5.55 16.7321 5.0717L17.1196 4.40053ZM4.88045 4.40053C5.8579 3.49372 7.03715 2.8014 8.34334 2.39844L8.73205 3.0717C9.00819 3.55 8.84432 4.16159 8.36603 4.43773L6.63397 5.43773C6.15568 5.71387 5.54409 5.55 5.26795 5.0717L4.88045 4.40053ZM2.22302 12.9999C2.07706 12.3567 2 11.6873 2 10.9999C2 10.3125 2.07706 9.64313 2.22302 8.99991H3C3.55228 8.99991 4 9.44762 4 9.99991V11.9999C4 12.5522 3.55228 12.9999 3 12.9999H2.22302ZM8.34334 19.6014C7.03715 19.1984 5.8579 18.5061 4.88045 17.5993L5.26795 16.9281C5.54409 16.4498 6.15568 16.2859 6.63397 16.5621L8.36603 17.5621C8.84432 17.8382 9.00819 18.4498 8.73205 18.9281L8.34334 19.6014ZM17.1196 17.5993C16.1421 18.5061 14.9628 19.1984 13.6567 19.6014L13.2679 18.9281C12.9918 18.4498 13.1557 17.8382 13.634 17.5621L15.366 16.5621C15.8443 16.2859 16.4559 16.4498 16.7321 16.9281L17.1196 17.5993ZM19.777 8.99991C19.9229 9.64313 20 10.3125 20 10.9999C20 11.6873 19.9229 12.3567 19.777 12.9999H19C18.4477 12.9999 18 12.5522 18 11.9999V9.99991C18 9.44762 18.4477 8.99991 19 8.99991H19.777ZM11.0164 3.59102C11.2925 3.59102 11.5164 3.36716 11.5164 3.09102C11.5164 2.81488 11.2925 2.59102 11.0164 2.59102C10.7403 2.59102 10.5164 2.81488 10.5164 3.09102C10.5164 3.36716 10.7403 3.59102 11.0164 3.59102ZM11.5164 19.091C11.5164 19.3672 11.2925 19.591 11.0164 19.591C10.7403 19.591 10.5164 19.3672 10.5164 19.091C10.5164 18.8149 10.7403 18.591 11.0164 18.591C11.2925 18.591 11.5164 18.8149 11.5164 19.091ZM17.5116 7.34102C17.6497 7.58017 17.9555 7.66211 18.1946 7.52403C18.4338 7.38596 18.5157 7.08017 18.3776 6.84102C18.2395 6.60188 17.9338 6.51994 17.6946 6.65801C17.4555 6.79608 17.3735 7.10188 17.5116 7.34102ZM4.3382 15.524C4.09905 15.6621 3.79326 15.5802 3.65519 15.341C3.51712 15.1019 3.59905 14.7961 3.8382 14.658C4.07735 14.5199 4.38314 14.6019 4.52121 14.841C4.65928 15.0802 4.57735 15.386 4.3382 15.524ZM17.5116 14.841C17.3735 15.0802 17.4555 15.386 17.6946 15.524C17.9338 15.6621 18.2395 15.5802 18.3776 15.341C18.5157 15.1019 18.4338 14.7961 18.1946 14.658C17.9555 14.5199 17.6497 14.6019 17.5116 14.841ZM3.8382 7.52403C3.59905 7.38596 3.51712 7.08017 3.65519 6.84102C3.79326 6.60188 4.09905 6.51994 4.3382 6.65801C4.57735 6.79608 4.65928 7.10188 4.52121 7.34102C4.38314 7.58017 4.07735 7.66211 3.8382 7.52403Z" fill="white"/>
<g filter="url(#filter6_d)">
<path fill-rule="evenodd" clip-rule="evenodd" d="M11 20C15.9706 20 20 15.9706 20 11C20 6.02944 15.9706 2 11 2C6.02944 2 2 6.02944 2 11C2 15.9706 6.02944 20 11 20Z" fill="#102633"/>
</g>
<mask id="mask12" mask-type="alpha" maskUnits="userSpaceOnUse" x="2" y="2" width="18" height="18">
<path fill-rule="evenodd" clip-rule="evenodd" d="M11 20C15.9706 20 20 15.9706 20 11C20 6.02944 15.9706 2 11 2C6.02944 2 2 6.02944 2 11C2 15.9706 6.02944 20 11 20Z" fill="white"/>
</mask>
<g mask="url(#mask12)">
<path fill-rule="evenodd" clip-rule="evenodd" d="M2 10H2.22023V13.1244H2V10Z" fill="white"/>
<path fill-rule="evenodd" clip-rule="evenodd" d="M20 10H19.7798V13.1244H20V10Z" fill="white"/>
<path fill-rule="evenodd" clip-rule="evenodd" d="M4.88184 16L8.34329 17.0939V19.8686L4.88184 18.7747V16Z" fill="white"/>
<path fill-rule="evenodd" clip-rule="evenodd" d="M17.1201 16.0312L13.6587 17.1251V19.8998L17.1201 18.806V16.0312Z" fill="white"/>
</g>
<path fill-rule="evenodd" clip-rule="evenodd" d="M11 20C15.9706 20 20 15.9706 20 11C20 6.02944 15.9706 2 11 2C6.02944 2 2 6.02944 2 11C2 15.9706 6.02944 20 11 20Z" fill="black" fill-opacity="0.5"/>
<mask id="mask13" mask-type="alpha" maskUnits="userSpaceOnUse" x="2" y="2" width="18" height="18">
<path fill-rule="evenodd" clip-rule="evenodd" d="M11 20C15.9706 20 20 15.9706 20 11C20 6.02944 15.9706 2 11 2C6.02944 2 2 6.02944 2 11C2 15.9706 6.02944 20 11 20Z" fill="white"/>
</mask>
<g mask="url(#mask13)">
</g>
<path fill-rule="evenodd" clip-rule="evenodd" d="M11 19C15.9706 19 20 14.9706 20 10C20 5.02944 15.9706 1 11 1C6.02944 1 2 5.02944 2 10C2 14.9706 6.02944 19 11 19Z" fill="#102633"/>
<path fill-rule="evenodd" clip-rule="evenodd" d="M11 17C14.866 17 18 13.866 18 10C18 6.13401 14.866 3 11 3C7.13401 3 4 6.13401 4 10C4 13.866 7.13401 17 11 17Z" fill="#102633"/>
<path fill-rule="evenodd" clip-rule="evenodd" d="M11 17C14.866 17 18 13.866 18 10C18 6.13401 14.866 3 11 3C7.13401 3 4 6.13401 4 10C4 13.866 7.13401 17 11 17Z" fill="black" fill-opacity="0.5"/>
<path fill-rule="evenodd" clip-rule="evenodd" d="M11 16C14.3137 16 17 13.3137 17 10C17 6.68629 14.3137 4 11 4C7.68629 4 5 6.68629 5 10C5 13.3137 7.68629 16 11 16Z" fill="#102633"/>
<path fill-rule="evenodd" clip-rule="evenodd" d="M17.1196 3.40053C16.1421 2.49372 14.9628 1.8014 13.6567 1.39844L13.2679 2.0717C12.9918 2.55 13.1557 3.16159 13.634 3.43773L15.366 4.43773C15.8443 4.71387 16.4559 4.55 16.7321 4.0717L17.1196 3.40053ZM4.88045 3.40053C5.8579 2.49372 7.03715 1.8014 8.34334 1.39844L8.73205 2.0717C9.00819 2.55 8.84432 3.16159 8.36603 3.43773L6.63397 4.43773C6.15568 4.71387 5.54409 4.55 5.26795 4.0717L4.88045 3.40053ZM2.22302 11.9999C2.07706 11.3567 2 10.6873 2 9.99991C2 9.31252 2.07706 8.64313 2.22302 7.99991H3C3.55228 7.99991 4 8.44762 4 8.99991V10.9999C4 11.5522 3.55228 11.9999 3 11.9999H2.22302ZM8.34334 18.6014C7.03715 18.1984 5.8579 17.5061 4.88045 16.5993L5.26795 15.9281C5.54409 15.4498 6.15568 15.2859 6.63397 15.5621L8.36603 16.5621C8.84432 16.8382 9.00819 17.4498 8.73205 17.9281L8.34334 18.6014ZM17.1196 16.5993C16.1421 17.5061 14.9628 18.1984 13.6567 18.6014L13.2679 17.9281C12.9918 17.4498 13.1557 16.8382 13.634 16.5621L15.366 15.5621C15.8443 15.2859 16.4559 15.4498 16.7321 15.9281L17.1196 16.5993ZM19.777 7.99991C19.9229 8.64313 20 9.31252 20 9.99991C20 10.6873 19.9229 11.3567 19.777 11.9999H19C18.4477 11.9999 18 11.5522 18 10.9999V8.99991C18 8.44762 18.4477 7.99991 19 7.99991H19.777ZM11.0164 2.59102C11.2925 2.59102 11.5164 2.36716 11.5164 2.09102C11.5164 1.81488 11.2925 1.59102 11.0164 1.59102C10.7403 1.59102 10.5164 1.81488 10.5164 2.09102C10.5164 2.36716 10.7403 2.59102 11.0164 2.59102ZM11.5164 18.091C11.5164 18.3672 11.2925 18.591 11.0164 18.591C10.7403 18.591 10.5164 18.3672 10.5164 18.091C10.5164 17.8149 10.7403 17.591 11.0164 17.591C11.2925 17.591 11.5164 17.8149 11.5164 18.091ZM17.5116 6.34102C17.6497 6.58017 17.9555 6.66211 18.1946 6.52403C18.4338 6.38596 18.5157 6.08017 18.3776 5.84102C18.2395 5.60188 17.9338 5.51994 17.6946 5.65801C17.4555 5.79608 17.3735 6.10188 17.5116 6.34102ZM4.3382 14.524C4.09905 14.6621 3.79326 14.5802 3.65519 14.341C3.51712 14.1019 3.59905 13.7961 3.8382 13.658C4.07735 13.5199 4.38314 13.6019 4.52121 13.841C4.65928 14.0802 4.57735 14.386 4.3382 14.524ZM17.5116 13.841C17.3735 14.0802 17.4555 14.386 17.6946 14.524C17.9338 14.6621 18.2395 14.5802 18.3776 14.341C18.5157 14.1019 18.4338 13.7961 18.1946 13.658C17.9555 13.5199 17.6497 13.6019 17.5116 13.841ZM3.8382 6.52403C3.59905 6.38596 3.51712 6.08017 3.65519 5.84102C3.79326 5.60188 4.09905 5.51994 4.3382 5.65801C4.57735 5.79608 4.65928 6.10188 4.52121 6.34102C4.38314 6.58017 4.07735 6.66211 3.8382 6.52403Z" fill="white"/>
<g filter="url(#filter7_d)">
<path fill-rule="evenodd" clip-rule="evenodd" d="M11 19C15.9706 19 20 14.9706 20 10C20 5.02944 15.9706 1 11 1C6.02944 1 2 5.02944 2 10C2 14.9706 6.02944 19 11 19Z" fill="#102633"/>
</g>
<mask id="mask14" mask-type="alpha" maskUnits="userSpaceOnUse" x="2" y="1" width="18" height="18">
<path fill-rule="evenodd" clip-rule="evenodd" d="M11 19C15.9706 19 20 14.9706 20 10C20 5.02944 15.9706 1 11 1C6.02944 1 2 5.02944 2 10C2 14.9706 6.02944 19 11 19Z" fill="white"/>
</mask>
<g mask="url(#mask14)">
<path fill-rule="evenodd" clip-rule="evenodd" d="M2 9H2.22023V12.1244H2V9Z" fill="white"/>
<path fill-rule="evenodd" clip-rule="evenodd" d="M20 9H19.7798V12.1244H20V9Z" fill="white"/>
<path fill-rule="evenodd" clip-rule="evenodd" d="M4.88184 15L8.34329 16.0939V18.8686L4.88184 17.7747V15Z" fill="white"/>
<path fill-rule="evenodd" clip-rule="evenodd" d="M17.1201 15.0312L13.6587 16.1251V18.8998L17.1201 17.806V15.0312Z" fill="white"/>
</g>
<path fill-rule="evenodd" clip-rule="evenodd" d="M11 19C15.9706 19 20 14.9706 20 10C20 5.02944 15.9706 1 11 1C6.02944 1 2 5.02944 2 10C2 14.9706 6.02944 19 11 19Z" fill="black" fill-opacity="0.5"/>
<mask id="mask15" mask-type="alpha" maskUnits="userSpaceOnUse" x="2" y="1" width="18" height="18">
<path fill-rule="evenodd" clip-rule="evenodd" d="M11 19C15.9706 19 20 14.9706 20 10C20 5.02944 15.9706 1 11 1C6.02944 1 2 5.02944 2 10C2 14.9706 6.02944 19 11 19Z" fill="white"/>
</mask>
<g mask="url(#mask15)">
</g>
<path fill-rule="evenodd" clip-rule="evenodd" d="M11 18C15.9706 18 20 13.9706 20 9C20 4.02944 15.9706 0 11 0C6.02944 0 2 4.02944 2 9C2 13.9706 6.02944 18 11 18Z" fill="#102633"/>
<path fill-rule="evenodd" clip-rule="evenodd" d="M11 16C14.866 16 18 12.866 18 9C18 5.13401 14.866 2 11 2C7.13401 2 4 5.13401 4 9C4 12.866 7.13401 16 11 16Z" fill="#102633"/>
<path fill-rule="evenodd" clip-rule="evenodd" d="M11 16C14.866 16 18 12.866 18 9C18 5.13401 14.866 2 11 2C7.13401 2 4 5.13401 4 9C4 12.866 7.13401 16 11 16Z" fill="black" fill-opacity="0.75"/>
<path fill-rule="evenodd" clip-rule="evenodd" d="M11 15C14.3137 15 17 12.3137 17 9C17 5.68629 14.3137 3 11 3C7.68629 3 5 5.68629 5 9C5 12.3137 7.68629 15 11 15Z" fill="#102633"/>
<path fill-rule="evenodd" clip-rule="evenodd" d="M17.1196 2.40053C16.1421 1.49372 14.9628 0.801404 13.6567 0.398438L13.2679 1.0717C12.9918 1.55 13.1557 2.16159 13.634 2.43773L15.366 3.43773C15.8443 3.71387 16.4559 3.55 16.7321 3.0717L17.1196 2.40053ZM4.88045 2.40053C5.8579 1.49372 7.03715 0.801404 8.34334 0.398438L8.73205 1.0717C9.00819 1.55 8.84432 2.16159 8.36603 2.43773L6.63397 3.43773C6.15568 3.71387 5.54409 3.55 5.26795 3.0717L4.88045 2.40053ZM2.22302 10.9999C2.07706 10.3567 2 9.68729 2 8.99991C2 8.31252 2.07706 7.64313 2.22302 6.99991H3C3.55228 6.99991 4 7.44762 4 7.99991V9.99991C4 10.5522 3.55228 10.9999 3 10.9999H2.22302ZM8.34334 17.6014C7.03715 17.1984 5.8579 16.5061 4.88045 15.5993L5.26795 14.9281C5.54409 14.4498 6.15568 14.2859 6.63397 14.5621L8.36603 15.5621C8.84432 15.8382 9.00819 16.4498 8.73205 16.9281L8.34334 17.6014ZM17.1196 15.5993C16.1421 16.5061 14.9628 17.1984 13.6567 17.6014L13.2679 16.9281C12.9918 16.4498 13.1557 15.8382 13.634 15.5621L15.366 14.5621C15.8443 14.2859 16.4559 14.4498 16.7321 14.9281L17.1196 15.5993ZM19.777 6.99991C19.9229 7.64313 20 8.31252 20 8.99991C20 9.68729 19.9229 10.3567 19.777 10.9999H19C18.4477 10.9999 18 10.5522 18 9.99991V7.99991C18 7.44762 18.4477 6.99991 19 6.99991H19.777ZM11.0164 1.59102C11.2925 1.59102 11.5164 1.36716 11.5164 1.09102C11.5164 0.814879 11.2925 0.591022 11.0164 0.591022C10.7403 0.591022 10.5164 0.814879 10.5164 1.09102C10.5164 1.36716 10.7403 1.59102 11.0164 1.59102ZM11.5164 17.091C11.5164 17.3672 11.2925 17.591 11.0164 17.591C10.7403 17.591 10.5164 17.3672 10.5164 17.091C10.5164 16.8149 10.7403 16.591 11.0164 16.591C11.2925 16.591 11.5164 16.8149 11.5164 17.091ZM17.5116 5.34102C17.6497 5.58017 17.9555 5.66211 18.1946 5.52403C18.4338 5.38596 18.5157 5.08017 18.3776 4.84102C18.2395 4.60188 17.9338 4.51994 17.6946 4.65801C17.4555 4.79608 17.3735 5.10188 17.5116 5.34102ZM4.3382 13.524C4.09905 13.6621 3.79326 13.5802 3.65519 13.341C3.51712 13.1019 3.59905 12.7961 3.8382 12.658C4.07735 12.5199 4.38314 12.6019 4.52121 12.841C4.65928 13.0802 4.57735 13.386 4.3382 13.524ZM17.5116 12.841C17.3735 13.0802 17.4555 13.386 17.6946 13.524C17.9338 13.6621 18.2395 13.5802 18.3776 13.341C18.5157 13.1019 18.4338 12.7961 18.1946 12.658C17.9555 12.5199 17.6497 12.6019 17.5116 12.841ZM3.8382 5.52403C3.59905 5.38596 3.51712 5.08017 3.65519 4.84102C3.79326 4.60188 4.09905 4.51994 4.3382 4.65801C4.57735 4.79608 4.65928 5.10188 4.52121 5.34102C4.38314 5.58017 4.07735 5.66211 3.8382 5.52403Z" fill="white"/>
<path fill-rule="evenodd" clip-rule="evenodd" d="M8.51367 11.083H7.33887V8.81543C7.33887 8.54004 7.34473 8.28809 7.35645 8.05957C7.28418 8.14746 7.19434 8.23926 7.08691 8.33496L6.60059 8.73633L6 7.99805L7.4707 6.7998H8.51367V11.083ZM12.5742 8.94727C12.5742 9.70508 12.4473 10.2603 12.1934 10.6128C11.9395 10.9653 11.5508 11.1416 11.0273 11.1416C10.5156 11.1416 10.1299 10.9575 9.87012 10.5894C9.61035 10.2212 9.48047 9.67383 9.48047 8.94727C9.48047 8.18554 9.60742 7.62695 9.86133 7.27148C10.1152 6.91601 10.5039 6.73828 11.0273 6.73828C11.5371 6.73828 11.9224 6.92334 12.1831 7.29346C12.4438 7.66358 12.5742 8.21484 12.5742 8.94727ZM10.6318 8.94727C10.6318 9.43164 10.6621 9.76465 10.7227 9.94629C10.7832 10.1279 10.8848 10.2188 11.0273 10.2188C11.1719 10.2188 11.2739 10.125 11.3335 9.9375C11.3931 9.75 11.4229 9.41992 11.4229 8.94727C11.4229 8.47265 11.3926 8.14014 11.332 7.94971C11.2715 7.75928 11.1699 7.66406 11.0273 7.66406C10.8848 7.66406 10.7832 7.75586 10.7227 7.93945C10.6621 8.12305 10.6318 8.45898 10.6318 8.94727ZM16.0898 8.94727C16.0898 9.70508 15.9629 10.2603 15.709 10.6128C15.4551 10.9653 15.0664 11.1416 14.543 11.1416C14.0312 11.1416 13.6455 10.9575 13.3857 10.5894C13.126 10.2212 12.9961 9.67383 12.9961 8.94727C12.9961 8.18554 13.123 7.62695 13.377 7.27148C13.6309 6.91601 14.0195 6.73828 14.543 6.73828C15.0527 6.73828 15.438 6.92334 15.6987 7.29346C15.9595 7.66358 16.0898 8.21484 16.0898 8.94727ZM14.1475 8.94727C14.1475 9.43164 14.1777 9.76465 14.2383 9.94629C14.2988 10.1279 14.4004 10.2188 14.543 10.2188C14.6875 10.2188 14.7896 10.125 14.8491 9.9375C14.9087 9.75 14.9385 9.41992 14.9385 8.94727C14.9385 8.47265 14.9082 8.14014 14.8477 7.94971C14.7871 7.75928 14.6855 7.66406 14.543 7.66406C14.4004 7.66406 14.2988 7.75586 14.2383 7.93945C14.1777 8.12305 14.1475 8.45898 14.1475 8.94727Z" fill="white"/>
<defs>
<filter id="filter0_d" x="0" y="7" width="22" height="22" filterUnits="userSpaceOnUse" color-interpolation-filters="sRGB">
<feFlood flood-opacity="0" result="BackgroundImageFix"/>
<feColorMatrix in="SourceAlpha" type="matrix" values="0 0 0 0 0 0 0 0 0 0 0 0 0 0 0 0 0 0 127 0"/>
<feOffset dy="1"/>
<feGaussianBlur stdDeviation="1"/>
<feColorMatrix type="matrix" values="0 0 0 0 0.0627451 0 0 0 0 0.14902 0 0 0 0 0.2 0 0 0 0.35 0"/>
<feBlend mode="normal" in2="BackgroundImageFix" result="effect1_dropShadow"/>
<feBlend mode="normal" in="SourceGraphic" in2="effect1_dropShadow" result="shape"/>
</filter>
<filter id="filter1_d" x="0" y="6" width="22" height="22" filterUnits="userSpaceOnUse" color-interpolation-filters="sRGB">
<feFlood flood-opacity="0" result="BackgroundImageFix"/>
<feColorMatrix in="SourceAlpha" type="matrix" values="0 0 0 0 0 0 0 0 0 0 0 0 0 0 0 0 0 0 127 0"/>
<feOffset dy="1"/>
<feGaussianBlur stdDeviation="1"/>
<feColorMatrix type="matrix" values="0 0 0 0 0.0627451 0 0 0 0 0.14902 0 0 0 0 0.2 0 0 0 0.35 0"/>
<feBlend mode="normal" in2="BackgroundImageFix" result="effect1_dropShadow"/>
<feBlend mode="normal" in="SourceGraphic" in2="effect1_dropShadow" result="shape"/>
</filter>
<filter id="filter2_d" x="0" y="5" width="22" height="22" filterUnits="userSpaceOnUse" color-interpolation-filters="sRGB">
<feFlood flood-opacity="0" result="BackgroundImageFix"/>
<feColorMatrix in="SourceAlpha" type="matrix" values="0 0 0 0 0 0 0 0 0 0 0 0 0 0 0 0 0 0 127 0"/>
<feOffset dy="1"/>
<feGaussianBlur stdDeviation="1"/>
<feColorMatrix type="matrix" values="0 0 0 0 0.0627451 0 0 0 0 0.14902 0 0 0 0 0.2 0 0 0 0.35 0"/>
<feBlend mode="normal" in2="BackgroundImageFix" result="effect1_dropShadow"/>
<feBlend mode="normal" in="SourceGraphic" in2="effect1_dropShadow" result="shape"/>
</filter>
<filter id="filter3_d" x="0" y="4" width="22" height="22" filterUnits="userSpaceOnUse" color-interpolation-filters="sRGB">
<feFlood flood-opacity="0" result="BackgroundImageFix"/>
<feColorMatrix in="SourceAlpha" type="matrix" values="0 0 0 0 0 0 0 0 0 0 0 0 0 0 0 0 0 0 127 0"/>
<feOffset dy="1"/>
<feGaussianBlur stdDeviation="1"/>
<feColorMatrix type="matrix" values="0 0 0 0 0.0627451 0 0 0 0 0.14902 0 0 0 0 0.2 0 0 0 0.35 0"/>
<feBlend mode="normal" in2="BackgroundImageFix" result="effect1_dropShadow"/>
<feBlend mode="normal" in="SourceGraphic" in2="effect1_dropShadow" result="shape"/>
</filter>
<filter id="filter4_d" x="0" y="3" width="22" height="22" filterUnits="userSpaceOnUse" color-interpolation-filters="sRGB">
<feFlood flood-opacity="0" result="BackgroundImageFix"/>
<feColorMatrix in="SourceAlpha" type="matrix" values="0 0 0 0 0 0 0 0 0 0 0 0 0 0 0 0 0 0 127 0"/>
<feOffset dy="1"/>
<feGaussianBlur stdDeviation="1"/>
<feColorMatrix type="matrix" values="0 0 0 0 0.0627451 0 0 0 0 0.14902 0 0 0 0 0.2 0 0 0 0.35 0"/>
<feBlend mode="normal" in2="BackgroundImageFix" result="effect1_dropShadow"/>
<feBlend mode="normal" in="SourceGraphic" in2="effect1_dropShadow" result="shape"/>
</filter>
<filter id="filter5_d" x="0" y="2" width="22" height="22" filterUnits="userSpaceOnUse" color-interpolation-filters="sRGB">
<feFlood flood-opacity="0" result="BackgroundImageFix"/>
<feColorMatrix in="SourceAlpha" type="matrix" values="0 0 0 0 0 0 0 0 0 0 0 0 0 0 0 0 0 0 127 0"/>
<feOffset dy="1"/>
<feGaussianBlur stdDeviation="1"/>
<feColorMatrix type="matrix" values="0 0 0 0 0.0627451 0 0 0 0 0.14902 0 0 0 0 0.2 0 0 0 0.35 0"/>
<feBlend mode="normal" in2="BackgroundImageFix" result="effect1_dropShadow"/>
<feBlend mode="normal" in="SourceGraphic" in2="effect1_dropShadow" result="shape"/>
</filter>
<filter id="filter6_d" x="0" y="1" width="22" height="22" filterUnits="userSpaceOnUse" color-interpolation-filters="sRGB">
<feFlood flood-opacity="0" result="BackgroundImageFix"/>
<feColorMatrix in="SourceAlpha" type="matrix" values="0 0 0 0 0 0 0 0 0 0 0 0 0 0 0 0 0 0 127 0"/>
<feOffset dy="1"/>
<feGaussianBlur stdDeviation="1"/>
<feColorMatrix type="matrix" values="0 0 0 0 0.0627451 0 0 0 0 0.14902 0 0 0 0 0.2 0 0 0 0.35 0"/>
<feBlend mode="normal" in2="BackgroundImageFix" result="effect1_dropShadow"/>
<feBlend mode="normal" in="SourceGraphic" in2="effect1_dropShadow" result="shape"/>
</filter>
<filter id="filter7_d" x="0" y="0" width="22" height="22" filterUnits="userSpaceOnUse" color-interpolation-filters="sRGB">
<feFlood flood-opacity="0" result="BackgroundImageFix"/>
<feColorMatrix in="SourceAlpha" type="matrix" values="0 0 0 0 0 0 0 0 0 0 0 0 0 0 0 0 0 0 127 0"/>
<feOffset dy="1"/>
<feGaussianBlur stdDeviation="1"/>
<feColorMatrix type="matrix" values="0 0 0 0 0.0627451 0 0 0 0 0.14902 0 0 0 0 0.2 0 0 0 0.35 0"/>
<feBlend mode="normal" in2="BackgroundImageFix" result="effect1_dropShadow"/>
<feBlend mode="normal" in="SourceGraphic" in2="effect1_dropShadow" result="shape"/>
</filter>
</defs>
</svg>
