<svg width="72" height="72" viewBox="0 0 72 72" fill="none" xmlns="http://www.w3.org/2000/svg">
<g id="Avatar1">
<path id="Mask" fill-rule="evenodd" clip-rule="evenodd" d="M36 72C55.8823 72 72 55.8823 72 36C72 16.1177 55.8823 0 36 0C16.1177 0 0 16.1177 0 36C0 55.8823 16.1177 72 36 72Z" fill="#992FFF"/>
<mask id="mask0" mask-type="alpha" maskUnits="userSpaceOnUse" x="0" y="0" width="72" height="72">
<path id="Mask_2" fill-rule="evenodd" clip-rule="evenodd" d="M36 72C55.8823 72 72 55.8823 72 36C72 16.1177 55.8823 0 36 0C16.1177 0 0 16.1177 0 36C0 55.8823 16.1177 72 36 72Z" fill="white"/>
</mask>
<g mask="url(#mask0)">
<path id="Oval" opacity="0.501976" fill-rule="evenodd" clip-rule="evenodd" d="M55 53C55 42.5066 46.4934 34 36 34C25.5066 34 17 42.5066 17 53" fill="white"/>
<path id="Oval Copy" opacity="0.501976" fill-rule="evenodd" clip-rule="evenodd" d="M36 40C42.0751 40 47 35.0751 47 29C47 22.9249 42.0751 18 36 18C29.9249 18 25 22.9249 25 29C25 35.0751 29.9249 40 36 40Z" fill="white"/>
</g>
</g>
</svg>
