<?xml version="1.0" encoding="utf-8"?>
<!-- Generator: Adobe Illustrator 23.0.3, SVG Export Plug-In . SVG Version: 6.00 Build 0)  -->
<svg version="1.1" id="Слой_1" xmlns="http://www.w3.org/2000/svg" xmlns:xlink="http://www.w3.org/1999/xlink" x="0px" y="0px"
	 viewBox="0 0 22 24" style="enable-background:new 0 0 22 24;" xml:space="preserve">
<style type="text/css">
	.st0{fill-rule:evenodd;clip-rule:evenodd;fill:#00FFA4;}
	.st1{fill:#FFFFFF;}
	.st2{fill-rule:evenodd;clip-rule:evenodd;fill:#FFFFFF;filter:url(#Adobe_OpacityMaskFilter);stroke:#FFFFFF;stroke-width:3;}
	.st3{mask:url(#mask0_1_);}
</style>
<g>
	<path class="st0" d="M11,22l-5.5-4.3c-3.3-2.6-4.7-7-3.4-11l1.7-5.2h6.5h7.1l1.9,5c1.5,4.1,0.2,8.7-3.2,11.4L11,22z"/>
	<path class="st1" d="M11,23.9l-6.4-5c-3.8-3-5.4-8.1-3.9-12.6L2.8,0h15.7l2.3,6c1.8,4.7,0.3,10-3.7,13.1L11,23.9z M5,3L3.6,7.2
		c-1.1,3.4,0,7.2,2.9,9.3l4.5,3.5l4.3-3.3c3-2.3,4-6.2,2.7-9.7L16.5,3H5z"/>
</g>
<defs>
	<filter id="Adobe_OpacityMaskFilter" filterUnits="userSpaceOnUse">
		<feColorMatrix  type="matrix" values="1 0 0 0 0  0 1 0 0 0  0 0 1 0 0  0 0 0 1 0"/>
	</filter>
</defs>
<mask maskUnits="userSpaceOnUse" id="mask0_1_">
	<path class="st2" d="M11,22l-5.5-4.3c-3.3-2.6-4.7-7-3.4-11l1.7-5.2h6.5h7.1l1.9,5c1.5,4.1,0.2,8.7-3.2,11.4L11,22z"/>
</mask>
<g class="st3">
</g>
<g>
	<path d="M10.3,14L8.7,9h0c0.1,1,0.1,1.7,0.1,2.1v3H7.6V7.6h1.9l1.5,4.9h0l1.6-4.9h1.9V14h-1.3v-3c0-0.1,0-0.3,0-0.5
		c0-0.2,0-0.7,0.1-1.5h0l-1.7,5H10.3z"/>
</g>
</svg>
